<?xml version="1.0" encoding="UTF-8" standalone="no"?>
<!-- Created with Inkscape (http://www.inkscape.org/) -->

<svg
   width="60.872559mm"
   height="14.096329mm"
   viewBox="0 0 60.872559 14.096329"
   version="1.1"
   id="svg5"
   xml:space="preserve"
   inkscape:version="1.2.2 (1:1.2.2+202305151921+b0a8486541)"
   sodipodi:docname="buildice_logo.svg"
   xmlns:inkscape="http://www.inkscape.org/namespaces/inkscape"
   xmlns:sodipodi="http://sodipodi.sourceforge.net/DTD/sodipodi-0.dtd"
   xmlns="http://www.w3.org/2000/svg"
   xmlns:svg="http://www.w3.org/2000/svg"><sodipodi:namedview
     id="namedview7"
     pagecolor="#ffffff"
     bordercolor="#666666"
     borderopacity="1.0"
     inkscape:showpageshadow="2"
     inkscape:pageopacity="0.0"
     inkscape:pagecheckerboard="0"
     inkscape:deskcolor="#d1d1d1"
     inkscape:document-units="mm"
     showgrid="false"
     showguides="false"
     inkscape:zoom="2.3786088"
     inkscape:cx="567.55865"
     inkscape:cy="373.32747"
     inkscape:window-width="923"
     inkscape:window-height="1024"
     inkscape:window-x="12"
     inkscape:window-y="10"
     inkscape:window-maximized="0"
     inkscape:current-layer="g1634"><sodipodi:guide
       position="-98.327421,106.91803"
       orientation="-1,0"
       id="guide1499"
       inkscape:locked="false"
       inkscape:label=""
       inkscape:color="rgb(0,134,229)" /><sodipodi:guide
       position="-123.72742,81.518035"
       orientation="0,1"
       id="guide1501"
       inkscape:locked="false"
       inkscape:label=""
       inkscape:color="rgb(0,134,229)" /><sodipodi:guide
       position="60.87258,106.91803"
       orientation="-1,0"
       id="guide1503"
       inkscape:locked="false"
       inkscape:label=""
       inkscape:color="rgb(0,134,229)" /><sodipodi:guide
       position="-123.72742,56.118035"
       orientation="0,1"
       id="guide1505"
       inkscape:locked="false"
       inkscape:label=""
       inkscape:color="rgb(0,134,229)" /></sodipodi:namedview><defs
     id="defs2" /><g
     inkscape:label="Layer 1"
     inkscape:groupmode="layer"
     id="layer1"
     transform="translate(-123.72742,-92.821706)"><g
       id="g1634"
       transform="matrix(1.4014786,0,0,1.4014786,-17.689513,17.032203)"
       style="stroke-width:0.713532"><rect
         style="fill:#0088aa;stroke:none;stroke-width:0.189085;stroke-linecap:round;stroke-linejoin:bevel;stroke-miterlimit:4.1"
         id="rect1606"
         width="10.281606"
         height="4.7131195"
         x="114.49635"
         y="34.784203" /><path
         id="path1608"
         style="font-size:9.78619px;line-height:1.25;font-family:Dhurjati;-inkscape-font-specification:Dhurjati;letter-spacing:0px;word-spacing:0px;fill:#ffffff;stroke-width:0.188788"
         d="m 115.47567,34.784239 v 1.02009 c 0.0115,0.005 0.0228,0.01 0.0346,0.0155 v 5.2e-4 c 0.18765,0.0871 0.44637,0.19045 0.57516,0.22996 0.24379,0.0748 0.30986,0.11969 0.24443,0.1664 -0.0213,0.0152 -0.13532,-0.0164 -0.25373,-0.0698 -0.26009,-0.11726 -0.45612,-0.2076 -0.60048,-0.27699 v 3.62717 h 1.07952 v -0.54519 c -0.0941,0.09 -0.17327,0.17241 -0.22479,0.23771 -0.19004,0.24087 -0.29208,0.24914 -0.15141,0.0124 0.0363,-0.0611 0.17543,-0.19471 0.3762,-0.36432 v -0.84905 c -0.18959,0.0344 -0.23138,0.0303 -0.16898,-0.015 0.0235,-0.0171 0.0949,-0.0289 0.16898,-0.0295 v -0.34778 c -0.19568,0.0363 -0.91695,0.0628 -0.94206,0.0284 -0.0246,-0.0338 0.0148,-0.0387 0.82217,-0.10955 v -5.2e-4 c 0.0445,-0.004 0.0791,-0.007 0.11989,-0.0103 v -0.46147 c -0.0364,-0.008 -0.0763,-0.0148 -0.11834,-0.0207 -0.27632,-0.0388 -0.2344,-0.0563 0.11834,-0.0532 v -0.20154 c -0.0958,-0.0241 -0.20497,-0.048 -0.32453,-0.0703 -0.24724,-0.0461 -0.43549,-0.0943 -0.41806,-0.10697 0.0175,-0.0127 0.22592,0.0121 0.46302,0.0548 l 0.002,5.1e-4 c 0.0971,0.0175 0.19364,0.0284 0.2775,0.0331 v -0.36174 c -0.15014,-0.0816 -0.1689,-0.12188 0,-0.0687 v -1.46399 z m 0.26562,0.38395 c 0.0269,0.001 0.0918,0.0376 0.18965,0.10749 0.16126,0.11533 0.16351,0.12252 0.0279,0.0822 -0.0815,-0.0242 -0.17013,-0.0743 -0.19689,-0.11111 -0.0389,-0.0535 -0.0444,-0.0797 -0.0207,-0.0786 z m -0.11317,1.32964 c 0.0186,-0.002 0.0492,0.004 0.0775,0.016 0.0378,0.0156 0.0444,0.0459 0.0145,0.0677 -0.0298,0.0217 -0.0711,0.0162 -0.0915,-0.0119 -0.0205,-0.0282 -0.0271,-0.0585 -0.0145,-0.0677 0.003,-0.002 0.008,-0.004 0.014,-0.004 z m 0.10283,0.4315 c 0.0354,-5.8e-4 0.0868,10e-4 0.15451,0.006 0.10804,0.007 0.19379,0.0318 0.19017,0.0548 -0.004,0.0229 -0.10257,0.0229 -0.21962,5.2e-4 -0.19097,-0.0364 -0.23116,-0.0592 -0.12506,-0.061 z" /><path
         id="path1610"
         style="font-size:9.78619px;line-height:1.25;font-family:Dhurjati;-inkscape-font-specification:Dhurjati;letter-spacing:0px;word-spacing:0px;fill:#ffffff;stroke-width:0.188788"
         d="m 118.7442,34.784239 c -6e-5,0.0426 -0.004,0.0736 -0.0155,0.0817 -0.005,0.004 -0.0209,-0.0278 -0.0413,-0.0806 -0.0501,8.2e-4 -0.0999,0.003 -0.14934,0.007 0.006,0.021 -0.001,0.0296 -0.0227,0.0212 -0.18924,-0.0737 -0.41924,0.27059 -0.35037,0.52452 0.0374,0.13789 0.0269,0.16347 -0.0553,0.13074 -0.0565,-0.0224 -0.0836,-0.0142 -0.0605,0.0186 0.0229,0.0324 0.0171,0.0974 -0.0134,0.14418 -0.0381,0.0584 -0.079,0.0533 -0.13126,-0.0186 -0.0414,-0.0571 -0.0451,-0.10625 -0.008,-0.10904 0.0367,-0.002 0.0904,-0.12755 0.11937,-0.2775 0.0355,-0.1835 0.10068,-0.30263 0.21188,-0.38757 -0.003,5.7e-4 -0.005,9.6e-4 -0.008,0.002 -0.15748,0.0375 -0.29654,0.0935 -0.41652,0.16846 -0.0819,0.0461 -0.15299,0.10129 -0.21394,0.16485 0.0362,0.0354 0.0783,0.0727 0.11266,0.0982 0.0924,0.0686 0.0909,0.0702 -0.0274,0.0238 -0.042,-0.0164 -0.0862,-0.049 -0.11937,-0.0847 -0.0155,0.0182 -0.0305,0.0373 -0.0444,0.0568 -0.075,0.10499 -0.11214,0.22469 -0.11214,0.35967 v 1.01906 c 0.0611,-0.0318 0.10612,-0.0817 0.12247,-0.14573 0.0162,-0.0638 0.0373,-0.11026 0.0465,-0.10335 0.0186,0.0136 0.12652,-0.12781 0.25941,-0.33952 0.0474,-0.0756 0.10651,-0.13412 0.13126,-0.13022 0.0247,0.004 9.9e-4,0.0744 -0.0527,0.15658 -0.0537,0.0821 -0.0791,0.17446 -0.0568,0.20515 0.0237,0.0326 -0.0118,0.0733 -0.0853,0.0977 -0.0751,0.025 -0.10919,0.0654 -0.0842,0.0997 0.023,0.0317 0.013,0.0593 -0.0217,0.062 -0.0729,0.006 -0.0245,0.31841 0.0775,0.50333 0.0751,0.136 0.19719,0.16262 0.1881,0.0408 -0.003,-0.0414 0.0496,-0.11554 0.11679,-0.16433 0.0671,-0.0487 0.1226,-0.15074 0.12351,-0.22686 9.2e-4,-0.0762 0.0543,-0.24472 0.11834,-0.37465 0.1193,-0.24166 -0.0168,-0.51045 -0.25477,-0.50178 -0.051,0.002 -0.0491,-0.0222 0.005,-0.0625 0.0648,-0.048 0.11883,-0.0254 0.19844,0.0842 0.15354,0.2114 0.26914,0.17863 0.14728,-0.0419 -0.1,-0.18083 -0.0995,-0.18066 0.047,0.004 0.0161,0.0203 0.0343,0.037 0.0537,0.0512 v -0.13178 c 0,-0.10501 0.0415,-0.18369 0.12402,-0.23616 0.0687,-0.0437 0.15839,-0.0692 0.26872,-0.0765 -0.0782,-0.22693 -0.1231,-0.40521 -0.0997,-0.40152 0.0238,0.004 0.10473,0.18199 0.1819,0.39945 h 0.31265 c 0.13498,0 0.24358,0.0261 0.32608,0.0786 0.0825,0.0525 0.12402,0.13118 0.12402,0.23616 v 0.52865 h 0.17415 c -0.007,-0.037 0.002,-0.0483 0.0222,-0.0238 0.003,0.004 0.006,0.0123 0.008,0.0238 h 0.20671 c -0.006,-0.0207 -0.001,-0.0354 0.016,-0.0367 0.0265,-0.002 0.0991,-0.13935 0.16123,-0.3054 0.0944,-0.25247 0.0934,-0.29713 -0.005,-0.27079 -0.0648,0.0174 -0.10787,0.0619 -0.0961,0.0992 0.0118,0.0371 -0.008,0.0701 -0.0444,0.0729 -0.0361,0.002 -0.0955,0.0832 -0.13178,0.17829 -0.0633,0.16698 -0.21462,0.0224 -0.16381,-0.15658 0.008,-0.0271 0.0121,-0.16401 0.009,-0.30438 -0.003,-0.1403 0.0178,-0.25192 0.0455,-0.24753 0.0278,0.005 0.0493,0.11692 0.0481,0.2496 -0.002,0.26114 0.0804,0.33226 0.15916,0.13746 0.0366,-0.0905 0.0847,-0.12127 0.18965,-0.12092 0.0774,-1.3e-4 0.16964,-0.0403 0.20464,-0.0899 0.0461,-0.0656 0.0516,-0.0472 0.0207,0.0662 -0.0235,0.086 -0.0692,0.17696 -0.1018,0.20205 -0.21023,0.16135 0.10567,0.39126 0.3302,0.2403 0.01,-0.007 0.0187,-0.0121 0.0274,-0.0176 v -0.32608 c 0,-0.1288 -0.034,-0.24371 -0.10231,-0.3452 -0.0616,0.0937 -0.0993,0.092 -0.0574,-0.046 0.002,-0.007 0.005,-0.0152 0.008,-0.0227 -0.0643,-0.0808 -0.1484,-0.14915 -0.25322,-0.20464 -0.11998,-0.075 -0.25904,-0.131 -0.41651,-0.16846 -0.15748,-0.0375 -0.32206,-0.0563 -0.49454,-0.0563 z m -0.18345,0.13642 c 0.0105,10e-4 0.0318,0.0252 0.0641,0.0698 h 5.2e-4 c 0.0404,0.0556 0.0714,0.17078 0.0692,0.2558 -0.003,0.14048 -0.0106,0.13445 -0.076,-0.0667 -0.0587,-0.18008 -0.0779,-0.26117 -0.0579,-0.2589 z m 1.84847,1.20768 c -0.0377,0.003 -0.085,0.0422 -0.12712,0.10594 -0.006,0.009 -0.0108,0.016 -0.016,0.0233 h 0.15451 c 0.0111,-0.0336 0.0212,-0.0564 0.0289,-0.062 0.0275,-0.02 0.0204,-0.0487 -0.016,-0.0636 -0.008,-0.003 -0.0156,-0.004 -0.0243,-0.004 z m -1.93063,0.0362 c -0.036,0.05 -0.0675,0.10743 -0.0915,0.17053 l -5.2e-4,-5.2e-4 c -0.0364,0.0958 -0.0407,0.20863 -0.0103,0.25063 0.0322,0.0443 0.0168,0.0864 -0.0362,0.10077 -0.11452,0.0309 -9.8e-4,0.29439 0.13849,0.33228 v -0.21446 c -0.0273,-0.0134 -0.0445,-0.0312 -0.0419,-0.0481 0.002,-0.0149 0.0187,-0.0185 0.0419,-0.0134 z m 2.22415,0.0351 c -0.0272,9e-5 -0.0722,0.0203 -0.12557,0.0579 h 0.16019 c -0.003,-0.009 -0.005,-0.0207 -0.006,-0.0341 -10e-4,-0.0162 -0.0113,-0.0238 -0.0284,-0.0238 z m -2.86184,0.27078 c 0.0217,-9.6e-4 0.0451,0.0273 0.0667,0.0827 0.0698,0.17859 0.01,0.28629 -0.0729,0.12971 -0.0373,-0.071 -0.0473,-0.15793 -0.0222,-0.19275 0.009,-0.0126 0.0186,-0.0192 0.0284,-0.0196 z m -0.33796,0.31988 c -0.0162,7.3e-4 -0.0368,0.005 -0.063,0.0124 -0.0111,0.003 -0.0251,0.005 -0.0408,0.006 v 0.2403 c 0.11807,0.0295 0.15968,-0.0139 0.16019,-0.13436 6.9e-4,-0.0946 -0.008,-0.12675 -0.0563,-0.12454 z m 0.67799,0.22944 c -0.0331,7.9e-4 -0.064,0.0102 -0.0904,0.0295 -0.13279,0.0964 -0.1015,0.13625 0.14418,0.18345 0.17675,0.0337 0.19444,0.0511 0.16433,0.15968 -0.0292,0.1052 0.0112,0.25755 0.0796,0.36535 v -0.50436 c -0.0449,-0.13713 -0.1828,-0.23632 -0.29766,-0.23358 z m -0.78186,0.10749 v 0.33383 c 0.0373,0.007 0.0474,0.0201 0.0444,0.0388 -0.001,0.007 -0.0173,0.0131 -0.0444,0.0186 v 0.0935 c 0.19997,-0.17646 0.20578,-0.39014 0,-0.48472 z m 0.30799,0.005 c -0.0151,0.002 -0.035,0.0141 -0.0563,0.0351 -0.0425,0.0421 -0.0688,0.1054 -0.0574,0.14159 0.0115,0.0362 0.0838,0.0415 0.16123,0.0124 0.198,-0.0748 0.11545,0.13113 -0.0889,0.22169 l -0.14831,0.0656 0.20412,0.0124 c 0.16703,0.0101 0.18831,0.0245 0.11575,0.0786 -0.0677,0.0504 -0.0575,0.10971 0.0434,0.24857 0.17167,0.23635 0.20849,0.13684 0.0785,-0.21343 -0.089,-0.23948 -0.0854,-0.27967 0.0264,-0.29507 0.19471,-0.0267 0.15073,-0.15549 -0.0646,-0.18965 -0.10073,-0.0159 -0.1855,-0.0584 -0.1881,-0.094 -0.001,-0.0179 -0.0108,-0.0258 -0.0258,-0.0238 z m 0.51315,0.14727 c -0.0119,7.2e-4 -0.024,0.005 -0.0346,0.0124 -0.0282,0.0205 -0.0249,0.0729 0.007,0.11678 0.0319,0.044 0.0708,0.0488 0.0863,0.0109 0.0155,-0.0377 0.0123,-0.0904 -0.007,-0.11679 -0.012,-0.0165 -0.0318,-0.0244 -0.0517,-0.0233 z m -0.0584,0.38603 c -0.0618,0.002 -0.0803,0.0914 -0.0501,0.26251 0.0288,0.16364 0.0499,0.19256 0.1359,0.18707 0.0716,-0.005 0.0602,0.0242 -0.0382,0.0966 -0.0903,0.0664 -0.12012,0.13047 -0.0842,0.17983 0.0812,0.11173 0.22329,-0.0235 0.28939,-0.27544 0.0486,-0.18496 0.0338,-0.24081 -0.0961,-0.3607 -0.0671,-0.0619 -0.11953,-0.0913 -0.15658,-0.0899 z m -0.52813,0.0672 c -0.0556,0.002 -0.13442,0.0163 -0.23461,0.0418 v 0.38913 c 0.35108,-0.2975 0.42775,-0.43714 0.23461,-0.43098 z m -0.0496,0.11782 c 0.0112,3.4e-4 0.0214,0.002 0.03,0.006 0.0343,0.0141 0.008,0.0471 -0.0594,0.0734 -0.14218,0.0556 -0.18244,0.0314 -0.0765,-0.0455 0.0304,-0.0221 0.0723,-0.0346 0.10594,-0.0336 z m 2.13217,0.17311 v 0.11886 c 0.0636,-3.9e-4 0.0632,-0.0332 0.0517,-0.11886 z m 0.14573,0 c -0.002,0.0671 0.0293,0.19179 0.0971,0.42582 0.0536,0.18433 0.066,0.29428 0.0279,0.24391 -0.038,-0.0505 -0.0767,-0.14574 -0.0858,-0.21187 -0.0111,-0.082 -0.0668,-0.13173 -0.185,-0.16537 v 0.23616 c 0,0.10502 -0.0415,0.1837 -0.12402,0.23617 -0.0368,0.0234 -0.0789,0.0413 -0.1261,0.0543 -0.006,0.094 -0.009,0.18608 -0.009,0.25579 -2e-5,0.14791 -0.016,0.24599 -0.0362,0.21808 -0.0324,-0.0445 -0.0403,-0.18728 -0.0243,-0.45889 -0.0403,0.006 -0.0837,0.009 -0.13022,0.009 h -0.2527 c -0.0322,0.16354 -0.0471,0.32761 -0.0331,0.40515 0.009,0.0495 0.004,0.13106 -0.009,0.22479 h 0.5085 c 0.17248,0 0.33706,-0.0183 0.49454,-0.0558 0.15747,-0.0375 0.29653,-0.0901 0.41651,-0.15761 0.12748,-0.075 0.225,-0.16529 0.29249,-0.27027 0.075,-0.10499 0.11213,-0.22469 0.11213,-0.35967 v -0.53589 c -0.0573,-0.0322 -0.11402,-0.0641 -0.17001,-0.094 z m 0.92603,0 c 0.003,10e-4 0.005,0.003 0.008,0.004 v -0.004 z m -2.96312,0.0553 c -0.0674,0.003 -0.15006,0.0249 -0.24133,0.0723 -0.0516,0.0268 -0.11504,0.0658 -0.18448,0.11266 v 0.37414 c 0.18972,-0.1217 0.35152,-0.22216 0.42116,-0.25994 0.26957,-0.14639 0.20674,-0.30773 0.005,-0.2992 z m 0.65371,0.0971 c -0.0575,0.0687 -0.087,0.14278 -0.0816,0.21446 0.002,0.0233 0.0306,0.0205 0.0816,-0.006 z m -0.42685,0.28835 c -0.098,-0.002 -0.25992,0.0584 -0.48162,0.18862 -0.0576,0.0338 -0.11241,0.0656 -0.16485,0.0961 0.0138,0.0966 0.0492,0.18462 0.10594,0.26407 0.075,0.10498 0.1725,0.19527 0.29248,0.27027 0.10878,0.0612 0.23402,0.10973 0.37362,0.14624 0.0122,-0.0243 0.0246,-0.0551 0.0398,-0.0951 0.0388,-0.10208 0.0904,-0.18225 0.11523,-0.17828 0.0247,0.004 0.006,0.10589 -0.0418,0.22686 l -0.0264,0.0667 c 0.15102,0.0311 0.30474,0.047 0.46199,0.047 h 0.12454 l 0.0351,-0.35037 c 0.0111,-0.11072 0.0157,-0.20425 0.0145,-0.2806 -0.10909,-0.004 -0.19935,-0.0241 -0.27027,-0.0615 -0.002,0.004 -0.005,0.007 -0.007,0.0114 -0.17308,0.28435 -0.28424,0.33201 -0.12144,0.0522 0.0239,-0.041 0.0435,-0.0779 0.0599,-0.11214 -0.0545,-0.0507 -0.0827,-0.11823 -0.0827,-0.20361 v -0.0362 c -0.10294,0.0569 -0.24834,0.19821 -0.39378,0.41806 -0.11492,0.1737 -0.22913,0.31293 -0.25373,0.30903 -0.0246,-0.004 -0.003,-0.0623 0.0481,-0.12971 0.31312,-0.41256 0.3597,-0.64503 0.1726,-0.64906 z m 1.99574,0.32867 0.0765,0.10076 5.1e-4,-5.1e-4 c 0.0426,0.0551 0.0798,0.15139 0.0832,0.21342 0.008,0.14945 -0.0843,0.0213 -0.12971,-0.17932 z" /><path
         id="path1612"
         style="font-size:9.78619px;line-height:1.25;font-family:Dhurjati;-inkscape-font-specification:Dhurjati;letter-spacing:0px;word-spacing:0px;fill:#ffffff;stroke-width:0.188788"
         d="m 121.54971,34.784239 v 1.41283 c 0.0158,-0.0142 0.0371,-0.0312 0.0646,-0.0506 0.0848,-0.0603 0.12156,-0.0693 0.0816,-0.0207 -0.038,0.046 -0.10175,0.0921 -0.14624,0.10697 v 0.20877 c 0.0274,0.008 0.0585,0.0157 0.0941,0.0238 0.1523,0.0344 0.39286,0.12927 0.53433,0.21084 0.14781,0.0852 0.54448,0.18919 0.93225,0.24443 0.31058,0.0443 0.793,0.16009 1.20664,0.27647 v -0.52296 h -1.68723 v -1.04904 c -0.0705,0.0327 -0.1245,0.0538 -0.13695,0.0527 -0.0412,-0.004 0.0375,-0.0609 0.13695,-0.1142 v -0.14935 h 2.14819 v -0.0382 c -0.0449,1.7e-4 -0.0956,-10e-4 -0.14987,-0.005 -0.21343,-0.0126 -0.49094,-0.0251 -0.61701,-0.0279 -0.12608,-0.003 -0.20865,-0.0195 -0.18345,-0.0372 0.0252,-0.0177 0.2849,-0.0304 0.5767,-0.0284 0.14028,9.6e-4 0.2716,0.008 0.37363,0.0181 v -0.51159 z m 0.46405,1.16117 c 0.0105,-8e-4 0.0114,0.007 5.2e-4,0.0248 -0.0249,0.0397 -0.0822,0.0816 -0.12764,0.093 -0.0456,0.0109 -0.0254,-0.0212 0.045,-0.0724 0.0396,-0.0287 0.0687,-0.0444 0.0822,-0.0455 z m -0.46405,0.56896 v 0.95549 c 0.0613,0.0263 0.13071,0.0517 0.2005,0.0713 0.30704,0.0863 0.36642,0.10991 0.87954,0.40669 v -0.64389 h 1.68723 v -0.0305 c -0.53968,-0.16602 -1.36471,-0.3065 -2.05775,-0.34726 -0.17967,-0.0105 -0.25216,-0.0321 -0.16123,-0.0481 0.15748,-0.0278 0.15875,-0.0346 0.0284,-0.14366 -0.10848,-0.0907 -0.3717,-0.18282 -0.57671,-0.22014 z m 0.23564,0.37465 c 0.0211,-10e-4 0.0438,0.002 0.0625,0.01 v -5.2e-4 c 0.039,0.016 0.0249,0.0397 -0.0336,0.0553 -0.11341,0.0303 -0.15637,0.006 -0.0827,-0.048 0.0132,-0.01 0.0327,-0.0153 0.0537,-0.0165 z m -0.23564,0.69815 v 0.91157 c 0.11488,0.0782 0.22024,0.14861 0.26355,0.1757 0.0746,0.0466 0.0842,0.0714 0.0294,0.0755 -0.0448,0.004 -0.17054,-0.0607 -0.27957,-0.14211 -0.004,-0.003 -0.009,-0.007 -0.0134,-0.01 v 0.89917 h 3.22823 v -0.62994 h -2.14819 v -0.8108 c -0.0443,-0.0232 -0.0906,-0.0482 -0.13953,-0.0744 -0.37019,-0.19859 -0.65098,-0.32265 -0.94051,-0.39481 z m 0.55035,1.24282 c 0.005,-4.9e-4 0.0157,0.009 0.031,0.0269 0.0255,0.0317 0.091,0.0895 0.14469,0.12919 0.0928,0.0688 0.0914,0.0698 -0.0279,0.0227 -0.0687,-0.0269 -0.13427,-0.0851 -0.14521,-0.12919 -0.008,-0.0326 -0.009,-0.049 -0.003,-0.0496 z" /><text
         xml:space="preserve"
         style="font-size:9.78614px;line-height:1.25;font-family:'Le Griffe Std';-inkscape-font-specification:'Le Griffe Std';letter-spacing:0px;word-spacing:0px;fill:#0088aa;fill-opacity:1;stroke-width:0.188788"
         x="113.80745"
         y="39.497284"
         id="text1616"><tspan
           sodipodi:role="line"
           id="tspan1614"
           style="font-style:normal;font-variant:normal;font-weight:normal;font-stretch:normal;font-family:Dhurjati;-inkscape-font-specification:Dhurjati;text-align:end;text-anchor:end;fill:#0088aa;fill-opacity:1;stroke-width:0.188788"
           x="113.80745"
           y="39.497284">BYO</tspan></text><text
         xml:space="preserve"
         style="font-style:normal;font-variant:normal;font-weight:normal;font-stretch:normal;font-size:2.36309px;line-height:0.5;font-family:Roboto;-inkscape-font-specification:Roboto;letter-spacing:0px;word-spacing:0px;fill:#808080;stroke-width:0.188788"
         x="125.47885"
         y="35.922302"
         id="text1632"><tspan
           sodipodi:role="line"
           id="tspan1620"
           style="font-style:normal;font-variant:normal;font-weight:normal;font-stretch:normal;font-family:Dhurjati;-inkscape-font-specification:Dhurjati;fill:#808080;stroke-width:0.188788"
           x="125.47885"
           y="35.922302"
           dy="0"><tspan
   style="font-weight:bold;stroke-width:0.188788"
   id="tspan1618">BUILD</tspan>ING</tspan><tspan
           sodipodi:role="line"
           style="font-style:normal;font-variant:normal;font-weight:normal;font-stretch:normal;font-family:Dhurjati;-inkscape-font-specification:Dhurjati;fill:#808080;stroke-width:0.188788"
           x="125.47885"
           y="37.706322"
           id="tspan1624">YOUR</tspan><tspan
           sodipodi:role="line"
           style="font-style:normal;font-variant:normal;font-weight:normal;font-stretch:normal;font-family:Dhurjati;-inkscape-font-specification:Dhurjati;fill:#808080;stroke-width:0.188788"
           x="125.47885"
           y="39.490341"
           id="tspan1638">OWN</tspan><tspan
           sodipodi:role="line"
           style="font-style:normal;font-variant:normal;font-weight:normal;font-stretch:normal;font-family:Dhurjati;-inkscape-font-specification:Dhurjati;fill:#808080;stroke-width:0.188788"
           x="125.47885"
           y="41.274361"
           id="tspan1626">INSTRUMENTATION FOR </tspan><tspan
           sodipodi:role="line"
           style="font-style:normal;font-variant:normal;font-weight:normal;font-stretch:normal;font-family:Dhurjati;-inkscape-font-specification:Dhurjati;fill:#808080;stroke-width:0.188788"
           x="125.47885"
           y="43.058384"
           id="tspan1628">COLD </tspan><tspan
           sodipodi:role="line"
           style="font-style:normal;font-variant:normal;font-weight:normal;font-stretch:normal;font-family:Dhurjati;-inkscape-font-specification:Dhurjati;fill:#808080;stroke-width:0.188788"
           x="125.47885"
           y="44.842403"
           id="tspan1630">ENVIRONMENTS</tspan></text><rect
         style="fill:#0088aa;stroke:none;stroke-width:0.189085;stroke-linecap:round;stroke-linejoin:bevel;stroke-miterlimit:4.1"
         id="rect1640"
         width="10.281606"
         height="4.7021766"
         x="114.49635"
         y="57.681767" /><path
         id="path1642"
         style="font-size:9.78619px;line-height:1.25;font-family:Dhurjati;-inkscape-font-specification:Dhurjati;letter-spacing:0px;word-spacing:0px;fill:#ffffff;stroke-width:0.188788"
         d="m 115.47567,57.676105 v 1.02009 c 0.0115,0.005 0.0228,0.01 0.0346,0.0155 v 5.2e-4 c 0.18765,0.0871 0.44637,0.19045 0.57516,0.22996 0.24379,0.0748 0.30986,0.11969 0.24443,0.1664 -0.0213,0.0152 -0.13532,-0.0164 -0.25373,-0.0698 -0.26009,-0.11726 -0.45612,-0.2076 -0.60048,-0.27699 v 3.62717 h 1.07952 v -0.54519 c -0.0941,0.09 -0.17327,0.17241 -0.22479,0.23771 -0.19004,0.24087 -0.29208,0.24914 -0.15141,0.0124 0.0363,-0.0611 0.17543,-0.19471 0.3762,-0.36432 v -0.84905 c -0.18959,0.0344 -0.23138,0.0303 -0.16898,-0.015 0.0235,-0.0171 0.0949,-0.0289 0.16898,-0.0295 v -0.34778 c -0.19568,0.0363 -0.91695,0.0628 -0.94206,0.0284 -0.0246,-0.0338 0.0148,-0.0387 0.82217,-0.10955 v -5.2e-4 c 0.0445,-0.004 0.0791,-0.007 0.11989,-0.0103 v -0.46147 c -0.0364,-0.008 -0.0763,-0.0148 -0.11834,-0.0207 -0.27632,-0.0388 -0.2344,-0.0563 0.11834,-0.0532 v -0.20154 c -0.0958,-0.0241 -0.20497,-0.048 -0.32453,-0.0703 -0.24724,-0.0461 -0.43549,-0.0943 -0.41806,-0.10697 0.0175,-0.0127 0.22592,0.0121 0.46302,0.0548 l 0.002,5.1e-4 c 0.0971,0.0175 0.19364,0.0284 0.2775,0.0331 v -0.36174 c -0.15014,-0.0816 -0.1689,-0.12188 0,-0.0687 v -1.46399 z m 0.26562,0.38395 c 0.0269,0.001 0.0918,0.0376 0.18965,0.10749 0.16126,0.11533 0.16351,0.12252 0.0279,0.0822 -0.0815,-0.0242 -0.17013,-0.0743 -0.19689,-0.11111 -0.0389,-0.0535 -0.0444,-0.0797 -0.0207,-0.0786 z m -0.11317,1.32964 c 0.0186,-0.002 0.0492,0.004 0.0775,0.016 0.0378,0.0156 0.0444,0.0459 0.0145,0.0677 -0.0298,0.0217 -0.0711,0.0162 -0.0915,-0.0119 -0.0205,-0.0282 -0.0271,-0.0585 -0.0145,-0.0677 0.003,-0.002 0.008,-0.004 0.014,-0.004 z m 0.10283,0.4315 c 0.0354,-5.8e-4 0.0868,10e-4 0.15451,0.006 0.10804,0.007 0.19379,0.0318 0.19017,0.0548 -0.004,0.0229 -0.10257,0.0229 -0.21962,5.2e-4 -0.19097,-0.0364 -0.23116,-0.0592 -0.12506,-0.061 z" /><path
         id="path1644"
         style="font-size:9.78619px;line-height:1.25;font-family:Dhurjati;-inkscape-font-specification:Dhurjati;letter-spacing:0px;word-spacing:0px;fill:#ffffff;stroke-width:0.188788"
         d="m 118.7442,57.676105 c -6e-5,0.0426 -0.004,0.0736 -0.0155,0.0817 -0.005,0.004 -0.0209,-0.0278 -0.0413,-0.0806 -0.0501,8.2e-4 -0.0999,0.003 -0.14934,0.007 0.006,0.021 -0.001,0.0296 -0.0227,0.0212 -0.18924,-0.0737 -0.41924,0.27059 -0.35037,0.52452 0.0374,0.13789 0.0269,0.16347 -0.0553,0.13074 -0.0565,-0.0224 -0.0836,-0.0142 -0.0605,0.0186 0.0229,0.0324 0.0171,0.0974 -0.0134,0.14418 -0.0381,0.0584 -0.079,0.0533 -0.13126,-0.0186 -0.0414,-0.0571 -0.0451,-0.10625 -0.008,-0.10904 0.0367,-0.002 0.0904,-0.12755 0.11937,-0.2775 0.0355,-0.1835 0.10068,-0.30263 0.21188,-0.38757 -0.003,5.7e-4 -0.005,9.6e-4 -0.008,0.002 -0.15748,0.0375 -0.29654,0.0935 -0.41652,0.16846 -0.0819,0.0461 -0.15299,0.10129 -0.21394,0.16485 0.0362,0.0354 0.0783,0.0727 0.11266,0.0982 0.0924,0.0686 0.0909,0.0702 -0.0274,0.0238 -0.042,-0.0164 -0.0862,-0.049 -0.11937,-0.0847 -0.0155,0.0182 -0.0305,0.0373 -0.0444,0.0568 -0.075,0.10499 -0.11214,0.22469 -0.11214,0.35967 v 1.01906 c 0.0611,-0.0318 0.10612,-0.0817 0.12247,-0.14573 0.0162,-0.0638 0.0373,-0.11026 0.0465,-0.10335 0.0186,0.0136 0.12652,-0.12781 0.25941,-0.33952 0.0474,-0.0756 0.10651,-0.13412 0.13126,-0.13022 0.0247,0.004 9.9e-4,0.0744 -0.0527,0.15658 -0.0537,0.0821 -0.0791,0.17446 -0.0568,0.20515 0.0237,0.0326 -0.0118,0.0733 -0.0853,0.0977 -0.0751,0.025 -0.10919,0.0654 -0.0842,0.0997 0.023,0.0317 0.013,0.0593 -0.0217,0.062 -0.0729,0.006 -0.0245,0.31841 0.0775,0.50333 0.0751,0.136 0.19719,0.16262 0.1881,0.0408 -0.003,-0.0414 0.0496,-0.11554 0.11679,-0.16433 0.0671,-0.0487 0.1226,-0.15074 0.12351,-0.22686 9.2e-4,-0.0762 0.0543,-0.24472 0.11834,-0.37465 0.1193,-0.24166 -0.0168,-0.51045 -0.25477,-0.50178 -0.051,0.002 -0.0491,-0.0222 0.005,-0.0625 0.0648,-0.048 0.11883,-0.0254 0.19844,0.0842 0.15354,0.2114 0.26914,0.17863 0.14728,-0.0419 -0.1,-0.18083 -0.0995,-0.18066 0.047,0.004 0.0161,0.0203 0.0343,0.037 0.0537,0.0512 v -0.13178 c 0,-0.10501 0.0415,-0.18369 0.12402,-0.23616 0.0687,-0.0437 0.15839,-0.0692 0.26872,-0.0765 -0.0782,-0.22693 -0.1231,-0.40521 -0.0997,-0.40152 0.0238,0.004 0.10473,0.18199 0.1819,0.39945 h 0.31265 c 0.13498,0 0.24358,0.0261 0.32608,0.0786 0.0825,0.0525 0.12402,0.13118 0.12402,0.23616 v 0.52865 h 0.17415 c -0.007,-0.037 0.002,-0.0483 0.0222,-0.0238 0.003,0.004 0.006,0.0123 0.008,0.0238 h 0.20671 c -0.006,-0.0207 -0.001,-0.0354 0.016,-0.0367 0.0265,-0.002 0.0991,-0.13935 0.16123,-0.3054 0.0944,-0.25247 0.0934,-0.29713 -0.005,-0.27079 -0.0648,0.0174 -0.10787,0.0619 -0.0961,0.0992 0.0118,0.0371 -0.008,0.0701 -0.0444,0.0729 -0.0361,0.002 -0.0955,0.0832 -0.13178,0.17829 -0.0633,0.16698 -0.21462,0.0224 -0.16381,-0.15658 0.008,-0.0271 0.0121,-0.16401 0.009,-0.30438 -0.003,-0.1403 0.0178,-0.25192 0.0455,-0.24753 0.0278,0.005 0.0493,0.11692 0.0481,0.2496 -0.002,0.26114 0.0804,0.33226 0.15916,0.13746 0.0366,-0.0905 0.0847,-0.12127 0.18965,-0.12092 0.0774,-1.3e-4 0.16964,-0.0403 0.20464,-0.0899 0.0461,-0.0656 0.0516,-0.0472 0.0207,0.0662 -0.0235,0.086 -0.0692,0.17696 -0.1018,0.20205 -0.21023,0.16135 0.10567,0.39126 0.3302,0.2403 0.01,-0.007 0.0187,-0.0121 0.0274,-0.0176 v -0.32608 c 0,-0.1288 -0.034,-0.24371 -0.10231,-0.3452 -0.0616,0.0937 -0.0993,0.092 -0.0574,-0.046 0.002,-0.007 0.005,-0.0152 0.008,-0.0227 -0.0643,-0.0808 -0.1484,-0.14915 -0.25322,-0.20464 -0.11998,-0.075 -0.25904,-0.131 -0.41651,-0.16846 -0.15748,-0.0375 -0.32206,-0.0563 -0.49454,-0.0563 z m -0.18345,0.13642 c 0.0105,10e-4 0.0318,0.0252 0.0641,0.0698 h 5.2e-4 c 0.0404,0.0556 0.0714,0.17078 0.0692,0.2558 -0.003,0.14048 -0.0106,0.13445 -0.076,-0.0667 -0.0587,-0.18008 -0.0779,-0.26117 -0.0579,-0.2589 z m 1.84847,1.20768 c -0.0377,0.003 -0.085,0.0422 -0.12712,0.10594 -0.006,0.009 -0.0108,0.016 -0.016,0.0233 h 0.15451 c 0.0111,-0.0336 0.0212,-0.0564 0.0289,-0.062 0.0275,-0.02 0.0204,-0.0487 -0.016,-0.0636 -0.008,-0.003 -0.0156,-0.004 -0.0243,-0.004 z m -1.93063,0.0362 c -0.036,0.05 -0.0675,0.10743 -0.0915,0.17053 l -5.2e-4,-5.2e-4 c -0.0364,0.0958 -0.0407,0.20863 -0.0103,0.25063 0.0322,0.0443 0.0168,0.0864 -0.0362,0.10077 -0.11452,0.0309 -9.8e-4,0.29439 0.13849,0.33228 v -0.21446 c -0.0273,-0.0134 -0.0445,-0.0312 -0.0419,-0.0481 0.002,-0.0149 0.0187,-0.0185 0.0419,-0.0134 z m 2.22415,0.0351 c -0.0272,9e-5 -0.0722,0.0203 -0.12557,0.0579 h 0.16019 c -0.003,-0.009 -0.005,-0.0207 -0.006,-0.0341 -10e-4,-0.0162 -0.0113,-0.0238 -0.0284,-0.0238 z m -2.86184,0.27078 c 0.0217,-9.6e-4 0.0451,0.0273 0.0667,0.0827 0.0698,0.17859 0.01,0.28629 -0.0729,0.12971 -0.0373,-0.071 -0.0473,-0.15793 -0.0222,-0.19275 0.009,-0.0126 0.0186,-0.0192 0.0284,-0.0196 z m -0.33796,0.31988 c -0.0162,7.3e-4 -0.0368,0.005 -0.063,0.0124 -0.0111,0.003 -0.0251,0.005 -0.0408,0.006 v 0.2403 c 0.11807,0.0295 0.15968,-0.0139 0.16019,-0.13436 6.9e-4,-0.0946 -0.008,-0.12675 -0.0563,-0.12454 z m 0.67799,0.22944 c -0.0331,7.9e-4 -0.064,0.0102 -0.0904,0.0295 -0.13279,0.0964 -0.1015,0.13625 0.14418,0.18345 0.17675,0.0337 0.19444,0.0511 0.16433,0.15968 -0.0292,0.1052 0.0112,0.25755 0.0796,0.36535 v -0.50436 c -0.0449,-0.13713 -0.1828,-0.23632 -0.29766,-0.23358 z m -0.78186,0.10749 v 0.33383 c 0.0373,0.007 0.0474,0.0201 0.0444,0.0388 -0.001,0.007 -0.0173,0.0131 -0.0444,0.0186 v 0.0935 c 0.19997,-0.17646 0.20578,-0.39014 0,-0.48472 z m 0.30799,0.005 c -0.0151,0.002 -0.035,0.0141 -0.0563,0.0351 -0.0425,0.0421 -0.0688,0.1054 -0.0574,0.14159 0.0115,0.0362 0.0838,0.0415 0.16123,0.0124 0.198,-0.0748 0.11545,0.13113 -0.0889,0.22169 l -0.14831,0.0656 0.20412,0.0124 c 0.16703,0.0101 0.18831,0.0245 0.11575,0.0786 -0.0677,0.0504 -0.0575,0.10971 0.0434,0.24857 0.17167,0.23635 0.20849,0.13684 0.0785,-0.21343 -0.089,-0.23948 -0.0854,-0.27967 0.0264,-0.29507 0.19471,-0.0267 0.15073,-0.15549 -0.0646,-0.18965 -0.10073,-0.0159 -0.1855,-0.0584 -0.1881,-0.094 -0.001,-0.0179 -0.0108,-0.0258 -0.0258,-0.0238 z m 0.51315,0.14727 c -0.0119,7.2e-4 -0.024,0.005 -0.0346,0.0124 -0.0282,0.0205 -0.0249,0.0729 0.007,0.11678 0.0319,0.044 0.0708,0.0488 0.0863,0.0109 0.0155,-0.0377 0.0123,-0.0904 -0.007,-0.11679 -0.012,-0.0165 -0.0318,-0.0244 -0.0517,-0.0233 z m -0.0584,0.38603 c -0.0618,0.002 -0.0803,0.0914 -0.0501,0.26251 0.0288,0.16364 0.0499,0.19256 0.1359,0.18707 0.0716,-0.005 0.0602,0.0242 -0.0382,0.0966 -0.0903,0.0664 -0.12012,0.13047 -0.0842,0.17983 0.0812,0.11173 0.22329,-0.0235 0.28939,-0.27544 0.0486,-0.18496 0.0338,-0.24081 -0.0961,-0.3607 -0.0671,-0.0619 -0.11953,-0.0913 -0.15658,-0.0899 z m -0.52813,0.0672 c -0.0556,0.002 -0.13442,0.0163 -0.23461,0.0418 v 0.38913 c 0.35108,-0.2975 0.42775,-0.43714 0.23461,-0.43098 z m -0.0496,0.11782 c 0.0112,3.4e-4 0.0214,0.002 0.03,0.006 0.0343,0.0141 0.008,0.0471 -0.0594,0.0734 -0.14218,0.0556 -0.18244,0.0314 -0.0765,-0.0455 0.0304,-0.0221 0.0723,-0.0346 0.10594,-0.0336 z m 2.13217,0.17311 v 0.11886 c 0.0636,-3.9e-4 0.0632,-0.0332 0.0517,-0.11886 z m 0.14573,0 c -0.002,0.0671 0.0293,0.19179 0.0971,0.42582 0.0536,0.18433 0.066,0.29428 0.0279,0.24391 -0.038,-0.0505 -0.0767,-0.14574 -0.0858,-0.21187 -0.0111,-0.082 -0.0668,-0.13173 -0.185,-0.16537 v 0.23616 c 0,0.10502 -0.0415,0.1837 -0.12402,0.23617 -0.0368,0.0234 -0.0789,0.0413 -0.1261,0.0543 -0.006,0.094 -0.009,0.18608 -0.009,0.25579 -2e-5,0.14791 -0.016,0.24599 -0.0362,0.21808 -0.0324,-0.0445 -0.0403,-0.18728 -0.0243,-0.45889 -0.0403,0.006 -0.0837,0.009 -0.13022,0.009 h -0.2527 c -0.0322,0.16354 -0.0471,0.32761 -0.0331,0.40515 0.009,0.0495 0.004,0.13106 -0.009,0.22479 h 0.5085 c 0.17248,0 0.33706,-0.0183 0.49454,-0.0558 0.15747,-0.0375 0.29653,-0.0901 0.41651,-0.15761 0.12748,-0.075 0.225,-0.16529 0.29249,-0.27027 0.075,-0.10499 0.11213,-0.22469 0.11213,-0.35967 v -0.53589 c -0.0573,-0.0322 -0.11402,-0.0641 -0.17001,-0.094 z m 0.92603,0 c 0.003,10e-4 0.005,0.003 0.008,0.004 v -0.004 z m -2.96312,0.0553 c -0.0674,0.003 -0.15006,0.0249 -0.24133,0.0723 -0.0516,0.0268 -0.11504,0.0658 -0.18448,0.11266 v 0.37414 c 0.18972,-0.1217 0.35152,-0.22216 0.42116,-0.25994 0.26957,-0.14639 0.20674,-0.30773 0.005,-0.2992 z m 0.65371,0.0971 c -0.0575,0.0687 -0.087,0.14278 -0.0816,0.21446 0.002,0.0233 0.0306,0.0205 0.0816,-0.006 z m -0.42685,0.28835 c -0.098,-0.002 -0.25992,0.0584 -0.48162,0.18862 -0.0576,0.0338 -0.11241,0.0656 -0.16485,0.0961 0.0138,0.0966 0.0492,0.18462 0.10594,0.26407 0.075,0.10498 0.1725,0.19527 0.29248,0.27027 0.10878,0.0612 0.23402,0.10973 0.37362,0.14624 0.0122,-0.0243 0.0246,-0.0551 0.0398,-0.0951 0.0388,-0.10208 0.0904,-0.18225 0.11523,-0.17828 0.0247,0.004 0.006,0.10589 -0.0418,0.22686 l -0.0264,0.0667 c 0.15102,0.0311 0.30474,0.047 0.46199,0.047 h 0.12454 l 0.0351,-0.35037 c 0.0111,-0.11072 0.0157,-0.20425 0.0145,-0.2806 -0.10909,-0.004 -0.19935,-0.0241 -0.27027,-0.0615 -0.002,0.004 -0.005,0.007 -0.007,0.0114 -0.17308,0.28435 -0.28424,0.33201 -0.12144,0.0522 0.0239,-0.041 0.0435,-0.0779 0.0599,-0.11214 -0.0545,-0.0507 -0.0827,-0.11823 -0.0827,-0.20361 v -0.0362 c -0.10294,0.0569 -0.24834,0.19821 -0.39378,0.41806 -0.11492,0.1737 -0.22913,0.31293 -0.25373,0.30903 -0.0246,-0.004 -0.003,-0.0623 0.0481,-0.12971 0.31312,-0.41256 0.3597,-0.64503 0.1726,-0.64906 z m 1.99574,0.32867 0.0765,0.10076 5.1e-4,-5.1e-4 c 0.0426,0.0551 0.0798,0.15139 0.0832,0.21342 0.008,0.14945 -0.0843,0.0213 -0.12971,-0.17932 z" /><path
         id="path1646"
         style="font-size:9.78619px;line-height:1.25;font-family:Dhurjati;-inkscape-font-specification:Dhurjati;letter-spacing:0px;word-spacing:0px;fill:#ffffff;stroke-width:0.188788"
         d="m 121.54971,57.676105 v 1.41283 c 0.0158,-0.0142 0.0371,-0.0312 0.0646,-0.0506 0.0848,-0.0603 0.12156,-0.0693 0.0816,-0.0207 -0.038,0.046 -0.10175,0.0921 -0.14624,0.10697 v 0.20877 c 0.0274,0.008 0.0585,0.0157 0.0941,0.0238 0.1523,0.0344 0.39286,0.12927 0.53433,0.21084 0.14781,0.0852 0.54448,0.18919 0.93225,0.24443 0.31058,0.0443 0.793,0.16009 1.20664,0.27647 v -0.52296 h -1.68723 v -1.04904 c -0.0705,0.0327 -0.1245,0.0538 -0.13695,0.0527 -0.0412,-0.004 0.0375,-0.0609 0.13695,-0.1142 v -0.14935 h 2.14819 v -0.0382 c -0.0449,1.7e-4 -0.0956,-10e-4 -0.14987,-0.005 -0.21343,-0.0126 -0.49094,-0.0251 -0.61701,-0.0279 -0.12608,-0.003 -0.20865,-0.0195 -0.18345,-0.0372 0.0252,-0.0177 0.2849,-0.0304 0.5767,-0.0284 0.14028,9.6e-4 0.2716,0.008 0.37363,0.0181 v -0.51159 z m 0.46405,1.16117 c 0.0105,-8e-4 0.0114,0.007 5.2e-4,0.0248 -0.0249,0.0397 -0.0822,0.0816 -0.12764,0.093 -0.0456,0.0109 -0.0254,-0.0212 0.045,-0.0724 0.0396,-0.0287 0.0687,-0.0444 0.0822,-0.0455 z m -0.46405,0.56896 v 0.95549 c 0.0613,0.0263 0.13071,0.0517 0.2005,0.0713 0.30704,0.0863 0.36642,0.10991 0.87954,0.40669 v -0.64389 h 1.68723 v -0.0305 c -0.53968,-0.16602 -1.36471,-0.3065 -2.05775,-0.34726 -0.17967,-0.0105 -0.25216,-0.0321 -0.16123,-0.0481 0.15748,-0.0278 0.15875,-0.0346 0.0284,-0.14366 -0.10848,-0.0907 -0.3717,-0.18282 -0.57671,-0.22014 z m 0.23564,0.37465 c 0.0211,-10e-4 0.0438,0.002 0.0625,0.01 v -5.2e-4 c 0.039,0.016 0.0249,0.0397 -0.0336,0.0553 -0.11341,0.0303 -0.15637,0.006 -0.0827,-0.048 0.0132,-0.01 0.0327,-0.0153 0.0537,-0.0165 z m -0.23564,0.69815 v 0.91157 c 0.11488,0.0782 0.22024,0.14861 0.26355,0.1757 0.0746,0.0466 0.0842,0.0714 0.0294,0.0755 -0.0448,0.004 -0.17054,-0.0607 -0.27957,-0.14211 -0.004,-0.003 -0.009,-0.007 -0.0134,-0.01 v 0.89917 h 3.22823 v -0.62994 h -2.14819 v -0.8108 c -0.0443,-0.0232 -0.0906,-0.0482 -0.13953,-0.0744 -0.37019,-0.19859 -0.65098,-0.32265 -0.94051,-0.39481 z m 0.55035,1.24282 c 0.005,-4.9e-4 0.0157,0.009 0.031,0.0269 0.0255,0.0317 0.091,0.0895 0.14469,0.12919 0.0928,0.0688 0.0914,0.0698 -0.0279,0.0227 -0.0687,-0.0269 -0.13427,-0.0851 -0.14521,-0.12919 -0.008,-0.0326 -0.009,-0.049 -0.003,-0.0496 z" /><text
         xml:space="preserve"
         style="font-size:9.78614px;line-height:1.25;font-family:'Le Griffe Std';-inkscape-font-specification:'Le Griffe Std';letter-spacing:0px;word-spacing:0px;fill:#0088aa;fill-opacity:1;stroke-width:0.188788"
         x="113.80745"
         y="62.389149"
         id="text1650"><tspan
           sodipodi:role="line"
           id="tspan1648"
           style="font-style:normal;font-variant:normal;font-weight:normal;font-stretch:normal;font-family:Dhurjati;-inkscape-font-specification:Dhurjati;text-align:end;text-anchor:end;fill:#0088aa;fill-opacity:1;stroke-width:0.188788"
           x="113.80745"
           y="62.389149">BYO</tspan></text><text
         xml:space="preserve"
         style="font-style:normal;font-variant:normal;font-weight:normal;font-stretch:normal;font-size:2.36309px;line-height:0.5;font-family:Roboto;-inkscape-font-specification:Roboto;letter-spacing:0px;word-spacing:0px;fill:#808080;stroke-width:0.188788"
         x="125.47885"
         y="55.216331"
         id="text2438"><tspan
           sodipodi:role="line"
           id="tspan2426"
           style="font-style:normal;font-variant:normal;font-weight:normal;font-stretch:normal;font-family:Dhurjati;-inkscape-font-specification:Dhurjati;fill:#666666;stroke-width:0.188788"
           x="125.47885"
           y="55.216331"
           dy="0"><tspan
   style="font-weight:bold;fill:#666666;stroke-width:0.188788"
   id="tspan2424">BUILD</tspan>ING</tspan><tspan
           sodipodi:role="line"
           style="font-style:normal;font-variant:normal;font-weight:normal;font-stretch:normal;font-family:Dhurjati;-inkscape-font-specification:Dhurjati;fill:#666666;stroke-width:0.188788"
           x="125.47885"
           y="57.000351"
           id="tspan2428">YOUR</tspan><tspan
           sodipodi:role="line"
           style="font-style:normal;font-variant:normal;font-weight:normal;font-stretch:normal;font-family:Dhurjati;-inkscape-font-specification:Dhurjati;fill:#666666;stroke-width:0.188788"
           x="125.47885"
           y="58.78437"
           id="tspan2430">OWN</tspan><tspan
           sodipodi:role="line"
           style="font-style:normal;font-variant:normal;font-weight:normal;font-stretch:normal;font-family:Dhurjati;-inkscape-font-specification:Dhurjati;fill:#666666;stroke-width:0.188788"
           x="125.47885"
           y="60.56839"
           id="tspan2432">INSTRUMENTATION FOR </tspan><tspan
           sodipodi:role="line"
           style="font-style:normal;font-variant:normal;font-weight:normal;font-stretch:normal;font-family:Dhurjati;-inkscape-font-specification:Dhurjati;fill:#666666;stroke-width:0.188788"
           x="125.47885"
           y="62.352413"
           id="tspan2434">COLD </tspan><tspan
           sodipodi:role="line"
           style="font-style:normal;font-variant:normal;font-weight:normal;font-stretch:normal;font-family:Dhurjati;-inkscape-font-specification:Dhurjati;fill:#666666;stroke-width:0.188788"
           x="125.47885"
           y="64.136429"
           id="tspan2436">ENVIRONMENTS</tspan></text></g></g></svg>
