<?xml version="1.0" encoding="UTF-8" standalone="no"?>
<!-- Created with Inkscape (http://www.inkscape.org/) -->

<svg
   width="400"
   height="400"
   viewBox="0 0 105.83333 105.83333"
   version="1.1"
   id="svg5"
   inkscape:version="1.2.2 (1:1.2.2+202305151921+b0a8486541)"
   sodipodi:docname="cryoskills_logo_socialmedia.svg"
   inkscape:export-filename="cryoskills_logo_socialmedia.png"
   inkscape:export-xdpi="96"
   inkscape:export-ydpi="96"
   xmlns:inkscape="http://www.inkscape.org/namespaces/inkscape"
   xmlns:sodipodi="http://sodipodi.sourceforge.net/DTD/sodipodi-0.dtd"
   xmlns="http://www.w3.org/2000/svg"
   xmlns:svg="http://www.w3.org/2000/svg">
  <sodipodi:namedview
     id="namedview7"
     pagecolor="#ffffff"
     bordercolor="#666666"
     borderopacity="1.0"
     inkscape:showpageshadow="2"
     inkscape:pageopacity="0.0"
     inkscape:pagecheckerboard="0"
     inkscape:deskcolor="#d1d1d1"
     inkscape:document-units="px"
     showgrid="false"
     inkscape:zoom="1.1893044"
     inkscape:cx="205.58236"
     inkscape:cy="274.10981"
     inkscape:window-width="1850"
     inkscape:window-height="1024"
     inkscape:window-x="0"
     inkscape:window-y="0"
     inkscape:window-maximized="1"
     inkscape:current-layer="layer1" />
  <defs
     id="defs2" />
  <g
     inkscape:label="Layer 1"
     inkscape:groupmode="layer"
     id="layer1">
    <rect
       style="fill:#0088aa;stroke:none;stroke-width:2.87471;stroke-linecap:round;stroke-linejoin:bevel;stroke-miterlimit:4.1"
       id="rect2465"
       width="105.83333"
       height="105.83333"
       x="0"
       y="0" />
    <path
       id="path1143"
       style="font-size:9.78614px;line-height:1.25;font-family:Dhurjati;-inkscape-font-specification:Dhurjati;text-align:end;letter-spacing:0px;word-spacing:0px;text-anchor:end;fill:#ffffff;stroke-width:3.45301"
       d="m 46.122232,9.8145834 c -3.154736,0 -6.23558,0.3461076 -9.253138,1.0319286 -2.880383,0.68569 -5.419642,1.710519 -7.614125,3.082109 -2.194497,1.234477 -3.976533,2.814201 -5.348135,4.734421 -1.130333,1.583768 -1.790626,3.357363 -1.989625,5.314439 0.197589,0.08091 0.416974,0.168225 0.451819,0.168225 0.226824,-0.0032 2.089868,0.858874 4.140961,1.908604 2.05091,1.05007 3.854339,1.794658 4.006159,1.659125 0.1463,-0.135337 0.46461,-0.03523 0.695086,0.222647 0.561448,0.628268 8.442683,4.079832 10.386043,4.619783 v -5.462813 c 0,-1.92022 0.757209,-3.356163 2.266015,-4.316286 1.508961,-0.960019 3.564988,-1.443303 6.171016,-1.443303 h 2.967432 c 0.343887,-1.525237 0.382257,-2.869041 0.09135,-2.994421 -0.298081,-0.127898 -0.404184,-0.30291 -0.235959,-0.397789 0.164571,-0.09135 0.460955,-0.35407 0.660241,-0.573192 l 0.356681,-0.404576 -6.420497,-7.1488626 z m 2.873073,0 c 4.832146,5.2466526 8.018349,8.6045776 8.126618,8.4707156 0.09135,-0.117457 0.369468,-0.343889 0.627354,-0.519292 l 0.459127,-0.330448 0.1463,0.842953 c 0.182972,1.043675 0.841386,1.221557 1.194411,0.323792 0.164571,-0.422456 0.327446,-0.436289 0.444511,-0.04046 0.109627,0.345325 0.446338,0.619131 0.748073,0.606994 0.30539,-0.01567 0.779134,0.382389 1.051636,0.890197 l 0.492017,0.923998 0.943835,-0.411362 c 1.920676,-0.836035 4.291671,-3.078845 4.147721,-3.925126 -0.07308,-0.458737 0.109627,-0.902595 0.4188,-0.984555 0.309174,-0.0783 0.40053,-0.476484 0.208553,-0.876623 l -0.351197,-0.728366 1.282112,-0.741808 1.287595,-0.741809 -0.634662,-1.564559 C 69.381384,10.954012 69.178444,10.897893 68.968064,10.847908 66.087682,10.162218 63.06519,9.8159799 59.910636,9.8159799 Z m 22.269352,1.6724896 c 0.513941,0.764125 1.066383,1.465973 1.563828,1.922086 l 1.598583,1.463415 1.295033,3.547448 c 1.47238,4.024939 1.38276,3.868604 2.414336,4.29607 h 0.0069 c 0.429894,0.17188 1.300515,-0.109626 1.93549,-0.627222 0.64197,-0.514855 1.519937,-0.787748 1.962569,-0.600338 l 0.802888,0.344019 -0.1463,-1.908604 C 82.469207,19.491703 82.21315,19.070293 81.922378,18.662846 80.687769,16.742626 78.905927,15.162864 76.574254,13.928412 74.984821,12.935244 73.215208,12.120586 71.266549,11.48702 Z m -0.586765,7.600669 c -0.861486,0.05482 -5.355444,3.465907 -6.292455,4.774891 l -0.640143,0.890198 c 0.164571,0.355243 0.290772,0.735934 0.371296,1.146383 l 0.552441,0.492408 c 0.707877,0.62409 2.011028,1.791917 2.900129,2.58978 v -0.0069 c 3.098031,2.783936 9.596453,7.708404 9.860015,7.472588 0.146299,-0.130508 -0.09135,-0.489797 -0.552442,-0.802625 -0.451819,-0.313089 -0.925434,-1.119239 -1.044327,-1.787167 l -0.21586,-1.207201 1.066383,1.578092 c 0.475571,0.706049 1.174182,1.708693 1.759538,2.535827 h 0.63466 c -0.378602,-0.86062 -0.819461,-1.689778 -1.038844,-1.9355 -0.248749,-0.279157 -0.449993,-0.887586 -0.444511,-1.35551 l 0.0069,-0.856526 1.091963,1.767043 c 1.413861,2.277669 1.872219,2.784785 1.56384,1.733201 -0.396876,-1.365024 0.270675,-0.893198 1.159566,0.647452 h 1.234608 C 82.334256,35.908563 81.98306,35.069199 81.651959,34.504869 81.035568,33.45219 80.474123,32.31789 80.404562,31.982537 80.16312,30.841242 79.018146,29.309701 78.516068,29.453469 l -0.499325,0.140819 -0.32379,-1.072387 c -0.182843,-0.588984 -0.127899,-1.157999 0.109627,-1.267887 0.235958,-0.113542 0.193936,-0.769345 -0.09135,-1.456838 l -0.519463,-1.247528 -1.327882,-0.357461 c -1.861427,-0.504676 -1.916109,-0.243267 -0.431592,1.915364 0.71884,1.044588 1.743081,2.770377 2.279536,3.830691 0.535867,1.060902 1.412021,2.475703 1.949035,3.149543 0.539521,0.670029 0.802887,1.384953 0.587157,1.578105 -0.567058,0.507547 -0.916298,0.0018 -4.053169,-5.887696 -1.554678,-2.920879 -3.201001,-5.730434 -3.65534,-6.238386 -0.455473,-0.508721 -0.973068,-1.49488 -1.146775,-2.19862 -0.183004,-0.70432 -0.490221,-1.267072 -0.707908,-1.254282 z m -14.850742,0.03263 c -0.309173,0.04177 -0.369468,0.659588 -0.53952,1.739961 -0.01827,0.162745 -0.05482,0.31557 -0.07308,0.472049 h 0.795578 c 0.888894,0 1.710155,0.06394 2.475063,0.188976 C 56.972557,19.90283 56.187537,19.073371 55.834708,19.12042 Z M 21.84971,25.30565 v 55.282206 c 0,0.759427 0.07308,1.491043 0.203071,2.198607 2.952448,-1.869857 6.070969,-3.771936 8.383066,-5.071628 2.411779,-1.356607 5.947507,-3.343934 7.857026,-4.417456 0.845042,-0.474789 2.038291,-1.091964 3.304717,-1.719668 V 40.830898 l -1.538223,-0.23609 c -1.574803,-0.2464 -4.570777,-0.440858 -9.752098,-0.634009 -1.170526,-0.04438 -2.289414,-0.256971 -2.481834,-0.472048 -0.409667,-0.45691 2.174736,-0.600078 3.513594,-0.195502 0.504805,0.151781 0.782788,0.118762 0.627353,-0.06787 -0.16457,-0.185584 0.19028,-0.245487 0.76269,-0.135338 2.018349,0.3927 1.289422,-2.033345 -1.935503,-6.460941 -0.892545,-1.225863 -1.616879,-2.598 -1.611384,-3.048372 l 0.0069,-0.816068 -2.475063,-1.153171 C 25.373237,26.98793 23.210938,25.961326 21.851224,25.304974 Z m 42.380618,2.373958 v 2.124426 c 0.698741,0.828858 1.71565,1.752777 2.097555,1.733202 0.296254,-0.01305 0.605428,0.207378 0.687648,0.485621 0.109626,0.373646 1.74308,1.903593 5.037931,4.741169 h 1.390068 c -0.384084,-0.355244 -0.804713,-0.76778 -1.282112,-1.261102 -1.368118,-1.409632 -2.841047,-2.750735 -3.27765,-2.97419 -1.421169,-0.725889 -3.274346,-2.315125 -2.731484,-2.340236 0.281637,-0.01436 0.43159,-0.268717 0.343889,-0.566405 -0.09135,-0.3003 -0.576193,-0.517596 -1.079173,-0.485622 l -0.918125,0.06786 0.09135,-0.694694 c 0.03655,-0.254623 -0.109628,-0.548135 -0.35668,-0.829512 z m -30.517433,2.542574 0.09135,2.346968 c 0.07308,2.167873 0.932873,5.235849 1.726624,6.238386 0.182972,0.235437 1.671745,0.471135 3.297956,0.526079 1.177838,0.04046 2.171801,-0.05352 2.771734,-0.242745 V 33.715744 C 39.67768,32.876445 37.534226,31.944121 36.434603,31.449677 Z m 30.517433,0.890066 v 5.651634 h 4.680535 c -0.204898,-0.274199 -0.239614,-0.4466 -0.127899,-0.546307 0.09135,-0.07439 0.495672,0.155435 1.059074,0.546307 h 0.607254 c -1.005957,-0.997343 -1.998967,-2.012046 -2.46171,-2.562803 -0.737111,-0.873884 -1.161393,-1.157739 -1.219991,-0.789054 -0.05482,0.327577 -0.164571,0.308783 -0.276156,-0.06004 -0.07307,-0.273414 -1.035192,-1.203155 -2.259241,-2.239077 z m 0,37.95609 v 2.495356 l 0.479226,-0.357332 -0.479226,0.701483 v 1.295033 l 0.188324,0.114847 c 0.448165,0.264279 1.433972,1.064164 2.191937,1.780576 0.759037,0.715577 1.77965,1.626941 2.272763,2.016509 l 0.896199,0.708268 1.307758,-2.07722 c 0.720668,-1.144427 1.916292,-3.474913 2.65724,-5.179547 0.20307,-0.467349 0.422456,-0.956103 0.66024,-1.497256 z m 15.140835,2.616755 c -0.05482,0.006 -0.09135,0.02218 -0.127897,0.05352 -0.579849,0.518901 -2.031153,8.844034 -1.558348,8.936069 0.277983,0.05352 0.320136,0.168225 0.09135,0.256319 -0.757209,0.297166 -1.241916,2.016937 -0.640143,2.272799 0.334752,0.142647 0.35668,0.259582 0.03655,0.276549 -0.307216,0.01436 -0.837731,1.335567 -1.174312,2.933732 -0.245094,1.171703 -0.965762,3.922908 -1.786972,6.858848 0.826771,-0.35681 1.613213,-0.746247 2.360386,-1.166744 2.331661,-1.371602 4.113698,-3.016528 5.348122,-4.936735 1.371785,-1.920245 2.063715,-4.113489 2.063715,-6.582353 v -6.312565 l -0.680341,0.654236 0.43903,-0.721578 0.235959,-0.384478 -1.219991,0.160916 -1.551025,0.202289 -0.356679,1.139727 c -0.481053,1.551222 -0.996822,1.328079 -0.782788,-0.337232 0.109627,-0.798189 -0.109627,-1.534751 -0.504805,-1.787155 l -0.687779,-0.424934 0.715185,-0.195502 c 0.393221,-0.104404 0.532213,-0.393221 0.316352,-0.633878 -0.164571,-0.183625 -0.376778,-0.280722 -0.532213,-0.262974 z m -4.363556,0.506111 c -0.212206,0.01958 -0.382258,0.131682 -0.492016,0.34402 -2.736626,5.259495 -6.597739,12.14888 -7.560186,13.488404 -0.382258,0.53404 -3.045905,4.975601 -5.968716,9.961185 2.762952,-0.06913 5.43007,-0.391389 7.978478,-0.998128 1.337032,-0.318308 2.587548,-0.703311 3.776608,-1.139855 0.570713,-2.213187 0.987687,-4.045158 0.903508,-4.228614 -0.109627,-0.234262 -0.01827,-1.075256 0.164572,-1.874893 l 0.356679,-1.456655 0.270674,0.728367 c 0.146299,0.399224 0.146299,0.02871 -0.0066,-0.842953 -0.146301,-0.863835 -0.127898,-1.417881 0.05482,-1.22743 0.182972,0.190803 0.329272,-0.113542 0.343889,-0.66755 l 0.01827,-1.011699 0.256056,0.816067 c 0.214034,0.692477 0.722494,-2.260519 0.57254,-3.345122 -0.01827,-0.198764 0.192109,-0.921257 0.486535,-1.605174 0.294426,-0.683993 0.27981,-1.441841 -0.01827,-1.686009 -0.345718,-0.267802 -0.296254,-0.517464 0.109626,-0.627223 0.369469,-0.09918 0.632834,-0.639619 0.587157,-1.207199 -0.03655,-0.567973 0.01567,-0.922955 0.127898,-0.789054 0.127898,0.13351 0.321963,-0.234132 0.459127,-0.802626 0.127898,-0.573061 0.0053,-1.039629 -0.283463,-1.038584 -0.287119,0.0023 -0.918126,-0.250185 -1.402873,-0.559619 -0.276154,-0.175665 -0.530385,-0.24901 -0.742591,-0.229435 z m -33.4108,1.072386 c -0.05482,0.02871 -0.109627,0.05612 -0.1463,0.08743 -0.55975,0.322225 -1.952142,1.07839 -3.088895,1.68601 -1.13764,0.607646 -2.104681,1.34691 -2.151324,1.645591 -0.05482,0.297559 -0.164571,0.285552 -0.256058,-0.01958 -0.1463,-0.484838 -7.311606,3.555148 -13.589612,7.411875 0.342062,1.102534 0.861484,2.131383 1.551024,3.095603 1.371786,1.920208 3.153823,3.565172 5.348306,4.936736 2.194678,1.234478 4.733939,2.194014 7.614321,2.879781 3.017375,0.685691 6.098402,1.031928 9.252956,1.031928 H 59.76803 c 2.36661,-4.078499 4.568049,-7.929966 6.11029,-10.743515 l 2.765157,-5.044653 -0.923606,-1.025142 c -0.651223,-0.717977 -1.967229,-1.931469 -3.480212,-3.264077 v 2.798843 c 0,1.920205 -0.757208,3.356148 -2.266001,4.316285 -1.508961,0.960018 -3.492934,1.443304 -5.961773,1.443304 h -5.968364 c -2.606013,0 -4.662237,-0.483272 -6.171015,-1.443304 -1.508964,-0.960018 -2.266002,-2.396067 -2.266002,-4.316285 z"
       sodipodi:nodetypes="ccccccccccscsccccccccccccccccccccccccccccccccccccccccccccccccccccccccccccccccccccccccccccccccccccsccccsccccccccccccccccccccccccccccccccccccccccccccccccccccccccccccccccccccccccccsccccccccccccccccccsccccccccccccccccccccccccccccccscccccscssccc" />
  </g>
</svg>
