<?xml version="1.0" encoding="UTF-8" standalone="no"?>
<!-- Created with Inkscape (http://www.inkscape.org/) -->

<svg
   width="56.873001mm"
   height="14.096329mm"
   viewBox="0 0 56.873002 14.096329"
   version="1.1"
   id="svg5"
   xml:space="preserve"
   inkscape:version="1.2.2 (1:1.2.2+202305151921+b0a8486541)"
   sodipodi:docname="cryoskills_logo_only.svg"
   inkscape:export-filename="cryoskills_logo_only.png"
   inkscape:export-xdpi="90"
   inkscape:export-ydpi="90"
   xmlns:inkscape="http://www.inkscape.org/namespaces/inkscape"
   xmlns:sodipodi="http://sodipodi.sourceforge.net/DTD/sodipodi-0.dtd"
   xmlns="http://www.w3.org/2000/svg"
   xmlns:svg="http://www.w3.org/2000/svg"><sodipodi:namedview
     id="namedview7"
     pagecolor="#ffffff"
     bordercolor="#666666"
     borderopacity="1.0"
     inkscape:showpageshadow="2"
     inkscape:pageopacity="0.0"
     inkscape:pagecheckerboard="0"
     inkscape:deskcolor="#d1d1d1"
     inkscape:document-units="mm"
     showgrid="false"
     showguides="false"
     inkscape:zoom="3.3638608"
     inkscape:cx="158.44889"
     inkscape:cy="33.592353"
     inkscape:window-width="1850"
     inkscape:window-height="1024"
     inkscape:window-x="0"
     inkscape:window-y="0"
     inkscape:window-maximized="1"
     inkscape:current-layer="g1634"><sodipodi:guide
       position="-98.327424,106.91803"
       orientation="-1,0"
       id="guide1499"
       inkscape:locked="false"
       inkscape:label=""
       inkscape:color="rgb(0,134,229)" /><sodipodi:guide
       position="-123.72742,81.518038"
       orientation="0,1"
       id="guide1501"
       inkscape:locked="false"
       inkscape:label=""
       inkscape:color="rgb(0,134,229)" /><sodipodi:guide
       position="60.872582,106.91803"
       orientation="-1,0"
       id="guide1503"
       inkscape:locked="false"
       inkscape:label=""
       inkscape:color="rgb(0,134,229)" /><sodipodi:guide
       position="-123.72742,56.118037"
       orientation="0,1"
       id="guide1505"
       inkscape:locked="false"
       inkscape:label=""
       inkscape:color="rgb(0,134,229)" /></sodipodi:namedview><defs
     id="defs2" /><g
     inkscape:label="Layer 1"
     inkscape:groupmode="layer"
     id="layer1"
     transform="translate(-123.72742,-92.821706)"><g
       id="g1634"
       transform="matrix(1.4014786,0,0,1.4014786,-17.689513,17.032203)"
       style="stroke-width:0.713532"><rect
         style="fill:#0088aa;stroke:none;stroke-width:0.189085;stroke-linecap:round;stroke-linejoin:bevel;stroke-miterlimit:4.1"
         id="rect1606"
         width="10.281606"
         height="4.7131195"
         x="115.29472"
         y="34.784203" /><path
         id="path1608"
         style="font-size:9.78619px;line-height:1.25;font-family:Dhurjati;-inkscape-font-specification:Dhurjati;letter-spacing:0px;word-spacing:0px;fill:#ffffff;stroke-width:0.188788"
         d="m 116.27404,34.784239 v 1.02009 c 0.0115,0.005 0.0228,0.01 0.0346,0.0155 v 5.2e-4 c 0.18765,0.0871 0.44637,0.19045 0.57516,0.22996 0.24379,0.0748 0.30986,0.11969 0.24443,0.1664 -0.0213,0.0152 -0.13532,-0.0164 -0.25373,-0.0698 -0.26009,-0.11726 -0.45612,-0.2076 -0.60048,-0.27699 v 3.62717 h 1.07952 v -0.54519 c -0.0941,0.09 -0.17327,0.17241 -0.22479,0.23771 -0.19004,0.24087 -0.29208,0.24914 -0.15141,0.0124 0.0363,-0.0611 0.17543,-0.19471 0.3762,-0.36432 v -0.84905 c -0.18959,0.0344 -0.23138,0.0303 -0.16898,-0.015 0.0235,-0.0171 0.0949,-0.0289 0.16898,-0.0295 v -0.34778 c -0.19568,0.0363 -0.91695,0.0628 -0.94206,0.0284 -0.0246,-0.0338 0.0148,-0.0387 0.82217,-0.10955 v -5.2e-4 c 0.0445,-0.004 0.0791,-0.007 0.11989,-0.0103 v -0.46147 c -0.0364,-0.008 -0.0763,-0.0148 -0.11834,-0.0207 -0.27632,-0.0388 -0.2344,-0.0563 0.11834,-0.0532 v -0.20154 c -0.0958,-0.0241 -0.20497,-0.048 -0.32453,-0.0703 -0.24724,-0.0461 -0.43549,-0.0943 -0.41806,-0.10697 0.0175,-0.0127 0.22592,0.0121 0.46302,0.0548 l 0.002,5.1e-4 c 0.0971,0.0175 0.19364,0.0284 0.2775,0.0331 v -0.36174 c -0.15014,-0.0816 -0.1689,-0.12188 0,-0.0687 v -1.46399 z m 0.26562,0.38395 c 0.0269,0.001 0.0918,0.0376 0.18965,0.10749 0.16126,0.11533 0.16351,0.12252 0.0279,0.0822 -0.0815,-0.0242 -0.17013,-0.0743 -0.19689,-0.11111 -0.0389,-0.0535 -0.0444,-0.0797 -0.0207,-0.0786 z m -0.11317,1.32964 c 0.0186,-0.002 0.0492,0.004 0.0775,0.016 0.0378,0.0156 0.0444,0.0459 0.0145,0.0677 -0.0298,0.0217 -0.0711,0.0162 -0.0915,-0.0119 -0.0205,-0.0282 -0.0271,-0.0585 -0.0145,-0.0677 0.003,-0.002 0.008,-0.004 0.014,-0.004 z m 0.10283,0.4315 c 0.0354,-5.8e-4 0.0868,10e-4 0.15451,0.006 0.10804,0.007 0.19379,0.0318 0.19017,0.0548 -0.004,0.0229 -0.10257,0.0229 -0.21962,5.2e-4 -0.19097,-0.0364 -0.23116,-0.0592 -0.12506,-0.061 z" /><path
         id="path1610"
         style="font-size:9.78619px;line-height:1.25;font-family:Dhurjati;-inkscape-font-specification:Dhurjati;letter-spacing:0px;word-spacing:0px;fill:#ffffff;stroke-width:0.188788"
         d="m 119.54257,34.784239 c -6e-5,0.0426 -0.004,0.0736 -0.0155,0.0817 -0.005,0.004 -0.0209,-0.0278 -0.0413,-0.0806 -0.0501,8.2e-4 -0.0999,0.003 -0.14934,0.007 0.006,0.021 -10e-4,0.0296 -0.0227,0.0212 -0.18924,-0.0737 -0.41924,0.27059 -0.35037,0.52452 0.0374,0.13789 0.0269,0.16347 -0.0553,0.13074 -0.0565,-0.0224 -0.0836,-0.0142 -0.0605,0.0186 0.0229,0.0324 0.0171,0.0974 -0.0134,0.14418 -0.0381,0.0584 -0.079,0.0533 -0.13126,-0.0186 -0.0414,-0.0571 -0.0451,-0.10625 -0.008,-0.10904 0.0367,-0.002 0.0904,-0.12755 0.11937,-0.2775 0.0355,-0.1835 0.10068,-0.30263 0.21188,-0.38757 -0.003,5.7e-4 -0.005,9.6e-4 -0.008,0.002 -0.15748,0.0375 -0.29654,0.0935 -0.41652,0.16846 -0.0819,0.0461 -0.15299,0.10129 -0.21394,0.16485 0.0362,0.0354 0.0783,0.0727 0.11266,0.0982 0.0924,0.0686 0.0909,0.0702 -0.0274,0.0238 -0.042,-0.0164 -0.0862,-0.049 -0.11937,-0.0847 -0.0155,0.0182 -0.0305,0.0373 -0.0444,0.0568 -0.075,0.10499 -0.11214,0.22469 -0.11214,0.35967 v 1.01906 c 0.0611,-0.0318 0.10612,-0.0817 0.12247,-0.14573 0.0162,-0.0638 0.0373,-0.11026 0.0465,-0.10335 0.0186,0.0136 0.12652,-0.12781 0.25941,-0.33952 0.0474,-0.0756 0.10651,-0.13412 0.13126,-0.13022 0.0247,0.004 9.9e-4,0.0744 -0.0527,0.15658 -0.0537,0.0821 -0.0791,0.17446 -0.0568,0.20515 0.0237,0.0326 -0.0118,0.0733 -0.0853,0.0977 -0.0751,0.025 -0.10919,0.0654 -0.0842,0.0997 0.023,0.0317 0.013,0.0593 -0.0217,0.062 -0.0729,0.006 -0.0245,0.31841 0.0775,0.50333 0.0751,0.136 0.19719,0.16262 0.1881,0.0408 -0.003,-0.0414 0.0496,-0.11554 0.11679,-0.16433 0.0671,-0.0487 0.1226,-0.15074 0.12351,-0.22686 9.2e-4,-0.0762 0.0543,-0.24472 0.11834,-0.37465 0.1193,-0.24166 -0.0168,-0.51045 -0.25477,-0.50178 -0.051,0.002 -0.0491,-0.0222 0.005,-0.0625 0.0648,-0.048 0.11883,-0.0254 0.19844,0.0842 0.15354,0.2114 0.26914,0.17863 0.14728,-0.0419 -0.1,-0.18083 -0.0995,-0.18066 0.047,0.004 0.0161,0.0203 0.0343,0.037 0.0537,0.0512 v -0.13178 c 0,-0.10501 0.0415,-0.18369 0.12402,-0.23616 0.0687,-0.0437 0.15839,-0.0692 0.26872,-0.0765 -0.0782,-0.22693 -0.1231,-0.40521 -0.0997,-0.40152 0.0238,0.004 0.10473,0.18199 0.1819,0.39945 h 0.31265 c 0.13498,0 0.24358,0.0261 0.32608,0.0786 0.0825,0.0525 0.12402,0.13118 0.12402,0.23616 v 0.52865 h 0.17415 c -0.007,-0.037 0.002,-0.0483 0.0222,-0.0238 0.003,0.004 0.006,0.0123 0.008,0.0238 h 0.20671 c -0.006,-0.0207 -10e-4,-0.0354 0.016,-0.0367 0.0265,-0.002 0.0991,-0.13935 0.16123,-0.3054 0.0944,-0.25247 0.0934,-0.29713 -0.005,-0.27079 -0.0648,0.0174 -0.10787,0.0619 -0.0961,0.0992 0.0118,0.0371 -0.008,0.0701 -0.0444,0.0729 -0.0361,0.002 -0.0955,0.0832 -0.13178,0.17829 -0.0633,0.16698 -0.21462,0.0224 -0.16381,-0.15658 0.008,-0.0271 0.0121,-0.16401 0.009,-0.30438 -0.003,-0.1403 0.0178,-0.25192 0.0455,-0.24753 0.0278,0.005 0.0493,0.11692 0.0481,0.2496 -0.002,0.26114 0.0804,0.33226 0.15916,0.13746 0.0366,-0.0905 0.0847,-0.12127 0.18965,-0.12092 0.0774,-1.3e-4 0.16964,-0.0403 0.20464,-0.0899 0.0461,-0.0656 0.0516,-0.0472 0.0207,0.0662 -0.0235,0.086 -0.0692,0.17696 -0.1018,0.20205 -0.21023,0.16135 0.10567,0.39126 0.3302,0.2403 0.01,-0.007 0.0187,-0.0121 0.0274,-0.0176 v -0.32608 c 0,-0.1288 -0.034,-0.24371 -0.10231,-0.3452 -0.0616,0.0937 -0.0993,0.092 -0.0574,-0.046 0.002,-0.007 0.005,-0.0152 0.008,-0.0227 -0.0643,-0.0808 -0.1484,-0.14915 -0.25322,-0.20464 -0.11998,-0.075 -0.25904,-0.131 -0.41651,-0.16846 -0.15748,-0.0375 -0.32206,-0.0563 -0.49454,-0.0563 z m -0.18345,0.13642 c 0.0105,10e-4 0.0318,0.0252 0.0641,0.0698 h 5.2e-4 c 0.0404,0.0556 0.0714,0.17078 0.0692,0.2558 -0.003,0.14048 -0.0106,0.13445 -0.076,-0.0667 -0.0587,-0.18008 -0.0779,-0.26117 -0.0579,-0.2589 z m 1.84847,1.20768 c -0.0377,0.003 -0.085,0.0422 -0.12712,0.10594 -0.006,0.009 -0.0108,0.016 -0.016,0.0233 h 0.15451 c 0.0111,-0.0336 0.0212,-0.0564 0.0289,-0.062 0.0275,-0.02 0.0204,-0.0487 -0.016,-0.0636 -0.008,-0.003 -0.0156,-0.004 -0.0243,-0.004 z m -1.93063,0.0362 c -0.036,0.05 -0.0675,0.10743 -0.0915,0.17053 l -5.2e-4,-5.2e-4 c -0.0364,0.0958 -0.0407,0.20863 -0.0103,0.25063 0.0322,0.0443 0.0168,0.0864 -0.0362,0.10077 -0.11452,0.0309 -9.8e-4,0.29439 0.13849,0.33228 v -0.21446 c -0.0273,-0.0134 -0.0445,-0.0312 -0.0419,-0.0481 0.002,-0.0149 0.0187,-0.0185 0.0419,-0.0134 z m 2.22415,0.0351 c -0.0272,9e-5 -0.0722,0.0203 -0.12557,0.0579 h 0.16019 c -0.003,-0.009 -0.005,-0.0207 -0.006,-0.0341 -0.001,-0.0162 -0.0113,-0.0238 -0.0284,-0.0238 z m -2.86184,0.27078 c 0.0217,-9.6e-4 0.0451,0.0273 0.0667,0.0827 0.0698,0.17859 0.01,0.28629 -0.0729,0.12971 -0.0373,-0.071 -0.0473,-0.15793 -0.0222,-0.19275 0.009,-0.0126 0.0186,-0.0192 0.0284,-0.0196 z m -0.33796,0.31988 c -0.0162,7.3e-4 -0.0368,0.005 -0.063,0.0124 -0.0111,0.003 -0.0251,0.005 -0.0408,0.006 v 0.2403 c 0.11807,0.0295 0.15968,-0.0139 0.16019,-0.13436 6.9e-4,-0.0946 -0.008,-0.12675 -0.0563,-0.12454 z m 0.67799,0.22944 c -0.0331,7.9e-4 -0.064,0.0102 -0.0904,0.0295 -0.13279,0.0964 -0.1015,0.13625 0.14418,0.18345 0.17675,0.0337 0.19444,0.0511 0.16433,0.15968 -0.0292,0.1052 0.0112,0.25755 0.0796,0.36535 v -0.50436 c -0.0449,-0.13713 -0.1828,-0.23632 -0.29766,-0.23358 z m -0.78186,0.10749 v 0.33383 c 0.0373,0.007 0.0474,0.0201 0.0444,0.0388 -10e-4,0.007 -0.0173,0.0131 -0.0444,0.0186 v 0.0935 c 0.19997,-0.17646 0.20578,-0.39014 0,-0.48472 z m 0.30799,0.005 c -0.0151,0.002 -0.035,0.0141 -0.0563,0.0351 -0.0425,0.0421 -0.0688,0.1054 -0.0574,0.14159 0.0115,0.0362 0.0838,0.0415 0.16123,0.0124 0.198,-0.0748 0.11545,0.13113 -0.0889,0.22169 l -0.14831,0.0656 0.20412,0.0124 c 0.16703,0.0101 0.18831,0.0245 0.11575,0.0786 -0.0677,0.0504 -0.0575,0.10971 0.0434,0.24857 0.17167,0.23635 0.20849,0.13684 0.0785,-0.21343 -0.089,-0.23948 -0.0854,-0.27967 0.0264,-0.29507 0.19471,-0.0267 0.15073,-0.15549 -0.0646,-0.18965 -0.10073,-0.0159 -0.1855,-0.0584 -0.1881,-0.094 -0.001,-0.0179 -0.0108,-0.0258 -0.0258,-0.0238 z m 0.51315,0.14727 c -0.0119,7.2e-4 -0.024,0.005 -0.0346,0.0124 -0.0282,0.0205 -0.0249,0.0729 0.007,0.11678 0.0319,0.044 0.0708,0.0488 0.0863,0.0109 0.0155,-0.0377 0.0123,-0.0904 -0.007,-0.11679 -0.012,-0.0165 -0.0318,-0.0244 -0.0517,-0.0233 z m -0.0584,0.38603 c -0.0618,0.002 -0.0803,0.0914 -0.0501,0.26251 0.0288,0.16364 0.0499,0.19256 0.1359,0.18707 0.0716,-0.005 0.0602,0.0242 -0.0382,0.0966 -0.0903,0.0664 -0.12012,0.13047 -0.0842,0.17983 0.0812,0.11173 0.22329,-0.0235 0.28939,-0.27544 0.0486,-0.18496 0.0338,-0.24081 -0.0961,-0.3607 -0.0671,-0.0619 -0.11953,-0.0913 -0.15658,-0.0899 z m -0.52813,0.0672 c -0.0556,0.002 -0.13442,0.0163 -0.23461,0.0418 v 0.38913 c 0.35108,-0.2975 0.42775,-0.43714 0.23461,-0.43098 z m -0.0496,0.11782 c 0.0112,3.4e-4 0.0214,0.002 0.03,0.006 0.0343,0.0141 0.008,0.0471 -0.0594,0.0734 -0.14218,0.0556 -0.18244,0.0314 -0.0765,-0.0455 0.0304,-0.0221 0.0723,-0.0346 0.10594,-0.0336 z m 2.13217,0.17311 v 0.11886 c 0.0636,-3.9e-4 0.0632,-0.0332 0.0517,-0.11886 z m 0.14573,0 c -0.002,0.0671 0.0293,0.19179 0.0971,0.42582 0.0536,0.18433 0.066,0.29428 0.0279,0.24391 -0.038,-0.0505 -0.0767,-0.14574 -0.0858,-0.21187 -0.0111,-0.082 -0.0668,-0.13173 -0.185,-0.16537 v 0.23616 c 0,0.10502 -0.0415,0.1837 -0.12402,0.23617 -0.0368,0.0234 -0.0789,0.0413 -0.1261,0.0543 -0.006,0.094 -0.009,0.18608 -0.009,0.25579 -2e-5,0.14791 -0.016,0.24599 -0.0362,0.21808 -0.0324,-0.0445 -0.0403,-0.18728 -0.0243,-0.45889 -0.0403,0.006 -0.0837,0.009 -0.13022,0.009 h -0.2527 c -0.0322,0.16354 -0.0471,0.32761 -0.0331,0.40515 0.009,0.0495 0.004,0.13106 -0.009,0.22479 h 0.5085 c 0.17248,0 0.33706,-0.0183 0.49454,-0.0558 0.15747,-0.0375 0.29653,-0.0901 0.41651,-0.15761 0.12748,-0.075 0.225,-0.16529 0.29249,-0.27027 0.075,-0.10499 0.11213,-0.22469 0.11213,-0.35967 v -0.53589 c -0.0573,-0.0322 -0.11402,-0.0641 -0.17001,-0.094 z m 0.92603,0 c 0.003,10e-4 0.005,0.003 0.008,0.004 v -0.004 z m -2.96312,0.0553 c -0.0674,0.003 -0.15006,0.0249 -0.24133,0.0723 -0.0516,0.0268 -0.11504,0.0658 -0.18448,0.11266 v 0.37414 c 0.18972,-0.1217 0.35152,-0.22216 0.42116,-0.25994 0.26957,-0.14639 0.20674,-0.30773 0.005,-0.2992 z m 0.65371,0.0971 c -0.0575,0.0687 -0.087,0.14278 -0.0816,0.21446 0.002,0.0233 0.0306,0.0205 0.0816,-0.006 z m -0.42685,0.28835 c -0.098,-0.002 -0.25992,0.0584 -0.48162,0.18862 -0.0576,0.0338 -0.11241,0.0656 -0.16485,0.0961 0.0138,0.0966 0.0492,0.18462 0.10594,0.26407 0.075,0.10498 0.1725,0.19527 0.29248,0.27027 0.10878,0.0612 0.23402,0.10973 0.37362,0.14624 0.0122,-0.0243 0.0246,-0.0551 0.0398,-0.0951 0.0388,-0.10208 0.0904,-0.18225 0.11523,-0.17828 0.0247,0.004 0.006,0.10589 -0.0418,0.22686 l -0.0264,0.0667 c 0.15102,0.0311 0.30474,0.047 0.46199,0.047 h 0.12454 l 0.0351,-0.35037 c 0.0111,-0.11072 0.0157,-0.20425 0.0145,-0.2806 -0.10909,-0.004 -0.19935,-0.0241 -0.27027,-0.0615 -0.002,0.004 -0.005,0.007 -0.007,0.0114 -0.17308,0.28435 -0.28424,0.33201 -0.12144,0.0522 0.0239,-0.041 0.0435,-0.0779 0.0599,-0.11214 -0.0545,-0.0507 -0.0827,-0.11823 -0.0827,-0.20361 v -0.0362 c -0.10294,0.0569 -0.24834,0.19821 -0.39378,0.41806 -0.11492,0.1737 -0.22913,0.31293 -0.25373,0.30903 -0.0246,-0.004 -0.003,-0.0623 0.0481,-0.12971 0.31312,-0.41256 0.3597,-0.64503 0.1726,-0.64906 z m 1.99574,0.32867 0.0765,0.10076 5.1e-4,-5.1e-4 c 0.0426,0.0551 0.0798,0.15139 0.0832,0.21342 0.008,0.14945 -0.0843,0.0213 -0.12971,-0.17932 z" /><path
         id="path1612"
         style="font-size:9.78619px;line-height:1.25;font-family:Dhurjati;-inkscape-font-specification:Dhurjati;letter-spacing:0px;word-spacing:0px;fill:#ffffff;stroke-width:0.188788"
         d="m 122.34808,34.784239 v 1.41283 c 0.0158,-0.0142 0.0371,-0.0312 0.0646,-0.0506 0.0848,-0.0603 0.12156,-0.0693 0.0816,-0.0207 -0.038,0.046 -0.10175,0.0921 -0.14624,0.10697 v 0.20877 c 0.0274,0.008 0.0585,0.0157 0.0941,0.0238 0.1523,0.0344 0.39286,0.12927 0.53433,0.21084 0.14781,0.0852 0.54448,0.18919 0.93225,0.24443 0.31058,0.0443 0.793,0.16009 1.20664,0.27647 v -0.52296 h -1.68723 v -1.04904 c -0.0705,0.0327 -0.1245,0.0538 -0.13695,0.0527 -0.0412,-0.004 0.0375,-0.0609 0.13695,-0.1142 v -0.14935 h 2.14819 v -0.0382 c -0.0449,1.7e-4 -0.0956,-10e-4 -0.14987,-0.005 -0.21343,-0.0126 -0.49094,-0.0251 -0.61701,-0.0279 -0.12608,-0.003 -0.20865,-0.0195 -0.18345,-0.0372 0.0252,-0.0177 0.2849,-0.0304 0.5767,-0.0284 0.14028,9.6e-4 0.2716,0.008 0.37363,0.0181 v -0.51159 z m 0.46405,1.16117 c 0.0105,-8e-4 0.0114,0.007 5.2e-4,0.0248 -0.0249,0.0397 -0.0822,0.0816 -0.12764,0.093 -0.0456,0.0109 -0.0254,-0.0212 0.045,-0.0724 0.0396,-0.0287 0.0687,-0.0444 0.0822,-0.0455 z m -0.46405,0.56896 v 0.95549 c 0.0613,0.0263 0.13071,0.0517 0.2005,0.0713 0.30704,0.0863 0.36642,0.10991 0.87954,0.40669 v -0.64389 h 1.68723 v -0.0305 c -0.53968,-0.16602 -1.36471,-0.3065 -2.05775,-0.34726 -0.17967,-0.0105 -0.25216,-0.0321 -0.16123,-0.0481 0.15748,-0.0278 0.15875,-0.0346 0.0284,-0.14366 -0.10848,-0.0907 -0.3717,-0.18282 -0.57671,-0.22014 z m 0.23564,0.37465 c 0.0211,-10e-4 0.0438,0.002 0.0625,0.01 v -5.2e-4 c 0.039,0.016 0.0249,0.0397 -0.0336,0.0553 -0.11341,0.0303 -0.15637,0.006 -0.0827,-0.048 0.0132,-0.01 0.0327,-0.0153 0.0537,-0.0165 z m -0.23564,0.69815 v 0.91157 c 0.11488,0.0782 0.22024,0.14861 0.26355,0.1757 0.0746,0.0466 0.0842,0.0714 0.0294,0.0755 -0.0448,0.004 -0.17054,-0.0607 -0.27957,-0.14211 -0.004,-0.003 -0.009,-0.007 -0.0134,-0.01 v 0.89917 h 3.22823 v -0.62994 h -2.14819 v -0.8108 c -0.0443,-0.0232 -0.0906,-0.0482 -0.13953,-0.0744 -0.37019,-0.19859 -0.65098,-0.32265 -0.94051,-0.39481 z m 0.55035,1.24282 c 0.005,-4.9e-4 0.0157,0.009 0.031,0.0269 0.0255,0.0317 0.091,0.0895 0.14469,0.12919 0.0928,0.0688 0.0914,0.0698 -0.0279,0.0227 -0.0687,-0.0269 -0.13427,-0.0851 -0.14521,-0.12919 -0.008,-0.0326 -0.009,-0.049 -0.003,-0.0496 z" /><text
         xml:space="preserve"
         style="font-size:9.78614px;line-height:1.25;font-family:'Le Griffe Std';-inkscape-font-specification:'Le Griffe Std';letter-spacing:0px;word-spacing:0px;fill:#0088aa;fill-opacity:1;stroke-width:0.188788"
         x="114.60582"
         y="39.497284"
         id="text1616"><tspan
           sodipodi:role="line"
           id="tspan1614"
           style="font-style:normal;font-variant:normal;font-weight:normal;font-stretch:normal;font-family:Dhurjati;-inkscape-font-specification:Dhurjati;text-align:end;text-anchor:end;fill:#0088aa;fill-opacity:1;stroke-width:0.188788"
           x="114.60582"
           y="39.497284">BYO</tspan></text><text
         xml:space="preserve"
         style="font-style:normal;font-variant:normal;font-weight:normal;font-stretch:normal;font-size:2.36309px;line-height:0.5;font-family:Roboto;-inkscape-font-specification:Roboto;letter-spacing:0px;word-spacing:0px;fill:#808080;stroke-width:0.188788"
         x="126.27722"
         y="35.922302"
         id="text1632"><tspan
           sodipodi:role="line"
           id="tspan1620"
           style="font-style:normal;font-variant:normal;font-weight:normal;font-stretch:normal;font-family:Dhurjati;-inkscape-font-specification:Dhurjati;fill:#808080;stroke-width:0.188788"
           x="126.27722"
           y="35.922302"
           dy="0"><tspan
   style="font-weight:bold;stroke-width:0.188788"
   id="tspan1618">BUILD</tspan>ING</tspan><tspan
           sodipodi:role="line"
           style="font-style:normal;font-variant:normal;font-weight:normal;font-stretch:normal;font-family:Dhurjati;-inkscape-font-specification:Dhurjati;fill:#808080;stroke-width:0.188788"
           x="126.27722"
           y="37.706322"
           id="tspan1624">YOUR</tspan><tspan
           sodipodi:role="line"
           style="font-style:normal;font-variant:normal;font-weight:normal;font-stretch:normal;font-family:Dhurjati;-inkscape-font-specification:Dhurjati;fill:#808080;stroke-width:0.188788"
           x="126.27722"
           y="39.490341"
           id="tspan1638">OWN</tspan><tspan
           sodipodi:role="line"
           style="font-style:normal;font-variant:normal;font-weight:normal;font-stretch:normal;font-family:Dhurjati;-inkscape-font-specification:Dhurjati;fill:#808080;stroke-width:0.188788"
           x="126.27722"
           y="41.274361"
           id="tspan1626">INSTRUMENTATION FOR </tspan><tspan
           sodipodi:role="line"
           style="font-style:normal;font-variant:normal;font-weight:normal;font-stretch:normal;font-family:Dhurjati;-inkscape-font-specification:Dhurjati;fill:#808080;stroke-width:0.188788"
           x="126.27722"
           y="43.058384"
           id="tspan1628">COLD </tspan><tspan
           sodipodi:role="line"
           style="font-style:normal;font-variant:normal;font-weight:normal;font-stretch:normal;font-family:Dhurjati;-inkscape-font-specification:Dhurjati;fill:#808080;stroke-width:0.188788"
           x="126.27722"
           y="44.842403"
           id="tspan1630">ENVIRONMENTS</tspan></text><rect
         style="fill:#ffffff;stroke:none;stroke-width:0.277943;stroke-linecap:round;stroke-linejoin:bevel;stroke-miterlimit:4.1"
         id="rect658"
         width="22.215639"
         height="4.7021766"
         x="119.17942"
         y="57.681759"
         inkscape:export-filename="../storage/Web/coldenvinstrumentation/assets/img/cryoskills_logo.png"
         inkscape:export-xdpi="300"
         inkscape:export-ydpi="300" /><text
         xml:space="preserve"
         style="font-size:9.78614px;line-height:1.25;font-family:'Le Griffe Std';-inkscape-font-specification:'Le Griffe Std';letter-spacing:0px;word-spacing:0px;fill:#0088aa;fill-opacity:1;stroke-width:0.188788"
         x="141.845"
         y="62.389141"
         id="text648"><tspan
           sodipodi:role="line"
           id="tspan646"
           style="font-style:normal;font-variant:normal;font-weight:normal;font-stretch:normal;font-family:Dhurjati;-inkscape-font-specification:Dhurjati;text-align:end;text-anchor:end;fill:#0088aa;fill-opacity:1;stroke-width:0.188788"
           x="141.845"
           y="62.389141">SKILLS</tspan></text><rect
         style="fill:#0088aa;stroke:none;stroke-width:0.259148;stroke-linecap:round;stroke-linejoin:bevel;stroke-miterlimit:4.1"
         id="rect2465"
         width="17.430178"
         height="5.2221303"
         x="101.28311"
         y="57.42152" /><path
         id="rect516"
         style="fill:#0088aa;stroke:none;stroke-width:0.240116;stroke-linecap:round;stroke-linejoin:bevel;stroke-miterlimit:4.1"
         d="m 102.87571,57.68158 c -0.11872,0.008 -0.23551,0.02472 -0.35066,0.05088 -0.15748,0.03749 -0.29631,0.09352 -0.41629,0.168509 -0.11998,0.06749 -0.21741,0.153862 -0.2924,0.258847 -0.075,0.104985 -0.11247,0.224897 -0.11247,0.359879 v 3.025781 c 0,0.134981 0.0375,0.254893 0.11247,0.359879 0.075,0.104983 0.17242,0.194921 0.2924,0.269908 0.11998,0.06749 0.25881,0.119954 0.41629,0.157447 0.11682,0.02655 0.23533,0.04345 0.35583,0.05125 h 1.05345 c 0.002,-1.52e-4 0.005,-2.09e-4 0.007,-3.68e-4 h 11.93499 c 0.002,1.57e-4 0.005,2.17e-4 0.007,3.68e-4 h 1.22233 c 0.11905,-0.0078 0.23433,-0.02469 0.34587,-0.05125 0.16498,-0.03749 0.30737,-0.08996 0.42735,-0.157447 0.11999,-0.07499 0.21742,-0.164925 0.29241,-0.269908 0.075,-0.104986 0.11283,-0.224898 0.11283,-0.359879 v -3.025781 c 0,-0.134982 -0.0378,-0.254894 -0.11283,-0.359879 -0.075,-0.104985 -0.17242,-0.191356 -0.29241,-0.258847 -0.11998,-0.07499 -0.26237,-0.131015 -0.42735,-0.168509 -0.10993,-0.02617 -0.22349,-0.04293 -0.34071,-0.05088 h -1.23449 -11.93498 z" /><path
         id="path1143"
         style="font-size:9.78614px;line-height:1.25;font-family:Dhurjati;-inkscape-font-specification:Dhurjati;text-align:end;letter-spacing:0px;word-spacing:0px;text-anchor:end;fill:#ffffff;stroke-width:0.188788"
         d="m 103.03095,57.676049 c -0.17248,0 -0.34092,0.01892 -0.5059,0.05642 -0.15748,0.03749 -0.29631,0.09352 -0.41629,0.168509 -0.11998,0.06749 -0.21741,0.153862 -0.2924,0.258847 -0.0618,0.08659 -0.0979,0.183558 -0.10878,0.290558 0.0108,0.0044 0.0228,0.0092 0.0247,0.0092 0.0124,-1.76e-4 0.11426,0.04696 0.2264,0.10435 0.11213,0.05741 0.21073,0.09812 0.21903,0.09071 0.008,-0.0074 0.0254,-0.0019 0.038,0.01217 0.0307,0.03435 0.46159,0.223058 0.56784,0.252579 v -0.29867 c 0,-0.104985 0.0414,-0.183493 0.12389,-0.235986 0.0825,-0.05249 0.19491,-0.07891 0.33739,-0.07891 h 0.16224 c 0.0188,-0.08339 0.0209,-0.15686 0.005,-0.163715 -0.0163,-0.007 -0.0221,-0.01656 -0.0129,-0.02175 0.009,-0.005 0.0252,-0.01936 0.0361,-0.03134 l 0.0195,-0.02212 -0.35103,-0.390852 z m 0.15708,0 c 0.26419,0.286852 0.43839,0.470441 0.44431,0.463122 0.005,-0.0064 0.0202,-0.0188 0.0343,-0.02839 l 0.0251,-0.01807 0.008,0.04609 c 0.01,0.05706 0.046,0.06679 0.0653,0.0177 0.009,-0.0231 0.0179,-0.02385 0.0243,-0.0022 0.006,0.01888 0.0244,0.03385 0.0409,0.03319 0.0167,-8.45e-4 0.0426,0.02091 0.0575,0.04867 l 0.0269,0.05052 0.0516,-0.02249 c 0.10501,-0.04571 0.23464,-0.168331 0.22677,-0.2146 -0.004,-0.02508 0.006,-0.04935 0.0229,-0.05383 0.0169,-0.0043 0.0219,-0.02605 0.0114,-0.04793 l -0.0192,-0.03982 0.0701,-0.04056 0.0704,-0.04056 -0.0347,-0.08554 c -0.0113,-0.003 -0.0224,-0.0061 -0.0339,-0.0088 -0.15748,-0.03749 -0.32273,-0.05642 -0.4952,-0.05642 z m 2.66627,0 v 0.999622 c 0.0946,-0.154647 0.20423,-0.383048 0.39896,-0.814889 0.0302,-0.06705 0.0581,-0.128063 0.0844,-0.184733 z m 0.54977,0 c -0.0457,0.09696 -0.0892,0.186862 -0.11541,0.232299 -0.0317,0.0551 -0.0382,0.09252 -0.0173,0.1014 0.0203,0.0087 0.0199,0.01505 -7.4e-4,0.01586 -0.0187,8.43e-4 -0.0975,0.137981 -0.17514,0.304569 -0.0664,0.142483 -0.15333,0.302734 -0.24115,0.448742 v 0.761424 c 0.10612,-0.01304 0.20042,-0.03829 0.26069,-0.07227 0.0492,-0.02768 0.11936,-0.05098 0.1556,-0.05162 0.0362,-6.21e-4 0.0679,-0.01584 0.0708,-0.03392 l 0.005,-0.03282 h -0.0406 -0.0406 l 0.0288,-0.01807 c 0.0159,-0.0099 0.0353,-0.03805 0.0435,-0.06195 0.008,-0.02414 0.15792,-0.143385 0.33296,-0.265484 0.0729,-0.05073 0.16685,-0.118662 0.26364,-0.189157 v -0.509214 h 0.67514 c 0.10418,-0.07988 0.2194,-0.168337 0.28761,-0.220499 l 0.24963,-0.191001 -0.19727,0.182152 c -0.0586,0.05419 -0.16113,0.139151 -0.27433,0.229348 h 0.12537 c 0.14247,0 0.25489,0.02642 0.33738,0.07891 0.0825,0.05249 0.12389,0.131001 0.12389,0.235986 v 0.731188 c 0,0.03281 -0.004,0.06264 -0.0125,0.09034 0.23339,0.06518 0.50006,0.102166 0.5424,0.0649 0.0171,-0.01503 0.0239,-0.01779 0.0151,-0.0063 -0.017,0.02219 0.13927,0.05373 0.17183,0.03466 0.0208,-0.01218 0.0163,-0.113389 -0.006,-0.132373 -0.007,-0.0064 -0.004,-0.01472 0.008,-0.01844 0.012,-0.0035 0.0547,-0.09481 0.0951,-0.202431 0.1195,-0.318286 0.20305,-0.516467 0.26548,-0.628313 v -0.03429 c 0,-0.134982 -0.0375,-0.254894 -0.11246,-0.359879 -0.0675,-0.104985 -0.16492,-0.191356 -0.2924,-0.258847 -0.11998,-0.07499 -0.25882,-0.131015 -0.41629,-0.168509 -0.15748,-0.03749 -0.32236,-0.05642 -0.49484,-0.05642 z m 3.3086,0 0.91112,1.236345 c 0.0208,0.009 0.0388,0.01645 0.0502,0.01991 0.04,0.01226 0.17322,0.06819 0.29609,0.12463 0.31749,0.14586 0.45347,0.192812 0.46829,0.161134 0.007,-0.01514 0.011,-0.01218 0.009,0.007 -0.005,0.04274 0.20288,0.12899 0.2205,0.09145 0.007,-0.01482 0.011,-0.01283 0.009,0.0044 -0.002,0.01732 0.0433,0.0468 0.10066,0.06526 0.0573,0.01844 0.13971,0.0501 0.18289,0.0708 0.0432,0.02067 0.088,0.03783 0.0999,0.03798 0.0119,1.15e-4 0.0484,0.01373 0.0811,0.03024 0.0327,0.01657 0.0782,0.03696 0.10103,0.04498 0.0228,0.0081 0.10797,0.04955 0.18916,0.09255 0.0812,0.043 0.17308,0.08281 0.20427,0.08813 0.0144,0.0025 0.0422,0.01184 0.0752,0.0247 l 0.0841,-0.113199 c -0.0494,-0.064 -0.098,-0.127851 -0.16371,-0.216444 -0.0957,-0.128997 -0.20101,-0.231938 -0.44616,-0.419981 l -0.20059,0.269909 -0.68104,-0.925507 c -0.11974,-0.09693 -0.16218,-0.144434 -0.11836,-0.136798 0.004,6.95e-4 0.0141,0.006 0.028,0.01438 l -0.42072,-0.571897 z m 3.47563,0 -0.36357,0.489671 c 0.0366,0.07609 0.0753,0.157175 0.0977,0.202063 0.0633,0.126976 0.11715,0.245022 0.11947,0.262534 0.003,0.01729 0.0264,0.04221 0.0538,0.05457 0.0273,0.01239 0.0648,0.03792 0.0833,0.05678 0.14437,0.146432 0.20215,0.149956 0.20649,0.01291 0.004,-0.123203 0.0365,-0.120033 0.0494,0.0048 l 0.004,0.0354 0.44763,-0.603977 c 0.0115,-0.05772 0.0232,-0.115408 0.0372,-0.181045 0.0267,-0.124927 0.0481,-0.249317 0.059,-0.333699 z m 0.84881,0 c -0.0211,0.143944 -0.0443,0.286737 -0.0664,0.401176 l 0.29756,-0.401176 z m 1.99703,0 c -0.0249,0 -0.0498,3.18e-4 -0.0745,0.0011 -0.0326,0.01714 -0.0587,0.02579 -0.0715,0.02102 -0.003,-0.0012 3.4e-4,-0.008 0.008,-0.0177 -0.12469,0.0074 -0.24724,0.02455 -0.36799,0.05199 -0.15748,0.03749 -0.29631,0.09352 -0.41629,0.168509 -0.11999,0.06749 -0.21742,0.153862 -0.29241,0.258847 -0.075,0.104985 -0.11246,0.224897 -0.11246,0.359879 v 0.293876 c 0.0166,-0.0173 0.0328,-0.03379 0.0498,-0.05199 0.24486,-0.262953 0.87789,-0.875288 0.90191,-0.87241 0.0202,0.0024 -0.11206,0.143454 -0.36098,0.384583 -0.12001,0.116285 -0.24026,0.239988 -0.26696,0.274702 -0.0267,0.03468 -0.10479,0.120251 -0.17367,0.190264 -0.086,0.08736 -0.13623,0.152147 -0.15008,0.192845 v 0.03577 c 0.003,0.0049 0.008,0.0086 0.0144,0.01106 0.0179,0.0067 0.0175,0.01305 -0.001,0.01475 -0.005,4.12e-4 -0.009,0.0029 -0.0133,0.0066 v 0.115412 c 0.0177,0.01097 0.045,0.0014 0.0763,-0.03171 0.0185,-0.01949 0.0298,-0.02147 0.0273,-0.0044 -0.003,0.01887 0.0554,-0.0085 0.1663,-0.07817 l 0.17072,-0.1073 0.008,0.03097 c 0.004,0.01705 0.0324,0.03561 0.0623,0.0413 0.0299,0.0056 0.0599,0.02702 0.0667,0.04757 0.007,0.02069 0.0193,0.03213 0.028,0.02581 0.0451,-0.03278 0.0614,-0.02796 0.0483,0.01438 -0.009,0.02951 0.006,0.06855 0.0406,0.103981 l 0.0553,0.05642 0.11505,-0.04978 c 0.0257,-0.01112 0.11762,-0.04853 0.2146,-0.08776 v -0.455748 c 0,-0.104985 0.0414,-0.183493 0.12389,-0.235986 0.0825,-0.05249 0.1949,-0.07891 0.33738,-0.07891 h 0.49484 c 0.14248,0 0.25133,0.02642 0.32632,0.07891 0.0501,0.03187 0.0847,0.07348 0.10435,0.12463 0.0241,-0.0097 0.0491,-0.02009 0.0704,-0.02802 0.14482,-0.05391 0.51996,-0.21684 0.88053,-0.380896 -0.0674,-0.07854 -0.1491,-0.145217 -0.24558,-0.199482 -0.11998,-0.07499 -0.26237,-0.131015 -0.42735,-0.168509 -0.15747,-0.03749 -0.32236,-0.05642 -0.49483,-0.05642 z m -11.62857,0.09144 c 0.0281,0.04178 0.0583,0.08015 0.0855,0.105087 l 0.0874,0.08001 0.0708,0.193951 c 0.0805,0.220057 0.0756,0.211509 0.132,0.23488 h 3.7e-4 c 0.0235,0.0094 0.0711,-0.006 0.10582,-0.03429 0.0351,-0.02815 0.0831,-0.04307 0.1073,-0.03282 l 0.0439,0.01881 -0.008,-0.10435 c -0.0125,-0.02363 -0.0265,-0.04667 -0.0424,-0.06895 -0.0675,-0.104985 -0.16492,-0.191356 -0.2924,-0.258847 -0.0869,-0.0543 -0.18365,-0.09884 -0.29019,-0.133479 z m 13.75908,0.383845 c -0.0587,0.02659 -0.11801,0.05124 -0.15708,0.06453 -0.0635,0.02158 -0.15068,0.06736 -0.19358,0.1014 -0.0429,0.03408 -0.0822,0.05443 -0.0878,0.04498 -0.0106,-0.01799 -0.37696,0.136785 -0.51253,0.216443 -0.008,0.0044 -0.015,0.0083 -0.0225,0.01217 7.9e-4,0.0098 0.001,0.01955 0.001,0.02987 v 1.911117 c 0.0615,0.0195 0.15455,0.04319 0.26069,0.06453 0.27151,0.05459 0.56432,0.121894 0.83075,0.188052 v -2.264727 c 0,-0.134982 -0.0378,-0.254894 -0.11283,-0.359879 -0.002,-0.0029 -0.005,-0.0056 -0.007,-0.0085 z m -13.79116,0.03171 c -0.0471,0.003 -0.2928,0.189493 -0.34403,0.261059 l -0.035,0.04867 c 0.009,0.01942 0.0159,0.04024 0.0203,0.06268 l 0.0302,0.02692 c 0.0387,0.03412 0.10995,0.09797 0.15856,0.141592 v -3.69e-4 c 0.16938,0.152207 0.52467,0.421444 0.53908,0.408551 0.008,-0.0071 -0.005,-0.02678 -0.0302,-0.04388 -0.0247,-0.01712 -0.0506,-0.06119 -0.0571,-0.09771 l -0.0118,-0.066 0.0583,0.08628 c 0.026,0.0386 0.0642,0.09342 0.0962,0.138642 h 0.0347 c -0.0207,-0.04706 -0.0448,-0.09239 -0.0568,-0.105825 -0.0136,-0.01526 -0.0246,-0.04853 -0.0243,-0.07411 l 3.7e-4,-0.04683 0.0597,0.09661 c 0.0773,0.124528 0.10236,0.152254 0.0855,0.09476 -0.0217,-0.07463 0.0148,-0.04883 0.0634,0.0354 h 0.0675 c -0.0173,-0.04678 -0.0365,-0.09267 -0.0546,-0.123524 -0.0337,-0.05755 -0.0644,-0.119569 -0.0682,-0.137904 -0.0132,-0.0624 -0.0758,-0.146133 -0.10325,-0.138273 l -0.0273,0.0077 -0.0177,-0.05863 c -0.01,-0.0322 -0.007,-0.06331 0.006,-0.06932 0.0129,-0.0062 0.0106,-0.04206 -0.005,-0.07965 l -0.0284,-0.06821 -0.0726,-0.01954 c -0.10177,-0.02759 -0.10476,-0.0133 -0.0236,0.104719 0.0393,0.05711 0.0953,0.151466 0.12463,0.209437 0.0293,0.058 0.0772,0.135355 0.10656,0.172196 0.0295,0.03663 0.0439,0.07572 0.0321,0.08628 -0.031,0.02775 -0.0501,9.6e-5 -0.2216,-0.3219 -0.085,-0.159694 -0.17501,-0.313302 -0.19985,-0.341073 -0.0249,-0.02781 -0.0532,-0.08173 -0.0627,-0.120206 -0.01,-0.03851 -0.0268,-0.06928 -0.0387,-0.06858 z m -0.81194,0.0018 c -0.0169,0.0023 -0.0202,0.03606 -0.0295,0.09513 -0.001,0.0089 -0.003,0.01725 -0.004,0.02581 h 0.0435 c 0.0486,0 0.0935,0.0035 0.13532,0.01033 -0.0827,-0.08849 -0.12562,-0.133839 -0.14491,-0.131267 z m 9.23516,0.01807 -0.57964,0.780229 c 0.23454,0.180465 0.49937,0.424464 0.62978,0.582959 0.003,0.0035 0.008,0.0077 0.0111,0.01143 l 0.40007,-0.539449 c -0.002,-0.02142 -0.002,-0.0413 3.7e-4,-0.05494 0.007,-0.03565 -0.002,-0.06993 -0.0188,-0.07633 l -0.0313,-0.0118 -0.008,0.03982 -0.008,0.04019 -0.0118,-0.03208 c -0.007,-0.01756 -0.0306,-0.04175 -0.0524,-0.05457 -0.0221,-0.01265 -0.10909,-0.1836 -0.19395,-0.379422 -0.0363,-0.08402 -0.0856,-0.193506 -0.13716,-0.306044 z m -11.09282,0.320103 v 3.022463 c 0,0.04152 0.004,0.08152 0.0111,0.120205 0.16142,-0.102231 0.33192,-0.206224 0.45833,-0.277283 0.13186,-0.07417 0.32517,-0.182824 0.42957,-0.241517 0.0462,-0.02596 0.11144,-0.0597 0.18068,-0.09402 v -1.681031 l -0.0841,-0.01291 c -0.0861,-0.01347 -0.2499,-0.0241 -0.53318,-0.03466 -0.064,-0.0024 -0.12517,-0.01405 -0.13569,-0.02581 -0.0224,-0.02498 0.1189,-0.03281 0.1921,-0.01069 0.0276,0.0083 0.0428,0.0065 0.0343,-0.0037 -0.009,-0.01015 0.0104,-0.01342 0.0417,-0.0074 0.11035,0.02147 0.0705,-0.11117 -0.10582,-0.353241 -0.0488,-0.06702 -0.0884,-0.142042 -0.0881,-0.166665 l 3.7e-4,-0.04462 -0.13532,-0.06305 c -0.0733,-0.03409 -0.19152,-0.09022 -0.26586,-0.126105 z m 2.31709,0.129792 v 0.11615 c 0.0382,0.04532 0.0938,0.09583 0.11468,0.09476 0.0162,-7.29e-4 0.0331,0.01134 0.0376,0.02655 0.006,0.02043 0.0953,0.104076 0.27544,0.259216 h 0.076 c -0.021,-0.01942 -0.044,-0.04198 -0.0701,-0.06895 -0.0748,-0.07707 -0.15533,-0.150392 -0.1792,-0.162609 -0.0777,-0.03969 -0.17902,-0.126576 -0.14934,-0.127949 0.0154,-7.83e-4 0.0236,-0.01469 0.0188,-0.03097 -0.005,-0.01642 -0.0315,-0.0283 -0.059,-0.02655 l -0.0502,0.0037 0.005,-0.03798 c 0.002,-0.01392 -0.006,-0.02997 -0.0195,-0.04535 z m -1.66849,0.139011 0.005,0.128317 c 0.004,0.118525 0.051,0.286261 0.0944,0.341073 0.01,0.01287 0.0914,0.02576 0.18031,0.02876 0.0644,0.0022 0.11874,-0.0029 0.15154,-0.01327 v -0.293876 c -0.10513,-0.04589 -0.22232,-0.09686 -0.28244,-0.123893 z m 6.98887,0.04167 c -0.0816,0.195869 -0.17004,0.443864 -0.15007,0.451323 0.0185,0.0069 0.0172,0.01289 -0.003,0.01475 -0.0191,0.0017 -0.0505,0.05834 -0.0697,0.125736 l -0.0347,0.122787 0.22049,0.07338 c 0.004,0.0014 0.01,0.0027 0.014,0.0041 0.0151,-0.05443 0.0232,-0.111748 0.0232,-0.172196 z m -5.32038,0.007 v 0.308994 h 0.2559 c -0.0112,-0.01499 -0.0131,-0.02442 -0.007,-0.02987 0.005,-0.0041 0.0271,0.0085 0.0579,0.02987 h 0.0332 c -0.055,-0.05453 -0.10929,-0.110005 -0.13459,-0.140117 -0.0403,-0.04778 -0.0635,-0.0633 -0.0667,-0.04314 -0.003,0.01791 -0.009,0.01688 -0.0151,-0.0033 -0.004,-0.01495 -0.0566,-0.06578 -0.12352,-0.122418 z m 2.91332,0.02692 c -0.0437,0.03331 -0.0993,0.07528 -0.12758,0.09734 -0.11185,0.08731 -0.21707,0.163495 -0.23377,0.169246 -0.0164,0.0061 -0.0357,0.03411 -0.0424,0.06342 -0.007,0.02925 -0.0243,0.0714 -0.0391,0.09329 -0.1148,0.170605 -0.10715,0.228011 0.028,0.205012 0.12152,-0.02068 0.12496,0.01188 0.005,0.04941 l -0.0922,0.02876 0.0173,0.08481 c 0.009,0.04664 0.0275,0.106491 0.0398,0.133111 l 0.0225,0.0483 0.19137,0.02323 c 0.10536,0.01257 0.21836,0.01919 0.2511,0.01512 0.0327,-0.0041 0.2136,-0.0057 0.40192,-0.0037 0.18832,0.0019 0.38076,-0.0063 0.42772,-0.01844 0.0469,-0.01218 0.18351,-0.02435 0.30309,-0.02692 0.11955,-0.0026 0.22529,-0.0117 0.23488,-0.02028 0.01,-0.0086 0.10799,-0.02853 0.21903,-0.04425 0.11103,-0.01579 0.26802,-0.04546 0.34845,-0.06637 0.0344,-0.0089 0.0743,-0.01753 0.1132,-0.02471 -0.0572,-0.0076 -0.12397,-0.01543 -0.21313,-0.0247 -0.11164,-0.0116 -0.20158,-0.0322 -0.19948,-0.04572 0.002,-0.01354 -0.0169,-0.01906 -0.0417,-0.01291 -0.0366,0.0092 -0.1812,-0.03507 -0.32522,-0.08849 -0.0204,0.03394 -0.0487,0.06284 -0.0855,0.08628 -0.0825,0.05249 -0.19491,0.07891 -0.33738,0.07891 h -0.86615 z m 8.18318,0.167771 -0.10914,0.03835 c -0.0601,0.0212 -0.1415,0.06156 -0.18105,0.0896 -0.0292,0.02081 -0.0772,0.05311 -0.1202,0.08186 v 0.318213 c 0.005,-0.0017 0.0153,-0.0056 0.0188,-0.0066 0.02,-0.0061 0.0299,-0.02196 0.0225,-0.03503 l -0.0133,-0.0236 0.0317,0.01106 c 0.0271,0.0094 0.3075,-0.107343 0.49446,-0.205751 l 0.059,-0.03097 -0.0509,-0.08518 c -0.0276,-0.0471 -0.0731,-0.100886 -0.10103,-0.119099 z m -4.30416,0.02175 -0.0328,0.04351 c -0.003,0.0035 -0.006,0.0091 -0.008,0.01327 l 0.54092,0.734138 c 0.0929,6.4e-5 0.1638,-0.0024 0.17109,-0.0092 0.0104,-0.0096 0.02,-0.0089 0.0217,0.0022 0.002,0.01079 0.13191,0.03345 0.28982,0.05052 l 0.28724,0.03134 0.16261,-0.0955 0.16261,-0.09513 -0.017,-0.02913 c -0.009,-0.01593 -0.0284,-0.0222 -0.0424,-0.01401 -0.014,0.0082 -0.0318,0.0037 -0.0398,-0.01 -0.0197,-0.03365 -0.45808,-0.198436 -0.5129,-0.192844 -0.024,0.0024 -0.0418,-0.0081 -0.0394,-0.02323 0.002,-0.01513 -0.08,-0.05909 -0.18326,-0.09771 l -0.18768,-0.07006 -0.009,0.0365 -0.009,0.03687 -0.005,-0.0413 c -0.005,-0.03473 -0.22968,-0.148867 -0.4882,-0.247417 z m 4.9734,0.112462 c -0.39948,0.173135 -0.70827,0.33541 -0.96717,0.507001 -0.0363,0.0241 -0.076,0.04765 -0.11246,0.06821 v 0.05826 c 0.004,-0.0018 0.006,-0.0025 0.0107,-0.0044 l 0.23893,-0.09845 -0.0144,0.0354 -0.0147,0.03577 -0.14306,0.0531 c -0.0274,0.01021 -0.053,0.02077 -0.0774,0.03097 v 0.253316 c 3.4e-4,0.0014 1e-4,0.0036 0,0.0059 v 0.007 c 6.3e-4,0.03529 0.21826,0.07381 0.2511,0.04351 0.0115,-0.01094 0.0193,-0.0083 0.0173,0.0055 -0.006,0.0363 0.78238,0.146313 0.80567,0.112462 0.002,-0.003 0.004,-0.0048 0.006,-0.0066 z m -6.49698,0.536868 c -0.0109,0.0018 -0.0204,0.0049 -0.0273,0.0096 -0.024,0.01617 -0.0496,0.01946 -0.0572,0.0074 -0.002,-0.0027 -0.005,-0.0051 -0.009,-0.0077 -0.5971,0.100253 -0.77327,0.137592 -0.78761,0.167403 -0.009,0.0176 -0.0172,0.01869 -0.0192,0.0018 -0.002,-0.01689 -0.0547,-0.02307 -0.11725,-0.01364 -0.23511,0.0353 -0.82721,0.06934 -1.09107,0.06268 -0.15049,-0.0038 -0.28057,-9.72e-4 -0.28871,0.0063 -0.008,0.0074 -0.0764,0.0037 -0.15192,-0.0081 -0.1991,-0.03098 -0.27238,-0.02797 -0.30088,0.0118 l -0.0254,0.03503 -0.021,-0.04388 c -0.0131,-0.0276 -0.0298,-0.03604 -0.045,-0.02249 -0.0132,0.01175 -0.0484,0.0093 -0.0785,-0.0055 -0.0566,-0.02773 -0.0847,-0.01024 -0.0955,0.05973 l -0.006,0.04056 0.0929,0.0077 c 0.0512,0.0042 0.0938,0.01667 0.0948,0.02802 8.7e-4,0.0113 -0.0339,0.01796 -0.0774,0.01475 l -0.0793,-0.0059 0.0181,0.0601 0.0177,0.05973 0.0682,0.01327 c 0.0376,0.0073 0.0782,0.01107 0.0903,0.0085 0.0355,-0.0078 0.24268,0.05738 0.26622,0.0837 0.0119,0.01327 -0.0153,0.01793 -0.0601,0.01069 -0.045,-0.0074 -0.0808,-0.0011 -0.0796,0.01364 10e-4,0.01482 -0.007,0.0075 -0.0184,-0.01622 -0.0494,-0.103159 -0.33592,-0.09727 -0.3053,0.0063 l 0.0199,0.06711 0.0148,-0.03724 0.0144,-0.03724 0.0369,0.04093 0.0369,0.0413 -0.0468,0.01991 -0.0472,0.01991 0.0347,0.01475 c 0.0191,0.0081 0.0263,0.02234 0.0159,0.03171 -0.0103,0.0092 0.004,0.03682 0.0313,0.06121 0.0288,0.02562 0.0572,0.03252 0.0671,0.01659 l 0.0173,-0.02729 0.009,0.05347 0.009,0.05346 0.0207,-0.01844 c 0.0118,-0.01067 0.0291,5.5e-5 0.0413,0.02544 0.0115,0.02416 0.15318,0.124987 0.31452,0.223818 0.0423,0.02591 0.0937,0.05833 0.14897,0.09403 v -0.592915 l 0.60029,0.809358 c 0.0169,-0.0015 0.0327,-0.0035 0.0494,-0.0048 0.29676,-0.02318 0.66972,-0.08999 0.7039,-0.126104 0.0173,-0.01822 0.0334,-0.02393 0.0358,-0.01217 0.001,0.0053 0.0936,-0.0057 0.22308,-0.02397 l -0.50988,-0.687394 c 0.16498,0 0.32592,-0.01892 0.4834,-0.05642 0.16498,-0.0375 0.30774,-0.08996 0.42773,-0.157447 0.11998,-0.07499 0.21348,-0.164923 0.28097,-0.269909 0.0243,-0.03406 0.0444,-0.06972 0.0608,-0.10693 z m 2.07225,0.208331 0.083,0.112462 v 0.354348 l 0.0428,-0.03097 0.20427,-0.03097 c 0.23171,-0.03512 0.22213,-0.03196 0.25627,-0.08259 0.0139,-0.02112 0.008,-0.07094 -0.0125,-0.110619 -0.0206,-0.04 -0.0259,-0.09005 -0.0111,-0.111724 l 0.0273,-0.03945 -0.25553,-0.03171 c -0.14043,-0.01741 -0.26327,-0.02005 -0.27323,-0.0055 -0.01,0.01449 -0.0162,0.01323 -0.0136,-0.0029 10e-4,-0.0078 -0.0173,-0.01469 -0.0476,-0.02028 z m 1.1626,0.290927 c -0.0256,0.0067 -0.0463,0.01064 -0.0553,0.01069 -0.0638,4.95e-4 -0.15823,0.04532 -0.15598,0.07375 l 0.002,0.02839 -0.0608,0.0055 c -0.0335,0.0031 -0.0638,-0.0056 -0.0671,-0.01954 -0.004,-0.01385 -0.0386,-0.01903 -0.0785,-0.01106 l -0.073,0.01475 -0.0336,0.06674 c -0.0473,0.09425 -0.0337,0.100698 0.0981,0.04462 0.0638,-0.02712 0.16708,-0.06355 0.22972,-0.08075 0.0627,-0.01721 0.14832,-0.04899 0.19027,-0.07043 0.001,-7.23e-4 0.003,-0.0012 0.004,-0.0018 z m 2.51435,0.0365 -0.0413,0.02434 c -0.0227,0.01331 -0.0493,0.01116 -0.0586,-0.0048 -0.023,-0.03925 -0.0796,-0.0025 -0.12389,0.08038 l -0.0365,0.06821 0.0597,0.0074 c 0.0328,0.0039 0.0624,0.012 0.066,0.01807 0.0124,0.0211 -0.041,0.03876 -0.097,0.03208 l -0.0564,-0.007 -0.006,0.08554 -0.006,0.08591 0.0572,0.03097 c 0.0779,0.0426 0.0603,0.06796 -0.0266,0.03835 -0.0222,-0.0076 -0.0441,-0.0095 -0.0627,-0.0074 v 0.08186 c 0.13474,0.0597 0.33458,0.131997 0.34144,0.115412 0.006,-0.0143 0.0128,-0.01523 0.0151,-0.0022 0.008,0.04378 0.0941,0.0884 0.11431,0.059 0.0113,-0.01639 0.018,-0.01605 0.0155,0.0011 -0.003,0.01661 0.0626,0.059 0.14454,0.09439 0.0736,0.03172 0.26644,0.128148 0.44874,0.223081 v -0.889003 c -0.37755,-0.04708 -0.74509,-0.07838 -0.75958,-0.05789 -0.011,0.01561 -0.0125,0.0048 -0.004,-0.0247 z m -2.51435,0.08075 c -0.0556,0.01944 -0.14195,0.04547 -0.27286,0.08444 -0.17342,0.0516 -0.34137,0.109491 -0.37352,0.128317 -0.0322,0.01885 -0.0909,0.03559 -0.13053,0.03724 -0.0396,0.0017 -0.0735,0.01253 -0.0752,0.02434 -0.006,0.04676 0.12773,0.324571 0.18768,0.389008 l 0.0634,0.06858 0.0752,-0.05642 c 0.0411,-0.03118 0.11793,-0.08787 0.17035,-0.126843 l -3.7e-4,-3.68e-4 c 0.10066,-0.07472 0.24596,-0.196442 0.35582,-0.294614 v -0.09513 c -10e-4,1.8e-5 -0.003,3.99e-4 -0.004,3.69e-4 l -0.0671,-0.0015 0.0715,-0.0295 v -0.06674 c -0.002,-2.95e-4 -0.004,-3.39e-4 -0.006,-7.37e-4 l -0.0457,-0.0096 0.0516,-0.01917 z m 4.66809,0.285027 v 0.836644 c 0,0.104984 -0.041,0.183492 -0.12352,0.235986 -0.0749,0.05245 -0.18366,0.07886 -0.32596,0.07891 0.0275,0.01662 0.0483,0.0305 0.0516,0.03614 0.0107,0.0183 0.0267,0.01811 0.0395,-3.69e-4 0.0122,-0.01771 0.0195,-0.01855 0.017,-0.0018 -0.002,0.01599 0.0528,0.05819 0.12279,0.09403 0.29282,0.149925 0.4557,0.24593 0.44837,0.26364 -0.004,0.01036 0.0108,0.02302 0.0332,0.02802 0.0225,0.0051 0.0842,0.04194 0.13717,0.08223 0.007,0.0056 0.0232,0.01651 0.0328,0.0236 0.0934,-0.0306 0.17774,-0.067 0.25331,-0.109513 0.11999,-0.07499 0.21742,-0.164924 0.29241,-0.269908 0.075,-0.104986 0.11283,-0.224898 0.11283,-0.359879 v -0.685096 c -0.0476,-0.0087 -0.0833,-0.01342 -0.0892,-0.0085 -0.0154,0.01322 -0.0261,0.01045 -0.0236,-0.0059 0.005,-0.03231 -0.17995,-0.08072 -0.19727,-0.05162 -0.006,0.0097 -0.008,0.0092 -0.006,-7.37e-4 0.005,-0.01907 -0.54254,-0.15077 -0.76438,-0.183995 -0.004,-5.8e-4 -0.007,-0.0012 -0.0111,-0.0018 z m -11.15144,0.05199 -0.0708,0.07301 -0.0704,0.07301 0.0409,0.06453 c 0.0226,0.03555 0.0494,0.07981 0.0594,0.09808 0.01,0.01836 0.0274,0.02495 0.0387,0.01512 l 0.0206,-0.0177 -0.004,0.03319 c -0.003,0.02186 0.0974,0.175943 0.20465,0.320425 0.0843,-0.0098 0.17071,-0.02169 0.25073,-0.0354 0.0171,-0.0029 0.0459,-0.0068 0.069,-0.01032 l 0.01,-0.02544 -0.0597,-0.09919 c -0.0327,-0.05463 -0.0882,-0.126473 -0.12352,-0.15966 -0.0354,-0.03308 -0.0986,-0.09483 -0.14049,-0.137166 -0.0419,-0.04229 -0.0886,-0.07967 -0.10361,-0.08259 -0.015,-0.0029 -0.0484,-0.02875 -0.0741,-0.05752 z m 5.40371,0.03614 v 0.648224 c 0.0249,-0.01706 0.0388,-0.02764 0.0372,-0.0295 -0.005,-0.0059 -0.0144,-0.02376 -0.021,-0.03945 l -0.0129,-0.02802 0.0468,0.0015 c 0.0578,0.0019 0.0749,-0.0315 0.0306,-0.0601 -0.0208,-0.01343 -0.0199,-0.02272 0.003,-0.0247 0.0196,-0.0019 0.0375,-0.01684 0.0402,-0.03319 0.003,-0.01657 0.0296,-0.03773 0.0597,-0.04683 l 0.0546,-0.01659 -0.0118,-0.05457 c -0.0239,-0.111996 -0.11828,-0.263626 -0.16519,-0.265115 -0.0254,-8.06e-4 -0.0472,-0.0159 -0.0483,-0.03319 -4.2e-4,-0.0082 -0.005,-0.0146 -0.0125,-0.01844 z m 1.07964,0.0295 c -0.0731,0.0489 -0.13724,0.09645 -0.15118,0.113937 -0.0544,0.0683 -0.15942,0.150677 -0.15487,0.121312 0.002,-0.01527 -0.01,-0.02653 -0.0269,-0.02507 -0.0171,0.0015 -0.0335,0.02547 -0.0372,0.05273 l -0.007,0.04978 -0.0361,-0.01217 c -0.0386,-0.01301 -0.11288,0.04889 -0.125,0.10435 l -0.007,0.03208 -0.0387,-0.01364 -0.0391,-0.01364 -0.19727,0.120943 c -0.23681,0.145737 -0.23208,0.137482 -0.10398,0.185101 0.0568,0.02102 0.1088,0.04661 0.11578,0.05678 0.007,0.01019 0.0696,0.04902 0.13938,0.08665 0.0697,0.03763 0.17009,0.09382 0.22271,0.12463 0.0574,0.03366 0.13104,0.05034 0.184,0.04203 0.0485,-0.0077 0.0971,0.0019 0.1084,0.02102 0.0389,0.06642 0.0891,0.04987 0.15376,-0.04904 v -0.860611 c -0.0283,0.01778 -0.0545,0.0335 -0.0715,0.04277 -0.0548,0.02995 -0.0744,0.04997 -0.0553,0.05715 0.017,0.0064 0.0147,0.01233 -0.006,0.01438 -0.0196,0.0018 -0.10896,0.06526 -0.19874,0.140854 -0.17016,0.143453 -0.24261,0.17714 -0.15118,0.07043 l 0.0535,-0.06231 -0.0384,-0.0081 -0.038,-0.0081 0.0376,-0.02212 c 0.0208,-0.01218 0.042,-0.01482 0.0472,-0.0059 0.0135,0.0231 0.18392,-0.0809 0.18916,-0.11578 0.002,-0.01599 0.0174,-0.03033 0.0332,-0.03171 0.0165,-0.0015 0.0845,-0.04806 0.19874,-0.134217 z m -5.92767,0.09956 c -0.0182,3.6e-4 -0.0284,0.0084 -0.031,0.02434 -0.003,0.01891 -0.009,0.01971 -0.0148,0.0018 -0.005,-0.01735 -0.0376,-0.02611 -0.0719,-0.01954 -0.0689,0.0132 -0.0707,0.05766 -0.004,0.09919 0.0228,0.01423 0.0272,0.02489 0.01,0.02581 -0.0191,8.12e-4 0.0192,0.05265 0.10951,0.147491 l 0.13901,0.146016 -0.004,0.0018 c 0.0668,-0.009 0.13428,-0.01763 0.20464,-0.02618 v -0.224924 c -0.0349,-0.02121 -0.072,-0.04386 -0.10656,-0.06637 -0.11298,-0.0736 -0.19072,-0.110306 -0.23082,-0.109512 z m 8.11017,0.01622 v 0.237461 c 0.22392,0.185377 0.46047,0.390428 0.51179,0.445792 0.0257,0.0277 0.25191,0.233824 0.50258,0.45796 0.17661,0.157919 0.33361,0.300062 0.45021,0.406707 h 0.78503 c 0.17247,0 0.33736,-0.01892 0.49483,-0.05642 0.0402,-0.0091 0.079,-0.01932 0.11652,-0.03024 -0.16145,-0.11098 -0.309,-0.199027 -0.46681,-0.279127 -0.0818,-0.04149 -0.15175,-0.08079 -0.15561,-0.08739 -0.008,-0.01293 -0.18824,-0.102919 -0.34771,-0.176621 H 116.248 c -0.14248,0 -0.2549,-0.02642 -0.33738,-0.07891 -0.0825,-0.05249 -0.1239,-0.131001 -0.1239,-0.235986 v -0.102875 c -0.14698,-0.07345 -0.28934,-0.139868 -0.30272,-0.136799 -0.0137,0.003 -0.0581,-0.01023 -0.0988,-0.0295 l -0.0737,-0.03503 0.0417,-0.0063 c 0.023,-0.0035 0.003,-0.0076 -0.0453,-0.0092 -0.0479,-0.0015 -0.077,-0.0085 -0.0649,-0.01586 0.0121,-0.0073 -0.003,-0.01895 -0.0321,-0.02581 l -0.0542,-0.01217 0.0468,-0.0048 c 0.0394,-0.0039 -0.11321,-0.06326 -0.17294,-0.06711 -0.0109,-6.84e-4 -0.0477,-0.01997 -0.0811,-0.04314 -0.0335,-0.02318 -0.0743,-0.03109 -0.0907,-0.01733 -0.0181,0.01564 -0.0307,0.01026 -0.0321,-0.01291 -0.001,-0.02085 -0.0277,-0.04093 -0.0586,-0.04462 -0.0309,-0.0037 -0.049,-0.01053 -0.0406,-0.01549 0.007,-0.0039 -0.003,-0.01388 -0.0203,-0.02434 z m -8.85279,0.05383 v 0.0092 c 0.003,-0.0013 0.003,-0.0045 0,-0.0092 z m -1.83332,0.02065 v 0.136429 l 0.0262,-0.01954 -0.0262,0.03835 v 0.0708 l 0.0103,0.0063 c 0.0245,0.01445 0.0784,0.05818 0.11984,0.09735 0.0415,0.03912 0.0973,0.08895 0.12426,0.110249 l 0.049,0.03872 0.0715,-0.113569 c 0.0394,-0.06257 0.10477,-0.189985 0.14528,-0.283183 0.0111,-0.02555 0.0231,-0.05227 0.0361,-0.08186 z m 1.83332,0.119099 v 0.112093 l 0.0513,0.07633 -0.0376,-0.007 -0.0136,-0.0026 v 0.134217 c 0.0659,9e-4 0.1645,-0.0044 0.27691,-0.01475 -0.0774,-0.08983 -0.15361,-0.173172 -0.22971,-0.24926 -0.0157,-0.01573 -0.0317,-0.03232 -0.0472,-0.04904 z m -1.00552,0.02397 c -0.003,3.25e-4 -0.005,0.0012 -0.007,0.0029 -0.0317,0.02837 -0.11105,0.483533 -0.0852,0.488565 0.0152,0.0029 0.0175,0.0092 0.005,0.01401 -0.0414,0.01625 -0.0679,0.110273 -0.035,0.124262 0.0183,0.0078 0.0195,0.01419 0.002,0.01512 -0.0168,7.55e-4 -0.0458,0.07302 -0.0642,0.160397 -0.0134,0.06406 -0.0528,0.214479 -0.0977,0.374996 0.0452,-0.01951 0.0882,-0.0408 0.12905,-0.06379 0.12748,-0.07499 0.22491,-0.164924 0.2924,-0.269908 0.075,-0.104986 0.11283,-0.224898 0.11283,-0.359879 v -0.345129 l -0.0372,0.03577 0.024,-0.03945 0.0129,-0.02102 -0.0667,0.0088 -0.0848,0.01106 -0.0195,0.06231 c -0.0263,0.08481 -0.0545,0.07261 -0.0428,-0.01844 0.006,-0.04364 -0.006,-0.08391 -0.0276,-0.09771 l -0.0376,-0.02323 0.0391,-0.01069 c 0.0215,-0.0057 0.0291,-0.0215 0.0173,-0.03466 -0.009,-0.01004 -0.0206,-0.01535 -0.0291,-0.01438 z m 3.75733,0.0059 -0.13089,0.02434 c -0.20816,0.03887 -0.42905,0.07156 -0.49078,0.07264 -0.0617,0.0011 -0.11547,0.01084 -0.11984,0.02139 -0.004,0.01058 -0.0728,0.02228 -0.15191,0.02618 -0.0382,0.0019 -0.0826,0.0075 -0.1239,0.01512 l 0.86393,1.164812 h 0.33481 c -0.0771,-0.06343 -0.17011,-0.141568 -0.24152,-0.204644 -0.0919,-0.08116 -0.21332,-0.17812 -0.26991,-0.215337 -0.11549,-0.07594 -0.22901,-0.194009 -0.22308,-0.231562 0.005,-0.03225 0.50851,0.36528 0.77396,0.610983 0.007,0.0067 0.0348,0.03154 0.0446,0.04056 h 0.71718 z m -3.9959,0.02175 c -0.0116,0.0011 -0.0209,0.0072 -0.0269,0.01881 -0.14962,0.287554 -0.36072,0.66422 -0.41334,0.737456 -0.0209,0.0292 -0.16653,0.272033 -0.32633,0.544611 0.15106,-0.0038 0.29688,-0.0214 0.43621,-0.05457 0.0731,-0.0174 0.14147,-0.03845 0.20648,-0.06232 0.0312,-0.121002 0.054,-0.221162 0.0494,-0.231192 -0.006,-0.01281 -0.001,-0.05879 0.009,-0.102507 l 0.0195,-0.07964 0.0148,0.03982 c 0.008,0.02183 0.008,0.0016 -3.6e-4,-0.04609 -0.008,-0.04723 -0.007,-0.07752 0.003,-0.06711 0.01,0.01043 0.018,-0.0062 0.0188,-0.0365 l 0.001,-0.05531 0.014,0.04462 c 0.0117,0.03786 0.0395,-0.12359 0.0313,-0.182889 -0.001,-0.01087 0.0105,-0.05037 0.0266,-0.08776 0.0161,-0.0374 0.0153,-0.07883 -0.001,-0.09218 -0.0189,-0.01464 -0.0162,-0.02829 0.006,-0.03429 0.0202,-0.0054 0.0346,-0.03497 0.0321,-0.066 -0.002,-0.03105 8.7e-4,-0.05046 0.007,-0.04314 0.007,0.0073 0.0176,-0.0128 0.0251,-0.04388 0.007,-0.03133 2.9e-4,-0.05684 -0.0155,-0.05678 -0.0157,1.26e-4 -0.0502,-0.01368 -0.0767,-0.0306 -0.0151,-0.0096 -0.029,-0.01361 -0.0406,-0.01254 z m -1.82668,0.05863 c -0.003,0.0016 -0.006,0.0031 -0.008,0.0048 -0.0306,0.01762 -0.10673,0.05896 -0.16888,0.09218 -0.0622,0.03322 -0.11507,0.07364 -0.11762,0.08997 -0.003,0.01627 -0.009,0.01561 -0.014,-0.0011 -0.008,-0.02651 -0.39975,0.194372 -0.74299,0.405232 0.0187,0.06028 0.0471,0.11653 0.0848,0.169247 0.075,0.104984 0.17243,0.19492 0.29241,0.269908 0.11999,0.06749 0.25882,0.119954 0.4163,0.157447 0.16497,0.03749 0.33342,0.05642 0.50589,0.05642 h 0.74557 c 0.12939,-0.222985 0.24975,-0.433558 0.33407,-0.587384 l 0.15118,-0.275808 -0.0505,-0.05605 c -0.0356,-0.03926 -0.10755,-0.105606 -0.19027,-0.178464 v 0.153022 c 0,0.104984 -0.0414,0.183492 -0.12389,0.235986 -0.0825,0.05249 -0.19097,0.07891 -0.32595,0.07891 h -0.32631 c -0.14248,0 -0.2549,-0.02642 -0.33739,-0.07891 -0.0825,-0.05249 -0.12389,-0.131001 -0.12389,-0.235986 z m 11.92356,0.04093 v 0.181415 c 0.0224,-0.01691 0.0429,-0.03268 0.0553,-0.04314 l 0.0476,-0.04056 -0.097,-0.09255 c -0.002,-0.0015 -0.004,-0.0036 -0.006,-0.0052 z m -7.77279,0.137536 c -0.0785,0.01439 -0.14364,0.02937 -0.1615,0.03982 -0.0167,0.0098 -0.0328,0.0083 -0.0358,-0.0029 -0.002,-0.0073 -0.0274,-0.0075 -0.0627,-0.0029 -0.005,0.0225 -0.0167,0.04328 -0.0306,0.05125 -0.019,0.01049 -0.0279,0.02515 -0.0199,0.03245 0.0411,0.03772 0.0397,0.0546 -0.004,0.05015 -0.0307,-0.0031 -0.0658,0.01924 -0.0937,0.0601 l -0.0446,0.06563 0.0719,0.102875 c 0.0354,0.05079 0.20233,0.30385 0.38126,0.577428 z m 7.99218,0.04757 -0.0653,0.03872 c -0.0353,0.021 -0.0904,0.05945 -0.15413,0.106563 v 0.02913 c 0,0.134981 0.0375,0.254893 0.11246,0.359879 0.075,0.104984 0.17242,0.19492 0.29241,0.269908 0.11998,0.06749 0.25881,0.119954 0.41629,0.157447 0.16498,0.03749 0.33342,0.05642 0.50589,0.05642 h 0.0557 c -0.32746,-0.296476 -0.69362,-0.621123 -0.92292,-0.814897 z m -8.41695,0.01622 c -0.0393,0.0054 -0.075,0.0085 -0.0959,0.007 -0.038,-0.0027 -0.0738,0.0065 -0.0797,0.02065 -10e-5,2.47e-4 -2.5e-4,4.97e-4 -3.7e-4,7.38e-4 0.007,0.0089 0.0144,0.01841 0.0214,0.02692 l 0.042,0.05162 0.0738,-0.06674 c 0.0132,-0.01179 0.0261,-0.02589 0.0387,-0.04019 z m -0.31084,0.0295 c -0.005,8.26e-4 -0.009,0.0021 -0.0111,0.0041 -0.0369,0.03231 -0.22764,0.0509 -0.25774,0.02507 -0.0182,-0.01523 -0.0474,-0.01948 -0.0656,-0.0088 -0.003,0.0016 -0.006,0.0028 -0.01,0.0037 v 0.948369 h 1.05935 c -0.0705,-0.09273 -0.14224,-0.192308 -0.21423,-0.299039 -0.17829,-0.264426 -0.34084,-0.484583 -0.49704,-0.673297 -0.001,1.23e-4 -0.003,-1.68e-4 -0.004,0 z m 5.26101,0.109144 c -0.007,-1.09e-4 -0.0114,0.0011 -0.0147,0.0029 v 0.860243 h 0.58038 c 0.0382,-0.05942 0.0643,-0.104385 0.0608,-0.11025 -0.006,-0.0099 0.007,-0.02774 0.0273,-0.03982 0.0602,-0.03522 0.14589,-0.173134 0.11947,-0.192107 -0.0131,-0.0096 0.002,-0.04027 0.0343,-0.06822 0.0754,-0.06578 0.0579,-0.09011 -0.1191,-0.167771 -0.0804,-0.03527 -0.20315,-0.08932 -0.27286,-0.119836 -0.0697,-0.03052 -0.19197,-0.08487 -0.27139,-0.120943 -0.0595,-0.02706 -0.1156,-0.0438 -0.14417,-0.04425 z m 0.89122,0.487458 -0.14639,0.210175 c -0.0389,0.05591 -0.0743,0.1052 -0.11689,0.165559 h 0.34145 c -5.4e-4,-0.02515 -0.004,-0.04352 -0.0125,-0.05052 l -0.0324,-0.02802 0.056,0.0015 0.0557,0.0011 -0.0365,-0.02397 c -0.0562,-0.03693 -0.0474,-0.09518 0.0199,-0.134585 0.0221,-0.01292 0.0381,-0.02799 0.0453,-0.04019 v -0.01954 c -0.007,-0.0065 -0.0171,-0.0041 -0.0251,0.0074 -0.009,0.01343 -0.0204,0.0063 -0.0251,-0.01622 -0.005,-0.02228 -0.0347,-0.04778 -0.066,-0.05678 z m 0.17367,0.370203 -0.002,0.0055 h 0.002 z" /><text
         xml:space="preserve"
         style="font-size:2.76891px;line-height:1.25;font-family:Arial;-inkscape-font-specification:Arial;letter-spacing:0px;word-spacing:0px;stroke-width:0.134707"
         x="153.99857"
         y="55.541599"
         id="text2409"><tspan
           sodipodi:role="line"
           id="tspan2407"
           style="stroke-width:0.134707"
           x="153.99857"
           y="55.541599" /></text></g></g></svg>
