<?xml version="1.0" encoding="UTF-8" standalone="no"?>
<!-- Created with Inkscape (http://www.inkscape.org/) -->

<svg
   width="64"
   height="64"
   viewBox="0 0 16.933333 16.933333"
   version="1.1"
   id="svg330"
   inkscape:export-filename="favicon.ico.png"
   inkscape:export-xdpi="96"
   inkscape:export-ydpi="96"
   inkscape:version="1.2.2 (1:1.2.2+202305151921+b0a8486541)"
   sodipodi:docname="favicon.svg"
   xmlns:inkscape="http://www.inkscape.org/namespaces/inkscape"
   xmlns:sodipodi="http://sodipodi.sourceforge.net/DTD/sodipodi-0.dtd"
   xmlns="http://www.w3.org/2000/svg"
   xmlns:svg="http://www.w3.org/2000/svg">
  <sodipodi:namedview
     id="namedview332"
     pagecolor="#ffffff"
     bordercolor="#666666"
     borderopacity="1.0"
     inkscape:showpageshadow="2"
     inkscape:pageopacity="0.0"
     inkscape:pagecheckerboard="0"
     inkscape:deskcolor="#d1d1d1"
     inkscape:document-units="px"
     showgrid="false"
     inkscape:zoom="3.0783955"
     inkscape:cx="44.828549"
     inkscape:cy="19.490673"
     inkscape:window-width="1850"
     inkscape:window-height="1024"
     inkscape:window-x="0"
     inkscape:window-y="0"
     inkscape:window-maximized="1"
     inkscape:current-layer="layer1" />
  <defs
     id="defs327" />
  <g
     inkscape:label="Layer 1"
     inkscape:groupmode="layer"
     id="layer1">
    <rect
       style="fill:#0088aa;stroke:none;stroke-width:0.460577;stroke-linecap:round;stroke-linejoin:bevel;stroke-miterlimit:4.1"
       id="rect2465"
       width="16.933332"
       height="16.979204"
       x="0"
       y="-0.04587118" />
    <path
       style="font-size:9.78614px;line-height:1.25;font-family:Dhurjati;-inkscape-font-specification:Dhurjati;text-align:end;letter-spacing:0px;word-spacing:0px;text-anchor:end;fill:#ffffff;stroke-width:0.613824"
       d="m 6.9489423,12.054128 c -0.00974,0.0051 -0.019511,0.01 -0.026012,0.01554 -0.099492,0.05728 -0.3470213,0.191699 -0.5490954,0.299712 -0.2022368,0.108018 -0.3741379,0.239433 -0.382429,0.292528 -0.00974,0.0529 -0.029262,0.05076 -0.04552,-0.0034 -0.026012,-0.08618 -1.2997449,0.63198 -2.4157534,1.317569 0.060802,0.195992 0.1531415,0.378886 0.2757182,0.550289 0.2438546,0.341345 0.5606378,0.633762 0.9507401,0.877577 0.390135,0.219446 0.8415259,0.390018 1.3535555,0.511924 0.5363825,0.121891 1.0840799,0.18344 1.6448479,0.18344 h 2.4241428 c 0.420698,-0.725146 0.812036,-1.409801 1.086194,-1.90995 l 0.491546,-0.896792 -0.164196,-0.182241 c -0.11575,-0.12765 -0.349687,-0.343366 -0.618643,-0.580257 v 0.497535 c 0,0.341345 -0.134607,0.596605 -0.402815,0.767283 -0.26824,0.170657 -0.6209189,0.256569 -1.0597921,0.256569 H 8.4504688 c -0.4632587,0 -0.8287804,-0.08591 -1.096988,-0.256569 -0.26824,-0.170658 -0.4028152,-0.425936 -0.4028152,-0.767283 z"
       id="path622" />
    <path
       style="font-size:9.78614px;line-height:1.25;font-family:Dhurjati;-inkscape-font-specification:Dhurjati;text-align:end;letter-spacing:0px;word-spacing:0px;text-anchor:end;fill:#ffffff;stroke-width:0.613824"
       d="m 12.888199,11.863495 c -0.03772,0.0034 -0.06795,0.02341 -0.08746,0.06116 -0.486473,0.934952 -1.172843,2.159641 -1.343931,2.397761 -0.06795,0.09494 -0.541455,0.884485 -1.061028,1.770745 0.491156,-0.01229 0.965274,-0.06958 1.418291,-0.177431 0.237677,-0.05659 0.459975,-0.125023 0.671348,-0.202627 0.101443,-0.393426 0.175576,-0.719085 0.160619,-0.751697 -0.01951,-0.04164 -0.0032,-0.191143 0.02926,-0.333289 l 0.0634,-0.258943 0.04812,0.129478 c 0.02601,0.07096 0.02601,0.0051 -0.0012,-0.149847 -0.02601,-0.153559 -0.02276,-0.252049 0.0097,-0.218193 0.03251,0.03391 0.05853,-0.02018 0.06113,-0.118667 l 0.0033,-0.179844 0.04552,0.145068 c 0.03804,0.123097 0.128429,-0.401841 0.101768,-0.594645 -0.0032,-0.03533 0.03414,-0.163766 0.08649,-0.285343 0.05235,-0.12159 0.04975,-0.256308 -0.0032,-0.299712 -0.06145,-0.0476 -0.05267,-0.09199 0.01951,-0.111498 0.06568,-0.01763 0.112498,-0.113702 0.104371,-0.214598 -0.0065,-0.100969 0.0028,-0.164069 0.02276,-0.140266 0.02276,0.02373 0.05722,-0.04162 0.08161,-0.142678 0.02276,-0.101865 9.43e-4,-0.184809 -0.0504,-0.184623 -0.05105,4.08e-4 -0.16322,-0.04448 -0.249382,-0.0995 -0.0491,-0.03123 -0.09429,-0.04424 -0.132007,-0.04076 z"
       id="path620" />
    <path
       style="font-size:9.78614px;line-height:1.25;font-family:Dhurjati;-inkscape-font-specification:Dhurjati;text-align:end;letter-spacing:0px;word-spacing:0px;text-anchor:end;fill:#ffffff;stroke-width:0.613824"
       d="m 13.663884,11.773535 c -0.0097,10e-4 -0.01626,0.004 -0.02276,0.0095 -0.103069,0.09224 -0.361067,1.572155 -0.277019,1.588516 0.04942,0.0095 0.0569,0.0299 0.01626,0.04556 -0.134608,0.05282 -0.220769,0.358541 -0.1138,0.404023 0.0595,0.02536 0.0634,0.04615 0.0065,0.04916 -0.05462,0.0025 -0.148915,0.237417 -0.20874,0.521515 -0.04357,0.208287 -0.171673,0.697354 -0.317661,1.21926 0.146963,-0.06343 0.286773,-0.132657 0.419592,-0.207406 0.414488,-0.243822 0.731272,-0.536232 0.950708,-0.877577 0.243855,-0.341351 0.366855,-0.731232 0.366855,-1.170109 v -1.122151 l -0.120952,0.116301 0.07803,-0.128272 0.04194,-0.06835 -0.216869,0.02861 -0.275718,0.03595 -0.0634,0.202603 c -0.08551,0.275752 -0.177202,0.236085 -0.139159,-0.05995 0.01951,-0.141889 -0.01951,-0.272825 -0.08974,-0.317692 l -0.122253,-0.07554 0.12713,-0.03476 c 0.06991,-0.01856 0.09461,-0.0699 0.05625,-0.112705 -0.02926,-0.03264 -0.06698,-0.04991 -0.09462,-0.04675 z"
       id="path616" />
    <path
       style="font-size:9.78614px;line-height:1.25;font-family:Dhurjati;-inkscape-font-specification:Dhurjati;text-align:end;letter-spacing:0px;word-spacing:0px;text-anchor:end;fill:#ffffff;stroke-width:0.613824"
       d="m 10.97238,11.308327 v 0.443586 l 0.08519,-0.06355 -0.08519,0.124698 v 0.230211 l 0.03349,0.02041 c 0.07966,0.04698 0.254909,0.189171 0.389647,0.316523 0.134933,0.127205 0.316361,0.289213 0.404019,0.358464 l 0.159318,0.125911 0.232475,-0.369257 c 0.128105,-0.203439 0.340649,-0.617716 0.472363,-0.92074 0.03609,-0.08308 0.07511,-0.169938 0.117374,-0.266158 z"
       id="path612" />
    <path
       style="font-size:9.78614px;line-height:1.25;font-family:Dhurjati;-inkscape-font-specification:Dhurjati;text-align:end;letter-spacing:0px;word-spacing:0px;text-anchor:end;fill:#ffffff;stroke-width:0.613824"
       d="m 10.97238,4.5610629 v 1.0046602 h 0.832032 c -0.03642,-0.048742 -0.04259,-0.079389 -0.02276,-0.097114 0.01626,-0.013224 0.08811,0.027631 0.188256,0.097114 h 0.107946 C 11.899028,5.3884307 11.72251,5.2080527 11.64025,5.1101475 11.509219,4.954802 11.433786,4.9043425 11.423382,4.9698819 c -0.0098,0.058231 -0.02926,0.054891 -0.0491,-0.010672 -0.013,-0.048604 -0.184025,-0.2138785 -0.401608,-0.3980287 z"
       id="path578" />
    <path
       style="font-size:9.78614px;line-height:1.25;font-family:Dhurjati;-inkscape-font-specification:Dhurjati;text-align:end;letter-spacing:0px;word-spacing:0px;text-anchor:end;fill:#ffffff;stroke-width:0.613824"
       d="m 5.5474614,4.4028407 0.016263,0.4172079 c 0.013015,0.385371 0.1658202,0.9307482 0.3069317,1.1089639 0.032514,0.041853 0.2971773,0.083751 0.5862588,0.093519 0.2093893,0.00719 0.3860707,-0.00951 0.4927162,-0.043152 V 5.02387 C 6.6078061,4.8746724 6.2267751,4.7089381 6.0313013,4.6210435 Z"
       id="path574" />
    <path
       style="font-size:9.78614px;line-height:1.25;font-family:Dhurjati;-inkscape-font-specification:Dhurjati;text-align:end;letter-spacing:0px;word-spacing:0px;text-anchor:end;fill:#ffffff;stroke-width:0.613824"
       d="m 10.97238,3.950861 v 0.3776477 c 0.124203,0.1473416 0.304981,0.3115818 0.37287,0.3081019 0.05267,-0.00232 0.107621,0.036864 0.122253,0.086326 0.01951,0.066421 0.309857,0.3383914 0.895564,0.8428119 h 0.247105 C 12.541893,5.502599 12.467111,5.4292646 12.382249,5.3415696 12.139045,5.0909822 11.877211,4.8525816 11.7996,4.812859 11.546967,4.6838128 11.217535,4.4013119 11.314037,4.3968482 c 0.05007,-0.00255 0.07673,-0.047768 0.06113,-0.1006869 -0.01626,-0.053383 -0.102419,-0.09201 -0.191833,-0.086326 l -0.163219,0.012064 0.01626,-0.1234923 c 0.0065,-0.045262 -0.01951,-0.097439 -0.0634,-0.1474576 z"
       id="path572" />
    <path
       style="font-size:9.78614px;line-height:1.25;font-family:Dhurjati;-inkscape-font-specification:Dhurjati;text-align:end;letter-spacing:0px;word-spacing:0px;text-anchor:end;fill:#ffffff;stroke-width:0.613824"
       d="m 3.4386071,3.5288553 v 9.8272187 c 0,0.134999 0.013015,0.265055 0.03609,0.390834 0.5248401,-0.332394 1.0792028,-0.670516 1.4902115,-0.901556 0.4287287,-0.241157 1.0572559,-0.594432 1.3967013,-0.785267 0.1502135,-0.0844 0.3623352,-0.194112 0.5874618,-0.305696 V 6.2886944 L 6.6756294,6.2467264 C 6.3956843,6.2029254 5.8631059,6.1683584 4.9420511,6.1340221 4.733961,6.1261321 4.535074,6.0883421 4.5008695,6.0501091 4.4280385,5.9688871 4.8874602,5.9434367 5.1254622,6.0153561 c 0.089739,0.026982 0.139159,0.021112 0.1115235,-0.012064 -0.029262,-0.033013 0.033814,-0.043639 0.1355839,-0.024058 C 5.7313608,6.0490421 5.6017924,5.617777 5.028507,4.8307072 4.8698391,4.6127914 4.7410836,4.368874 4.7420589,4.288814 L 4.7432589,4.1437459 4.3032803,3.9387531 C 4.064956,3.8279047 3.6805762,3.6454108 3.4388677,3.5287348 Z"
       id="path570" />
    <path
       style="font-size:9.78614px;line-height:1.25;font-family:Dhurjati;-inkscape-font-specification:Dhurjati;text-align:end;letter-spacing:0px;word-spacing:0px;text-anchor:end;fill:#ffffff;stroke-width:0.613824"
       d="m 9.4785921,2.4293088 c -0.054949,0.00747 -0.065678,0.1172446 -0.095916,0.3093037 -0.00325,0.02893 -0.00975,0.056097 -0.013006,0.083913 h 0.1414356 c 0.1580179,0 0.3040053,0.011368 0.4399787,0.033593 C 9.6821944,2.5684162 9.5426446,2.4209686 9.4799252,2.4293312 Z"
       id="path566" />
    <path
       style="font-size:9.78614px;line-height:1.25;font-family:Dhurjati;-inkscape-font-specification:Dhurjati;text-align:end;letter-spacing:0px;word-spacing:0px;text-anchor:end;fill:#ffffff;stroke-width:0.613824"
       d="m 12.118529,2.4234688 c -0.15314,0.00974 -0.952008,0.6161156 -1.118577,0.8488067 L 10.886153,3.430521 c 0.02926,0.06315 0.0517,0.1308465 0.066,0.2037865 l 0.09819,0.087533 c 0.125829,0.1109412 0.357491,0.3185394 0.515541,0.460371 v -0.0012 c 0.550722,0.4948855 1.70591,1.3702814 1.752762,1.3283618 0.02601,-0.0232 -0.01626,-0.087069 -0.09819,-0.1426784 -0.08031,-0.055656 -0.164521,-0.198961 -0.185653,-0.317695 l -0.03837,-0.2145976 0.189556,0.280529 c 0.08454,0.1255106 0.20874,0.303745 0.312784,0.4507803 h 0.112823 C 13.544297,5.4127092 13.46594,5.2653143 13.426923,5.2216339 13.382704,5.1720096 13.346939,5.0638524 13.347913,4.9806721 l 0.0012,-0.15226 0.194108,0.3141176 c 0.251336,0.4048889 0.332816,0.4950361 0.277998,0.3081019 -0.07055,-0.2426532 0.04812,-0.1587559 0.206139,0.1150938 h 0.219469 C 14.190577,5.4136279 14.128151,5.2644188 14.0693,5.1641008 13.959728,4.9769717 13.859911,4.7753335 13.847555,4.7157194 13.804635,4.5128377 13.6011,4.240584 13.511849,4.2661409 l -0.08876,0.025033 -0.05755,-0.1906323 c -0.03251,-0.1047004 -0.02276,-0.2058513 0.01951,-0.2253855 0.04194,-0.020184 0.03447,-0.1367625 -0.01626,-0.2589741 l -0.09234,-0.2217664 -0.236052,-0.063544 c -0.330894,-0.089713 -0.340616,-0.043244 -0.07673,0.3404841 0.127779,0.1856906 0.309858,0.4924748 0.405221,0.6809611 0.09527,0.1885907 0.251008,0.4400922 0.346469,0.559877 0.09592,0.1191075 0.142736,0.2461958 0.104368,0.2805313 -0.100793,0.090224 -0.162894,3.109e-4 -0.720508,-1.0466238 -0.276371,-0.5192038 -0.569029,-1.0186432 -0.649794,-1.108939 -0.08096,-0.090421 -0.172974,-0.2657368 -0.203862,-0.3908368 -0.03251,-0.1252112 -0.08714,-0.2252559 -0.125829,-0.22298 z"
       id="path564" />
    <path
       style="font-size:9.78614px;line-height:1.25;font-family:Dhurjati;-inkscape-font-specification:Dhurjati;text-align:end;letter-spacing:0px;word-spacing:0px;text-anchor:end;fill:#ffffff;stroke-width:0.613824"
       d="m 12.222834,1.0723357 c 0.09136,0.1358434 0.189556,0.2605993 0.277994,0.3416794 L 12.785,1.6741592 13.015199,2.3047704 c 0.261738,0.7154909 0.245806,0.6877 0.429184,0.7636884 h 0.0012 c 0.07641,0.030554 0.231177,-0.019488 0.344066,-0.111498 0.114124,-0.091523 0.270191,-0.1400336 0.348875,-0.1067188 L 14.28126,2.911396 14.25525,2.5721137 C 14.214605,2.4953022 14.169086,2.4203897 14.117389,2.3479488 13.89792,2.0066013 13.581169,1.7257751 13.166681,1.5063353 12.884135,1.3297844 12.569563,1.1849673 12.223159,1.0723423 Z"
       id="path560" />
    <path
       style="font-size:9.78614px;line-height:1.25;font-family:Dhurjati;-inkscape-font-specification:Dhurjati;text-align:end;letter-spacing:0px;word-spacing:0px;text-anchor:end;fill:#ffffff;stroke-width:0.613824"
       d="M 8.2641313,0.77502831 C 9.1231172,1.7076972 9.6895101,2.3046175 9.7087584,2.2808206 c 0.016256,-0.02081 0.065678,-0.061127 0.1115228,-0.092307 l 0.08161,-0.058754 0.026011,0.1498564 c 0.032514,0.1855261 0.1495638,0.2171613 0.2123158,0.057549 0.02926,-0.075106 0.0582,-0.077545 0.07901,-0.00715 0.01951,0.061387 0.07933,0.1100596 0.132982,0.1079136 0.0543,-0.00274 0.13851,0.067987 0.186955,0.1582455 l 0.08746,0.1642541 0.167772,-0.073126 c 0.341429,-0.1486119 0.762907,-0.5473052 0.737319,-0.6977439 -0.01301,-0.081545 0.01951,-0.1604565 0.07446,-0.1750236 0.05495,-0.013989 0.0712,-0.0847 0.03707,-0.1558396 L 11.580814,1.5292243 11.808737,1.3973477 12.037635,1.2654711 11.924811,0.98734701 C 11.888071,0.97760312 11.85198,0.96751124 11.814589,0.95873477 11.30256,0.836841 10.765267,0.77529209 10.204499,0.77529209 Z"
       id="path546" />
    <path
       style="font-size:9.78614px;line-height:1.25;font-family:Dhurjati;-inkscape-font-specification:Dhurjati;text-align:end;letter-spacing:0px;word-spacing:0px;text-anchor:end;fill:#ffffff;stroke-width:0.613824"
       d="m 7.7534023,0.77502831 c -0.5608005,0 -1.1084653,0.0615164 -1.6448804,0.18344268 C 5.5964924,1.0803648 5.1451013,1.2625414 4.754999,1.5063603 4.3648967,1.7257974 4.0481136,2.0066263 3.8042914,2.3479738 3.6033562,2.6295128 3.4859799,2.9447949 3.4506046,3.2926935 c 0.035116,0.014384 0.074132,0.029904 0.08031,0.029904 0.040317,-5.731e-4 0.3715043,0.1526774 0.7361156,0.3392823 0.3645789,0.1866651 0.6851664,0.3190266 0.712153,0.2949337 0.026012,-0.024058 0.082586,-0.00626 0.1235525,0.039579 0.099817,0.1116834 1.5008111,0.7252494 1.8462717,0.8212336 V 3.8465318 c 0,-0.3413471 0.1346072,-0.596607 0.4028153,-0.7672828 C 7.6200631,2.9085917 7.9855523,2.8226807 8.448811,2.8226807 h 0.5275062 c 0.061126,-0.271133 0.067954,-0.5100136 0.016255,-0.5323021 -0.052997,-0.022759 -0.071856,-0.053841 -0.041943,-0.070718 0.029262,-0.016263 0.081935,-0.062948 0.1173754,-0.1018983 l 0.063402,-0.071921 -1.141337,-1.27081388 z"
       id="path1143" />
  </g>
</svg>
