<?xml version="1.0" encoding="UTF-8" standalone="no"?>
<!-- Created with Inkscape (http://www.inkscape.org/) -->

<svg
   width="210mm"
   height="297mm"
   viewBox="0 0 210 297"
   version="1.1"
   id="svg1322"
   inkscape:version="1.2.2 (1:1.2.2+202305151921+b0a8486541)"
   sodipodi:docname="style_guide.svg"
   xmlns:inkscape="http://www.inkscape.org/namespaces/inkscape"
   xmlns:sodipodi="http://sodipodi.sourceforge.net/DTD/sodipodi-0.dtd"
   xmlns="http://www.w3.org/2000/svg"
   xmlns:svg="http://www.w3.org/2000/svg">
  <sodipodi:namedview
     id="namedview1324"
     pagecolor="#ffffff"
     bordercolor="#666666"
     borderopacity="1.0"
     inkscape:showpageshadow="2"
     inkscape:pageopacity="0.0"
     inkscape:pagecheckerboard="0"
     inkscape:deskcolor="#d1d1d1"
     inkscape:document-units="mm"
     showgrid="false"
     showguides="true"
     inkscape:zoom="1.6819304"
     inkscape:cx="297.87201"
     inkscape:cy="539.26131"
     inkscape:window-width="1850"
     inkscape:window-height="1024"
     inkscape:window-x="0"
     inkscape:window-y="0"
     inkscape:window-maximized="1"
     inkscape:current-layer="layer1">
    <sodipodi:guide
       position="25.4,301.09005"
       orientation="-1,0"
       id="guide1508"
       inkscape:locked="false"
       inkscape:label=""
       inkscape:color="rgb(0,134,229)" />
    <sodipodi:guide
       position="151.05643,271.6"
       orientation="0,1"
       id="guide1510"
       inkscape:locked="false"
       inkscape:label=""
       inkscape:color="rgb(0,134,229)" />
    <sodipodi:guide
       position="184.6,297"
       orientation="-1,0"
       id="guide1512"
       inkscape:locked="false"
       inkscape:label=""
       inkscape:color="rgb(0,134,229)" />
  </sodipodi:namedview>
  <defs
     id="defs1319">
    <rect
       x="96.730468"
       y="299.41879"
       width="602.58355"
       height="125.5556"
       id="rect1634" />
    <rect
       x="96.730468"
       y="299.41879"
       width="602.58355"
       height="125.5556"
       id="rect1642" />
    <rect
       x="96.730468"
       y="299.41879"
       width="602.58355"
       height="125.5556"
       id="rect1662" />
    <rect
       x="96.730468"
       y="299.41879"
       width="602.58355"
       height="125.5556"
       id="rect1668" />
    <rect
       x="96.730468"
       y="299.41879"
       width="602.58355"
       height="125.5556"
       id="rect1674" />
    <rect
       x="96.730468"
       y="299.41879"
       width="602.58355"
       height="125.5556"
       id="rect1698" />
    <rect
       x="96.730468"
       y="299.41879"
       width="602.58355"
       height="125.5556"
       id="rect1700" />
    <rect
       x="96.730468"
       y="299.41879"
       width="602.58355"
       height="125.5556"
       id="rect1702" />
    <rect
       x="96.730468"
       y="299.41879"
       width="602.58355"
       height="125.5556"
       id="rect463" />
    <rect
       x="96.730468"
       y="299.41879"
       width="602.58355"
       height="125.5556"
       id="rect469" />
  </defs>
  <g
     inkscape:label="Layer 1"
     inkscape:groupmode="layer"
     id="layer1">
    <rect
       style="fill:#ffffff;stroke:none;stroke-width:0.389531;stroke-linecap:round;stroke-linejoin:bevel;stroke-miterlimit:4.1"
       id="rect658"
       width="31.134743"
       height="6.5899997"
       x="125.8083"
       y="16.353922"
       inkscape:export-filename="../storage/Web/coldenvinstrumentation/assets/img/cryoskills_logo.png"
       inkscape:export-xdpi="300"
       inkscape:export-ydpi="300" />
    <text
       xml:space="preserve"
       style="font-size:13.7151px;line-height:1.25;font-family:'Le Griffe Std';-inkscape-font-specification:'Le Griffe Std';letter-spacing:0px;word-spacing:0px;fill:#0088aa;fill-opacity:1;stroke-width:0.264582"
       x="157.57362"
       y="22.95122"
       id="text648"><tspan
         sodipodi:role="line"
         id="tspan646"
         style="font-style:normal;font-variant:normal;font-weight:normal;font-stretch:normal;font-family:Dhurjati;-inkscape-font-specification:Dhurjati;text-align:end;text-anchor:end;fill:#0088aa;fill-opacity:1;stroke-width:0.264582"
         x="157.57362"
         y="22.95122">SKILLS</tspan></text>
    <rect
       style="fill:#0088aa;stroke:none;stroke-width:0.36319;stroke-linecap:round;stroke-linejoin:bevel;stroke-miterlimit:4.1"
       id="rect2465"
       width="24.42802"
       height="7.3187037"
       x="100.72701"
       y="15.989202" />
    <path
       id="rect516"
       style="fill:#0088aa;stroke:none;stroke-width:0.336517;stroke-linecap:round;stroke-linejoin:bevel;stroke-miterlimit:4.1"
       d="m 102.959,16.353671 c -0.16638,0.01121 -0.33006,0.03464 -0.49144,0.07131 -0.2207,0.05254 -0.41527,0.131066 -0.58342,0.236162 -0.16815,0.09459 -0.30469,0.215634 -0.40979,0.362769 -0.10511,0.147134 -0.15763,0.315188 -0.15763,0.504362 v 4.240568 c 0,0.189173 0.0525,0.357227 0.15763,0.504362 0.10511,0.147132 0.24164,0.273178 0.40979,0.378271 0.16815,0.09459 0.36272,0.168113 0.58342,0.220658 0.16372,0.03721 0.32981,0.06089 0.49869,0.07183 h 1.47639 c 0.003,-2.13e-4 0.007,-2.93e-4 0.01,-5.16e-4 h 16.72663 c 0.003,2.2e-4 0.007,3.04e-4 0.01,5.16e-4 h 1.71307 c 0.16685,-0.01093 0.32841,-0.0346 0.48473,-0.07183 0.23122,-0.05254 0.43077,-0.126077 0.59892,-0.220658 0.16817,-0.105097 0.30471,-0.231139 0.40981,-0.378271 0.10511,-0.147135 0.15813,-0.315189 0.15813,-0.504362 v -4.240568 c 0,-0.189174 -0.053,-0.357228 -0.15813,-0.504362 -0.10511,-0.147135 -0.24164,-0.268182 -0.40981,-0.362769 -0.16815,-0.105097 -0.3677,-0.183615 -0.59892,-0.236162 -0.15406,-0.03668 -0.31322,-0.06016 -0.4775,-0.07131 h -1.73009 -16.72662 z" />
    <path
       id="path1143"
       style="font-size:9.78614px;line-height:1.25;font-family:Dhurjati;-inkscape-font-specification:Dhurjati;text-align:end;letter-spacing:0px;word-spacing:0px;text-anchor:end;fill:#ffffff;stroke-width:0.264582"
       d="m 103.17657,16.345919 c -0.24173,0 -0.47779,0.02652 -0.70901,0.07907 -0.2207,0.05254 -0.41527,0.131066 -0.58342,0.236162 -0.16815,0.09458 -0.30469,0.215634 -0.40979,0.362768 -0.0866,0.121354 -0.13721,0.257253 -0.15245,0.407211 0.0151,0.0062 0.0319,0.01289 0.0346,0.01289 0.0174,-2.47e-4 0.16013,0.06581 0.31729,0.146244 0.15715,0.08046 0.29533,0.137513 0.30697,0.127128 0.0112,-0.01037 0.0356,-0.0027 0.0533,0.01706 0.043,0.04814 0.6469,0.312611 0.79581,0.353984 v -0.41858 c 0,-0.147134 0.058,-0.257161 0.17363,-0.330729 0.11562,-0.07356 0.27316,-0.110591 0.47285,-0.110591 h 0.22737 c 0.0264,-0.116869 0.0293,-0.219836 0.007,-0.229443 -0.0228,-0.0098 -0.031,-0.02321 -0.0181,-0.03048 0.0126,-0.007 0.0353,-0.02713 0.0506,-0.04392 l 0.0273,-0.031 -0.49196,-0.547771 z m 0.22014,0 c 0.37026,0.402017 0.6144,0.659313 0.6227,0.649056 0.007,-0.009 0.0283,-0.02635 0.0481,-0.03979 l 0.0352,-0.02533 0.0112,0.06459 c 0.014,0.07997 0.0645,0.09361 0.0915,0.02481 0.0126,-0.03238 0.0251,-0.03343 0.0341,-0.0031 0.008,0.02646 0.0342,0.04744 0.0573,0.04652 0.0234,-0.0012 0.0597,0.0293 0.0806,0.06821 l 0.0377,0.0708 0.0723,-0.03152 c 0.14716,-0.06406 0.32884,-0.235912 0.31781,-0.300757 -0.006,-0.03515 0.008,-0.06916 0.0321,-0.07544 0.0237,-0.006 0.0307,-0.03651 0.016,-0.06717 l -0.0269,-0.05581 0.0982,-0.05684 0.0987,-0.05684 -0.0486,-0.119882 c -0.0158,-0.0042 -0.0314,-0.0085 -0.0475,-0.01233 -0.22071,-0.05254 -0.4523,-0.07907 -0.69401,-0.07907 z m 3.73672,0 v 1.400949 c 0.13258,-0.216734 0.28623,-0.536833 0.55914,-1.142049 0.0423,-0.09397 0.0814,-0.179478 0.11828,-0.2589 z m 0.7705,0 c -0.0641,0.135888 -0.12502,0.261884 -0.16175,0.325562 -0.0444,0.07722 -0.0535,0.129665 -0.0243,0.14211 0.0285,0.01219 0.0279,0.02109 -10e-4,0.02223 -0.0262,0.0012 -0.13664,0.193377 -0.24545,0.426847 -0.0931,0.199687 -0.21489,0.424275 -0.33797,0.628902 v 1.06712 c 0.14872,-0.01828 0.28088,-0.05366 0.36535,-0.101285 0.069,-0.03879 0.16728,-0.07145 0.21807,-0.07235 0.0507,-8.7e-4 0.0952,-0.0222 0.0992,-0.04754 l 0.007,-0.046 h -0.0569 -0.0569 l 0.0404,-0.02533 c 0.0223,-0.01387 0.0495,-0.05333 0.061,-0.08682 0.0112,-0.03383 0.22132,-0.200951 0.46664,-0.37207 0.10217,-0.0711 0.23383,-0.166302 0.36948,-0.265099 v -0.713653 h 0.9462 c 0.146,-0.11195 0.30748,-0.23592 0.40308,-0.309024 l 0.34985,-0.267684 -0.27647,0.255282 c -0.0821,0.07595 -0.22582,0.195017 -0.38447,0.321426 h 0.1757 c 0.19967,0 0.35723,0.03703 0.47283,0.110591 0.11563,0.07356 0.17363,0.183595 0.17363,0.330729 v 1.024745 c 0,0.04598 -0.006,0.08779 -0.0175,0.126609 0.3271,0.09135 0.70083,0.143184 0.76017,0.09096 0.024,-0.02106 0.0335,-0.02493 0.0212,-0.0088 -0.0238,0.0311 0.19518,0.0753 0.24081,0.04857 0.0292,-0.01707 0.0228,-0.158912 -0.008,-0.185518 -0.01,-0.009 -0.006,-0.02063 0.0112,-0.02584 0.0168,-0.0049 0.0767,-0.132874 0.13328,-0.283703 0.16748,-0.446071 0.28457,-0.723817 0.37207,-0.880567 v -0.04806 c 0,-0.189174 -0.0526,-0.357228 -0.15761,-0.504363 -0.0946,-0.14715 -0.23113,-0.268197 -0.40979,-0.362784 -0.16815,-0.105097 -0.36273,-0.183615 -0.58342,-0.236162 -0.22071,-0.05254 -0.45178,-0.07907 -0.69351,-0.07907 z m 4.63693,0 1.27691,1.732711 c 0.0292,0.01261 0.0544,0.02305 0.0704,0.0279 0.0561,0.01718 0.24277,0.09557 0.41497,0.174666 0.44495,0.20442 0.63553,0.270222 0.6563,0.225826 0.01,-0.02122 0.0154,-0.01707 0.0126,0.0098 -0.007,0.0599 0.28433,0.180777 0.30902,0.128166 0.01,-0.02077 0.0154,-0.01798 0.0126,0.0062 -0.003,0.02427 0.0607,0.06559 0.14107,0.09146 0.0803,0.02584 0.19581,0.07021 0.25632,0.09922 0.0605,0.02897 0.12333,0.05302 0.14001,0.05323 0.0167,1.62e-4 0.0678,0.01924 0.11366,0.04238 0.0458,0.02322 0.10959,0.0518 0.14159,0.06304 0.0319,0.01135 0.15132,0.06944 0.2651,0.129707 0.1138,0.06026 0.24257,0.116056 0.28628,0.123512 0.0202,0.0035 0.0591,0.01659 0.10539,0.03462 l 0.11787,-0.158646 c -0.0692,-0.08969 -0.13735,-0.17918 -0.22944,-0.303341 -0.13412,-0.180787 -0.28171,-0.325056 -0.62528,-0.588595 l -0.28112,0.378272 -0.95447,-1.297078 c -0.16781,-0.135846 -0.22729,-0.202421 -0.16588,-0.19172 0.006,9.74e-4 0.0198,0.0084 0.0392,0.02015 l -0.58963,-0.801502 z m 4.87102,0 -0.50954,0.686264 c 0.0513,0.106638 0.10554,0.220277 0.13693,0.283187 0.0887,0.177954 0.16418,0.343393 0.16743,0.367936 0.004,0.02423 0.037,0.05916 0.0754,0.07648 0.0383,0.01737 0.0908,0.05314 0.11675,0.07958 0.20233,0.205222 0.2833,0.21016 0.28939,0.01809 0.006,-0.172666 0.0512,-0.168223 0.0692,0.0067 l 0.006,0.04961 0.62734,-0.846461 c 0.0161,-0.08089 0.0325,-0.161742 0.0521,-0.253731 0.0374,-0.175082 0.0674,-0.349412 0.0827,-0.467672 z m 1.18959,0 c -0.0296,0.201735 -0.0621,0.401856 -0.0931,0.56224 l 0.41702,-0.56224 z m 2.79879,0 c -0.0349,0 -0.0698,4.46e-4 -0.10441,0.0015 -0.0457,0.02402 -0.0823,0.03614 -0.1002,0.02946 -0.004,-0.0017 4.7e-4,-0.01121 0.0112,-0.02481 -0.17475,0.01037 -0.3465,0.03441 -0.51573,0.07286 -0.22071,0.05254 -0.41527,0.131066 -0.58342,0.236162 -0.16817,0.09458 -0.30471,0.215634 -0.40981,0.362768 -0.10511,0.147134 -0.15761,0.315188 -0.15761,0.504363 v 0.411861 c 0.0233,-0.02425 0.046,-0.04736 0.0698,-0.07286 0.34316,-0.368523 1.23034,-1.226698 1.26401,-1.222664 0.0283,0.0034 -0.15705,0.201048 -0.50591,0.538985 -0.16819,0.162971 -0.33672,0.336338 -0.37414,0.384989 -0.0374,0.0486 -0.14686,0.168529 -0.24339,0.266651 -0.12053,0.122433 -0.19093,0.21323 -0.21034,0.270268 v 0.05013 c 0.004,0.0069 0.0112,0.01205 0.0202,0.0155 0.0251,0.0094 0.0245,0.01829 -0.001,0.02067 -0.007,5.77e-4 -0.0126,0.0041 -0.0186,0.0092 v 0.161747 c 0.0248,0.01537 0.0631,0.002 0.10693,-0.04444 0.0259,-0.02732 0.0418,-0.03009 0.0383,-0.0062 -0.004,0.02645 0.0776,-0.01191 0.23307,-0.109554 l 0.23926,-0.150379 0.0112,0.0434 c 0.006,0.02389 0.0454,0.04991 0.0873,0.05788 0.0419,0.0078 0.084,0.03787 0.0935,0.06667 0.01,0.029 0.0271,0.04503 0.0392,0.03617 0.0632,-0.04594 0.0861,-0.03919 0.0677,0.02015 -0.0126,0.04136 0.008,0.09607 0.0569,0.145727 l 0.0775,0.07907 0.16124,-0.06977 c 0.036,-0.01558 0.16484,-0.06801 0.30076,-0.122994 v -0.638721 c 0,-0.147134 0.058,-0.257161 0.17363,-0.330729 0.11562,-0.07356 0.27315,-0.110591 0.47283,-0.110591 h 0.69351 c 0.19968,0 0.35223,0.03703 0.45733,0.110591 0.0702,0.04467 0.1187,0.102981 0.14624,0.174666 0.0338,-0.01359 0.0688,-0.02816 0.0987,-0.03927 0.20296,-0.07555 0.72871,-0.303897 1.23404,-0.533818 -0.0945,-0.110072 -0.20896,-0.203518 -0.34417,-0.27957 -0.16815,-0.105097 -0.36771,-0.183614 -0.59892,-0.236161 -0.22069,-0.05254 -0.45178,-0.07907 -0.6935,-0.07907 z m -16.29719,0.128152 c 0.0394,0.05855 0.0817,0.112328 0.11983,0.147277 l 0.12249,0.112132 0.0992,0.271818 c 0.11282,0.308405 0.10595,0.296426 0.18499,0.32918 h 5.2e-4 c 0.0329,0.01317 0.0996,-0.0084 0.1483,-0.04806 0.0492,-0.03945 0.11647,-0.06036 0.15038,-0.046 l 0.0615,0.02636 -0.0112,-0.146244 c -0.0175,-0.03312 -0.0371,-0.06541 -0.0594,-0.09663 -0.0946,-0.147128 -0.23113,-0.268175 -0.40979,-0.362763 -0.12179,-0.0761 -0.25738,-0.138522 -0.40669,-0.187068 z m 19.28306,0.53795 c -0.0823,0.03727 -0.16539,0.07181 -0.22015,0.09044 -0.089,0.03024 -0.21117,0.0944 -0.2713,0.14211 -0.0601,0.04776 -0.1152,0.07628 -0.12304,0.06304 -0.0149,-0.02521 -0.52831,0.191701 -0.7183,0.30334 -0.0112,0.0062 -0.021,0.01163 -0.0315,0.01706 0.001,0.01374 0.001,0.0274 0.001,0.04186 v 2.67839 c 0.0862,0.02733 0.21659,0.06053 0.36535,0.09044 0.38051,0.07651 0.79088,0.170832 1.16428,0.263551 v -3.173966 c 0,-0.189175 -0.053,-0.357229 -0.15813,-0.504363 -0.003,-0.0041 -0.007,-0.0078 -0.01,-0.01191 z m -19.32802,0.04444 c -0.066,0.0042 -0.41035,0.26557 -0.48215,0.365869 l -0.049,0.06821 c 0.0126,0.02722 0.0223,0.0564 0.0284,0.08784 l 0.0423,0.03773 c 0.0542,0.04782 0.15409,0.137303 0.22222,0.198438 v -5.17e-4 c 0.23738,0.213315 0.73531,0.590645 0.75551,0.572576 0.0112,-0.01 -0.007,-0.03753 -0.0423,-0.0615 -0.0346,-0.02399 -0.0709,-0.08576 -0.08,-0.136939 l -0.0165,-0.0925 0.0817,0.120919 c 0.0364,0.0541 0.09,0.130926 0.13482,0.194304 h 0.0486 c -0.029,-0.06595 -0.0628,-0.129483 -0.0796,-0.148311 -0.0191,-0.02139 -0.0345,-0.06801 -0.0341,-0.103864 l 5.2e-4,-0.06563 0.0837,0.135397 c 0.10833,0.174523 0.14345,0.21338 0.11983,0.132804 -0.0304,-0.104593 0.0207,-0.06843 0.0888,0.04961 h 0.0946 c -0.0242,-0.06556 -0.0511,-0.129875 -0.0765,-0.173116 -0.0472,-0.08066 -0.0902,-0.167574 -0.0956,-0.19327 -0.0185,-0.08745 -0.10624,-0.204802 -0.14471,-0.193786 l -0.0383,0.01079 -0.0248,-0.08217 c -0.014,-0.04513 -0.01,-0.08873 0.008,-0.09715 0.0181,-0.0087 0.0149,-0.05895 -0.007,-0.111628 l -0.0398,-0.0956 -0.10174,-0.02738 c -0.14263,-0.03867 -0.14682,-0.01864 -0.0331,0.146762 0.0551,0.08004 0.13356,0.212276 0.17466,0.293521 0.0411,0.08129 0.1082,0.189697 0.14934,0.241329 0.0413,0.05134 0.0615,0.10612 0.045,0.12092 -0.0435,0.03889 -0.0702,1.34e-4 -0.31056,-0.451136 -0.11913,-0.223808 -0.24528,-0.439086 -0.28009,-0.478007 -0.0349,-0.03898 -0.0746,-0.114543 -0.0879,-0.168466 -0.014,-0.05397 -0.0376,-0.09709 -0.0542,-0.09611 z m -1.13792,0.0025 c -0.0237,0.0032 -0.0283,0.05054 -0.0413,0.133322 -0.001,0.01247 -0.004,0.02418 -0.006,0.03617 h 0.061 c 0.0681,0 0.13104,0.0049 0.18965,0.01448 -0.1159,-0.123993 -0.17605,-0.187549 -0.20309,-0.183944 z m 12.94288,0.02532 -0.81235,1.093475 c 0.3287,0.252918 0.69986,0.594877 0.88262,0.817004 0.004,0.0049 0.0112,0.01079 0.0156,0.01602 l 0.56069,-0.756026 c -0.003,-0.03002 -0.003,-0.05788 5.2e-4,-0.077 0.01,-0.04996 -0.003,-0.09801 -0.0263,-0.106975 l -0.0439,-0.01654 -0.0112,0.05581 -0.0112,0.05633 -0.0165,-0.04496 c -0.01,-0.02461 -0.0429,-0.05851 -0.0734,-0.07648 -0.031,-0.01773 -0.15288,-0.257312 -0.27181,-0.531752 -0.0509,-0.117752 -0.11997,-0.271195 -0.19223,-0.428914 z m -15.54635,0.448618 v 4.235917 c 0,0.05819 0.006,0.114249 0.0156,0.168465 0.22623,-0.143275 0.46518,-0.289019 0.64234,-0.388606 0.1848,-0.103948 0.45572,-0.256224 0.60204,-0.338481 0.0647,-0.03638 0.15618,-0.08367 0.25322,-0.131767 v -2.355929 l -0.11787,-0.01809 c -0.12067,-0.01888 -0.35023,-0.03378 -0.74724,-0.04858 -0.0897,-0.0034 -0.17543,-0.01969 -0.19017,-0.03617 -0.0314,-0.03501 0.16664,-0.04598 0.26922,-0.01498 0.0387,0.01163 0.06,0.0091 0.0481,-0.0052 -0.0126,-0.01422 0.0146,-0.01881 0.0584,-0.01037 0.15466,0.03009 0.0988,-0.155802 -0.1483,-0.49506 -0.0684,-0.09393 -0.12389,-0.199068 -0.12347,-0.233577 l 5.2e-4,-0.06253 -0.18965,-0.08836 c -0.10273,-0.04778 -0.26841,-0.126442 -0.3726,-0.176734 z m 3.24736,0.181901 v 0.162781 c 0.0535,0.06351 0.13145,0.134304 0.16072,0.132804 0.0227,-10e-4 0.0464,0.01589 0.0527,0.03721 0.008,0.02863 0.13356,0.14586 0.38602,0.363285 h 0.10651 c -0.0294,-0.02722 -0.0617,-0.05883 -0.0982,-0.09663 -0.10483,-0.107985 -0.21769,-0.210745 -0.25114,-0.227867 -0.1089,-0.05562 -0.25089,-0.177393 -0.2093,-0.179317 0.0216,-0.0011 0.0331,-0.02059 0.0264,-0.0434 -0.007,-0.02301 -0.0442,-0.03966 -0.0827,-0.03721 l -0.0704,0.0052 0.007,-0.05323 c 0.003,-0.01951 -0.008,-0.042 -0.0273,-0.06356 z m -2.33836,0.194821 0.007,0.179833 c 0.006,0.16611 0.0715,0.401189 0.1323,0.478007 0.014,0.01804 0.1281,0.0361 0.2527,0.04031 0.0902,0.0031 0.16641,-0.0041 0.21238,-0.0186 v -0.411834 c -0.14733,-0.06431 -0.31157,-0.135748 -0.39583,-0.173634 z m 9.79475,0.0584 c -0.11436,0.274506 -0.2383,0.622066 -0.21031,0.63252 0.0259,0.0097 0.0241,0.01807 -0.004,0.02067 -0.0268,0.0024 -0.0708,0.08176 -0.0977,0.176216 l -0.0486,0.172083 0.30901,0.102841 c 0.006,0.002 0.014,0.0038 0.0196,0.0057 0.0212,-0.07628 0.0325,-0.156613 0.0325,-0.241329 z m -7.45639,0.0098 v 0.433048 h 0.35863 c -0.0157,-0.02101 -0.0184,-0.03422 -0.01,-0.04186 0.007,-0.0057 0.038,0.01191 0.0812,0.04186 h 0.0465 c -0.0771,-0.07642 -0.15316,-0.15417 -0.18862,-0.196371 -0.0565,-0.06696 -0.089,-0.08871 -0.0935,-0.06046 -0.004,0.0251 -0.0126,0.02366 -0.0212,-0.0046 -0.006,-0.02095 -0.0793,-0.09219 -0.17311,-0.171566 z m 4.08295,0.03773 c -0.0612,0.04668 -0.13917,0.105504 -0.1788,0.13642 -0.15675,0.122363 -0.30422,0.229135 -0.32762,0.237195 -0.023,0.0085 -0.05,0.0478 -0.0594,0.08888 -0.01,0.04099 -0.0341,0.100065 -0.0548,0.130744 -0.16089,0.239099 -0.15017,0.319552 0.0392,0.28732 0.17031,-0.02898 0.17513,0.01665 0.007,0.06925 l -0.12922,0.04031 0.0242,0.11886 c 0.0126,0.06536 0.0385,0.149244 0.0558,0.186552 l 0.0315,0.06769 0.2682,0.03256 c 0.14766,0.01762 0.30603,0.02689 0.35191,0.02119 0.0458,-0.0057 0.29936,-0.008 0.56329,-0.0052 0.26392,0.0027 0.53362,-0.0088 0.59944,-0.02584 0.0657,-0.01707 0.25718,-0.03413 0.42477,-0.03773 0.16755,-0.0036 0.31574,-0.0164 0.32918,-0.02842 0.014,-0.01205 0.15135,-0.03998 0.30697,-0.06201 0.1556,-0.02213 0.37562,-0.06371 0.48834,-0.09302 0.0482,-0.01247 0.10413,-0.02457 0.15865,-0.03463 -0.0802,-0.01065 -0.17374,-0.02163 -0.2987,-0.03462 -0.15646,-0.01626 -0.28251,-0.04513 -0.27957,-0.06408 0.003,-0.01898 -0.0237,-0.02671 -0.0584,-0.01809 -0.0513,0.01289 -0.25394,-0.04915 -0.45578,-0.124017 -0.0286,0.04757 -0.0683,0.08807 -0.11983,0.12092 -0.11562,0.07356 -0.27316,0.11059 -0.47283,0.11059 h -1.21389 z m 11.46855,0.235128 -0.15295,0.05375 c -0.0842,0.02971 -0.19831,0.08628 -0.25374,0.125572 -0.0409,0.02917 -0.1082,0.07443 -0.16846,0.114725 v 0.445969 c 0.007,-0.0024 0.0214,-0.0078 0.0263,-0.0093 0.028,-0.0085 0.0419,-0.03078 0.0315,-0.04909 l -0.0186,-0.03308 0.0444,0.0155 c 0.038,0.01317 0.43096,-0.150439 0.69298,-0.288356 l 0.0827,-0.0434 -0.0713,-0.119378 c -0.0387,-0.06601 -0.10245,-0.141389 -0.14159,-0.166914 z m -6.03218,0.03048 -0.046,0.06098 c -0.004,0.0049 -0.008,0.01275 -0.0112,0.0186 l 0.75808,1.028879 c 0.1302,8.9e-5 0.22957,-0.0034 0.23978,-0.01289 0.0146,-0.01345 0.028,-0.01247 0.0304,0.0031 0.003,0.01512 0.18487,0.04688 0.40618,0.0708 l 0.40256,0.04392 0.22789,-0.133841 0.2279,-0.133323 -0.0238,-0.04083 c -0.0126,-0.02232 -0.0398,-0.03111 -0.0594,-0.01963 -0.0196,0.01149 -0.0446,0.0052 -0.0558,-0.01402 -0.0276,-0.04716 -0.64199,-0.278104 -0.71882,-0.270267 -0.0336,0.0034 -0.0586,-0.01135 -0.0552,-0.03256 0.003,-0.0212 -0.11212,-0.08281 -0.25683,-0.136939 l -0.26303,-0.09819 -0.0126,0.05115 -0.0126,0.05167 -0.007,-0.05788 c -0.007,-0.04867 -0.3219,-0.208634 -0.68421,-0.346749 z m 6.97011,0.157613 c -0.55986,0.242645 -0.99263,0.47007 -1.35547,0.710551 -0.0509,0.03378 -0.10651,0.06678 -0.15761,0.09559 v 0.08165 c 0.006,-0.0025 0.008,-0.0035 0.015,-0.0062 l 0.33486,-0.137976 -0.0202,0.04961 -0.0206,0.05013 -0.2005,0.07442 c -0.0384,0.01431 -0.0743,0.02911 -0.10847,0.0434 v 0.355017 c 4.7e-4,0.002 1.4e-4,0.005 0,0.0083 v 0.0098 c 8.8e-4,0.04946 0.30588,0.103443 0.35191,0.06098 0.0161,-0.01533 0.0271,-0.01163 0.0243,0.0077 -0.008,0.05087 1.09649,0.205055 1.12913,0.157613 0.003,-0.0042 0.006,-0.0067 0.008,-0.0093 z m -9.10538,0.752409 c -0.0153,0.0025 -0.0286,0.0069 -0.0383,0.01345 -0.0336,0.02266 -0.0695,0.02727 -0.0802,0.01037 -0.003,-0.0038 -0.007,-0.0071 -0.0126,-0.01079 -0.83682,0.140502 -1.08372,0.192832 -1.10382,0.234612 -0.0126,0.02467 -0.0241,0.02619 -0.0269,0.0025 -0.003,-0.02367 -0.0767,-0.03233 -0.16432,-0.01912 -0.3295,0.04947 -1.15932,0.09718 -1.52911,0.08784 -0.21091,-0.0053 -0.39322,-0.0014 -0.40462,0.0088 -0.0112,0.01037 -0.10708,0.0052 -0.21292,-0.01135 -0.27903,-0.04342 -0.38173,-0.0392 -0.42167,0.01654 l -0.0356,0.04909 -0.0294,-0.0615 c -0.0184,-0.03868 -0.0418,-0.05051 -0.0631,-0.03152 -0.0185,0.01647 -0.0678,0.01303 -0.11002,-0.0077 -0.0793,-0.03886 -0.1187,-0.01435 -0.13384,0.08371 l -0.008,0.05684 0.1302,0.01079 c 0.0718,0.0059 0.13146,0.02336 0.13286,0.03927 0.001,0.01584 -0.0475,0.02517 -0.10848,0.02067 l -0.11113,-0.0083 0.0254,0.08423 0.0248,0.08371 0.0956,0.0186 c 0.0527,0.01023 0.10959,0.01551 0.12655,0.01191 0.0498,-0.01093 0.34011,0.08042 0.3731,0.117303 0.0167,0.0186 -0.0214,0.02513 -0.0842,0.01498 -0.0631,-0.01037 -0.11324,-0.0015 -0.11156,0.01912 0.001,0.02077 -0.01,0.01051 -0.0258,-0.02273 -0.0692,-0.144575 -0.47078,-0.136321 -0.42787,0.0088 l 0.0279,0.09405 0.0207,-0.05219 0.0202,-0.05219 0.0517,0.05736 0.0517,0.05788 -0.0656,0.0279 -0.0661,0.0279 0.0486,0.02067 c 0.0268,0.01135 0.0369,0.03131 0.0223,0.04444 -0.0144,0.01289 0.006,0.0516 0.0439,0.08578 0.0404,0.03591 0.0802,0.04558 0.094,0.02325 l 0.0243,-0.03825 0.0126,0.07494 0.0126,0.07492 0.029,-0.02584 c 0.0165,-0.01495 0.0408,7.8e-5 0.0579,0.03565 0.0161,0.03386 0.21468,0.175167 0.44079,0.313676 0.0593,0.03631 0.13132,0.08175 0.20878,0.131781 v -0.830957 l 0.8413,1.134297 c 0.0237,-0.0021 0.0458,-0.0049 0.0692,-0.0067 0.4159,-0.03249 0.93859,-0.126119 0.9865,-0.176732 0.0242,-0.02554 0.0468,-0.03354 0.0502,-0.01706 0.001,0.0074 0.13118,-0.008 0.31264,-0.03359 l -0.71458,-0.963211 c 0.23122,0 0.45677,-0.02652 0.67748,-0.07907 0.23121,-0.05255 0.43129,-0.126077 0.59945,-0.220658 0.16815,-0.105097 0.29919,-0.231136 0.39378,-0.378272 0.0341,-0.04773 0.0622,-0.09771 0.0852,-0.14986 z m 2.90422,0.291972 0.11632,0.157613 v 0.496611 l 0.06,-0.0434 0.28628,-0.0434 c 0.32473,-0.04922 0.31131,-0.04479 0.35915,-0.115748 0.0195,-0.0296 0.0112,-0.09942 -0.0175,-0.15503 -0.0289,-0.05606 -0.0363,-0.126203 -0.0156,-0.156579 l 0.0383,-0.05529 -0.35812,-0.04444 c -0.1968,-0.0244 -0.36896,-0.0281 -0.38292,-0.0077 -0.014,0.02031 -0.0227,0.01854 -0.0191,-0.0041 0.001,-0.01093 -0.0243,-0.02059 -0.0667,-0.02842 z m 1.62935,0.407727 c -0.0359,0.0094 -0.0649,0.01491 -0.0775,0.01498 -0.0894,6.94e-4 -0.22175,0.06352 -0.2186,0.103359 l 0.003,0.03979 -0.0852,0.0077 c -0.0469,0.0043 -0.0894,-0.0078 -0.094,-0.02738 -0.006,-0.01941 -0.0541,-0.02667 -0.11001,-0.0155 l -0.10231,0.02067 -0.0471,0.09353 c -0.0663,0.132089 -0.0472,0.141126 0.13748,0.06253 0.0894,-0.03801 0.23416,-0.08906 0.32195,-0.11317 0.0879,-0.02412 0.20787,-0.06866 0.26666,-0.09871 0.001,-0.001 0.004,-0.0017 0.006,-0.0025 z m 3.52381,0.05115 -0.0579,0.03411 c -0.0318,0.01865 -0.0691,0.01564 -0.0821,-0.0067 -0.0322,-0.05501 -0.11156,-0.0035 -0.17363,0.112651 l -0.0511,0.09559 0.0837,0.01037 c 0.046,0.0055 0.0875,0.01682 0.0925,0.02533 0.0174,0.02957 -0.0575,0.05432 -0.13594,0.04496 l -0.079,-0.0098 -0.008,0.119882 -0.008,0.120401 0.0802,0.0434 c 0.10917,0.0597 0.0845,0.09525 -0.0373,0.05375 -0.0311,-0.01065 -0.0618,-0.01331 -0.0879,-0.01037 v 0.114725 c 0.18883,0.08367 0.46891,0.184991 0.47852,0.161747 0.008,-0.02004 0.0179,-0.02134 0.0212,-0.0031 0.0112,0.06136 0.13188,0.123891 0.1602,0.08269 0.0158,-0.02297 0.0252,-0.02249 0.0217,0.0015 -0.004,0.02328 0.0877,0.08269 0.20257,0.132286 0.10315,0.04445 0.37341,0.179596 0.6289,0.312643 v -1.245919 c -0.52913,-0.06598 -1.04423,-0.109848 -1.06453,-0.08113 -0.0154,0.02188 -0.0175,0.0067 -0.006,-0.03462 z m -3.52381,0.11317 c -0.0779,0.02725 -0.19894,0.06373 -0.3824,0.118341 -0.24305,0.07232 -0.47843,0.153449 -0.52348,0.179833 -0.0451,0.02642 -0.1274,0.04988 -0.18294,0.05219 -0.0555,0.0024 -0.10301,0.01756 -0.10539,0.03411 -0.008,0.06553 0.17901,0.45488 0.26303,0.545187 l 0.0888,0.09611 0.10539,-0.07907 c 0.0576,-0.0437 0.16528,-0.123148 0.23874,-0.177768 l -5.1e-4,-4.7e-4 c 0.14107,-0.104718 0.34471,-0.275309 0.49867,-0.412895 v -0.133323 c -0.001,2.6e-5 -0.004,5.59e-4 -0.006,5.17e-4 l -0.094,-0.0021 0.10021,-0.04134 v -0.09353 c -0.003,-4.14e-4 -0.006,-4.75e-4 -0.008,-0.001 l -0.0641,-0.01345 0.0723,-0.02687 z m 6.54223,0.399459 v 1.172539 c 0,0.147133 -0.0575,0.25716 -0.17311,0.330729 -0.10497,0.07351 -0.25739,0.110521 -0.45682,0.110591 0.0385,0.02329 0.0677,0.04275 0.0723,0.05065 0.015,0.02565 0.0374,0.02538 0.0554,-5.17e-4 0.0171,-0.02482 0.0273,-0.026 0.0238,-0.0025 -0.003,0.02241 0.074,0.08155 0.17208,0.131781 0.41038,0.210117 0.63866,0.344666 0.62838,0.369486 -0.006,0.01452 0.0151,0.03226 0.0465,0.03927 0.0315,0.0071 0.11801,0.05878 0.19224,0.115243 0.01,0.0078 0.0325,0.02314 0.046,0.03308 0.1309,-0.04288 0.2491,-0.0939 0.35501,-0.15348 0.16817,-0.105097 0.30471,-0.231137 0.40981,-0.37827 0.10511,-0.147136 0.15813,-0.31519 0.15813,-0.504363 v -0.960135 c -0.0667,-0.01219 -0.11674,-0.01881 -0.12501,-0.01191 -0.0216,0.01853 -0.0366,0.01465 -0.0331,-0.0083 0.007,-0.04528 -0.2522,-0.113127 -0.27647,-0.07234 -0.008,0.01359 -0.0112,0.01289 -0.008,-0.001 0.007,-0.02673 -0.76036,-0.211301 -1.07127,-0.257865 -0.006,-8.13e-4 -0.01,-0.0017 -0.0156,-0.0025 z m -15.6285,0.07286 -0.0992,0.102322 -0.0987,0.102322 0.0573,0.09044 c 0.0317,0.04982 0.0692,0.111852 0.0833,0.137457 0.014,0.02573 0.0384,0.03497 0.0542,0.02119 l 0.0289,-0.02481 -0.006,0.04652 c -0.004,0.03064 0.1365,0.24658 0.28681,0.449068 0.11814,-0.01373 0.23925,-0.0304 0.35139,-0.04961 0.024,-0.0041 0.0643,-0.0095 0.0967,-0.01446 l 0.014,-0.03565 -0.0837,-0.139013 c -0.0458,-0.07653 -0.1236,-0.177217 -0.17311,-0.223728 -0.0496,-0.04636 -0.13818,-0.132902 -0.19689,-0.192235 -0.0587,-0.05927 -0.12417,-0.111656 -0.14521,-0.115748 -0.021,-0.0041 -0.0678,-0.04029 -0.10385,-0.08061 z m 7.57318,0.05065 v 0.908472 c 0.0349,-0.02391 0.0544,-0.03874 0.0521,-0.04134 -0.007,-0.0083 -0.0202,-0.0333 -0.0294,-0.05529 l -0.0181,-0.03927 0.0656,0.0021 c 0.081,0.0027 0.10497,-0.04415 0.0429,-0.08423 -0.0292,-0.01882 -0.0279,-0.03184 0.004,-0.03462 0.0275,-0.0027 0.0525,-0.0236 0.0563,-0.04651 0.004,-0.02322 0.0415,-0.05288 0.0837,-0.06563 l 0.0765,-0.02325 -0.0165,-0.07648 c -0.0335,-0.15696 -0.16577,-0.369466 -0.23151,-0.371553 -0.0356,-0.0011 -0.0661,-0.02228 -0.0677,-0.04652 -5.9e-4,-0.01149 -0.007,-0.02046 -0.0175,-0.02584 z m 1.51309,0.04134 c -0.10244,0.06853 -0.19233,0.135173 -0.21187,0.15968 -0.0762,0.09572 -0.22343,0.211171 -0.21705,0.170016 0.003,-0.0214 -0.014,-0.03718 -0.0377,-0.03514 -0.024,0.0021 -0.0469,0.0357 -0.0521,0.0739 l -0.01,0.06977 -0.0506,-0.01706 c -0.0541,-0.01823 -0.1582,0.06852 -0.17518,0.146244 l -0.01,0.04496 -0.0542,-0.01912 -0.0548,-0.01912 -0.27647,0.169499 c -0.33189,0.204248 -0.32526,0.192678 -0.14573,0.259415 0.0796,0.02946 0.15248,0.06532 0.16226,0.07958 0.01,0.01428 0.0975,0.0687 0.19534,0.121439 0.0977,0.05274 0.23838,0.131486 0.31213,0.174666 0.0804,0.04717 0.18365,0.07055 0.25787,0.0589 0.068,-0.01079 0.13608,0.0027 0.15192,0.02946 0.0545,0.09309 0.12487,0.06989 0.21549,-0.06873 V 20.81174 c -0.0397,0.02492 -0.0764,0.04695 -0.10021,0.05994 -0.0768,0.04197 -0.10427,0.07003 -0.0775,0.08009 0.0238,0.009 0.0206,0.01728 -0.008,0.02015 -0.0275,0.0025 -0.1527,0.09146 -0.27853,0.197404 -0.23847,0.201046 -0.34001,0.248257 -0.21187,0.09871 l 0.075,-0.08733 -0.0538,-0.01135 -0.0533,-0.01135 0.0527,-0.031 c 0.0292,-0.01707 0.0589,-0.02077 0.0662,-0.0083 0.0189,0.03237 0.25776,-0.113379 0.2651,-0.162263 0.003,-0.02241 0.0244,-0.04251 0.0465,-0.04444 0.0231,-0.0021 0.11843,-0.06736 0.27853,-0.188102 z m -8.3075,0.139531 c -0.0255,5.05e-4 -0.0398,0.01177 -0.0434,0.03411 -0.004,0.0265 -0.0126,0.02762 -0.0207,0.0025 -0.007,-0.02432 -0.0527,-0.03659 -0.10077,-0.02739 -0.0966,0.0185 -0.0991,0.08081 -0.006,0.139013 0.0319,0.01994 0.0381,0.03488 0.014,0.03617 -0.0268,0.0011 0.0269,0.07379 0.15348,0.206705 l 0.19482,0.204639 -0.006,0.0025 c 0.0936,-0.01261 0.18819,-0.02471 0.2868,-0.03669 v -0.315126 c -0.0489,-0.02973 -0.1009,-0.06147 -0.14933,-0.09302 -0.15834,-0.103149 -0.26729,-0.154591 -0.32349,-0.153478 z m 11.36623,0.02273 v 0.332797 c 0.31382,0.259802 0.64534,0.547176 0.71726,0.624768 0.036,0.03882 0.35305,0.327699 0.70436,0.641821 0.24751,0.22132 0.46755,0.42053 0.63096,0.569991 h 1.1002 c 0.24171,0 0.4728,-0.02652 0.6935,-0.07907 0.0563,-0.01275 0.11071,-0.02708 0.1633,-0.04238 -0.22627,-0.155536 -0.43306,-0.278932 -0.65423,-0.391191 -0.11464,-0.05815 -0.21267,-0.113225 -0.21808,-0.122475 -0.0112,-0.01812 -0.26382,-0.144239 -0.48731,-0.24753 h -0.49041 c -0.19968,0 -0.35723,-0.03703 -0.47283,-0.110591 -0.11562,-0.07356 -0.17364,-0.183595 -0.17364,-0.330729 v -0.144178 c -0.20599,-0.102938 -0.4055,-0.196022 -0.42426,-0.19172 -0.0192,0.0042 -0.0814,-0.01434 -0.13846,-0.04134 l -0.10329,-0.04909 0.0584,-0.0088 c 0.0322,-0.0049 0.004,-0.01065 -0.0635,-0.01289 -0.0671,-0.0021 -0.10792,-0.01191 -0.091,-0.02223 0.017,-0.01023 -0.004,-0.02656 -0.045,-0.03617 l -0.076,-0.01706 0.0656,-0.0067 c 0.0552,-0.0055 -0.15866,-0.08866 -0.24237,-0.09405 -0.0153,-9.58e-4 -0.0668,-0.02799 -0.11366,-0.06046 -0.0469,-0.03249 -0.10413,-0.04357 -0.12712,-0.02429 -0.0254,0.02192 -0.043,0.01438 -0.045,-0.01809 -0.001,-0.02922 -0.0388,-0.05736 -0.0821,-0.06253 -0.0433,-0.0052 -0.0687,-0.01476 -0.0569,-0.02171 0.01,-0.0055 -0.004,-0.01945 -0.0285,-0.03411 z m -12.407,0.07544 v 0.01289 c 0.004,-0.0018 0.004,-0.0063 0,-0.01289 z m -2.56935,0.02894 v 0.191203 l 0.0367,-0.02739 -0.0367,0.05375 v 0.09923 l 0.0144,0.0088 c 0.0343,0.02025 0.10987,0.08154 0.16795,0.136434 0.0582,0.05483 0.13636,0.124662 0.17415,0.154512 l 0.0687,0.05427 0.1002,-0.159164 c 0.0552,-0.08769 0.14684,-0.26626 0.20361,-0.396875 0.0156,-0.03581 0.0324,-0.07325 0.0506,-0.114725 z m 2.56935,0.166915 v 0.157096 l 0.0719,0.106975 -0.0527,-0.0098 -0.0191,-0.0036 v 0.188102 c 0.0924,0.0013 0.23055,-0.0062 0.38809,-0.02067 -0.10848,-0.125895 -0.21528,-0.242697 -0.32194,-0.349332 -0.022,-0.02205 -0.0444,-0.0453 -0.0661,-0.06873 z m -1.40921,0.03359 c -0.004,4.56e-4 -0.007,0.0017 -0.01,0.0041 -0.0444,0.03976 -0.15563,0.677661 -0.11941,0.684713 0.0213,0.0041 0.0245,0.01289 0.007,0.01964 -0.058,0.02277 -0.0952,0.154545 -0.0491,0.17415 0.0256,0.01093 0.0273,0.01989 0.003,0.02119 -0.0235,0.0011 -0.0642,0.102336 -0.09,0.224793 -0.0188,0.08978 -0.074,0.300587 -0.13692,0.525549 0.0633,-0.02734 0.12361,-0.05718 0.18086,-0.0894 0.17866,-0.105097 0.31521,-0.231137 0.40979,-0.37827 0.10511,-0.147136 0.15813,-0.31519 0.15813,-0.504363 v -0.483691 l -0.0521,0.05013 0.0336,-0.05529 0.0181,-0.02946 -0.0935,0.01233 -0.11884,0.0155 -0.0273,0.08733 c -0.0369,0.11886 -0.0764,0.101762 -0.06,-0.02584 0.008,-0.06116 -0.008,-0.117598 -0.0387,-0.136938 l -0.0527,-0.03256 0.0548,-0.01498 c 0.0301,-0.008 0.0408,-0.03013 0.0243,-0.04857 -0.0126,-0.01407 -0.0289,-0.02151 -0.0408,-0.02015 z m 5.26582,0.0083 -0.18344,0.03411 c -0.29173,0.05448 -0.60131,0.10029 -0.68782,0.101804 -0.0865,0.0015 -0.16183,0.01519 -0.16795,0.02998 -0.006,0.01483 -0.10203,0.03123 -0.2129,0.03669 -0.0535,0.0027 -0.11576,0.01051 -0.17364,0.02119 l 1.21077,1.632459 h 0.46923 c -0.10805,-0.08887 -0.2384,-0.198381 -0.33848,-0.286781 -0.1288,-0.113744 -0.29896,-0.249631 -0.37827,-0.30179 -0.16186,-0.106428 -0.32096,-0.271899 -0.31265,-0.324529 0.007,-0.0452 0.71267,0.511932 1.08469,0.856279 0.01,0.0094 0.0488,0.0442 0.0625,0.05684 h 1.00511 z m -5.60017,0.03048 c -0.0163,0.0015 -0.0293,0.01009 -0.0377,0.02636 -0.20969,0.403001 -0.50554,0.93089 -0.57929,1.033529 -0.0293,0.04092 -0.23339,0.381248 -0.45734,0.763261 0.21171,-0.0053 0.41607,-0.02999 0.61134,-0.07648 0.10244,-0.02439 0.19826,-0.05389 0.28937,-0.08734 0.0437,-0.169582 0.0757,-0.309954 0.0692,-0.324011 -0.008,-0.01795 -0.001,-0.08239 0.0126,-0.143661 l 0.0273,-0.111614 0.0207,0.05581 c 0.0112,0.03059 0.0112,0.0022 -5e-4,-0.06459 -0.0112,-0.06619 -0.01,-0.108643 0.004,-0.09405 0.014,0.01462 0.0252,-0.0087 0.0263,-0.05115 l 0.001,-0.07752 0.0196,0.06253 c 0.0164,0.05306 0.0554,-0.173209 0.0439,-0.256315 -0.001,-0.01523 0.0147,-0.07059 0.0373,-0.122994 0.0226,-0.05241 0.0214,-0.110479 -0.001,-0.129188 -0.0265,-0.02052 -0.0227,-0.03965 0.008,-0.04806 0.0283,-0.0076 0.0485,-0.04901 0.045,-0.0925 -0.003,-0.04352 0.001,-0.07072 0.01,-0.06046 0.01,0.01023 0.0247,-0.01794 0.0352,-0.0615 0.01,-0.04391 4.1e-4,-0.07966 -0.0217,-0.07958 -0.022,1.76e-4 -0.0704,-0.01917 -0.10749,-0.04288 -0.0212,-0.01346 -0.0406,-0.01908 -0.0569,-0.01758 z m -2.56005,0.08217 c -0.004,0.0022 -0.008,0.0043 -0.0112,0.0067 -0.0429,0.02469 -0.14958,0.08263 -0.23669,0.129188 -0.0872,0.04656 -0.16126,0.103205 -0.16484,0.126091 -0.004,0.0228 -0.0126,0.02188 -0.0196,-0.0015 -0.0112,-0.03715 -0.56024,0.272408 -1.04128,0.567924 0.0262,0.08448 0.066,0.163314 0.11884,0.237196 0.10512,0.147133 0.24166,0.273176 0.40981,0.37827 0.16816,0.09459 0.36273,0.168113 0.58344,0.220659 0.2312,0.05254 0.46728,0.07907 0.70899,0.07907 h 1.0449 c 0.18134,-0.312509 0.35002,-0.607622 0.46819,-0.823206 l 0.21188,-0.386539 -0.0708,-0.07855 c -0.0499,-0.05501 -0.15073,-0.147996 -0.26666,-0.250105 v 0.214457 c 0,0.147133 -0.058,0.25716 -0.17363,0.330729 -0.11562,0.07356 -0.26764,0.110591 -0.45681,0.110591 h -0.45732 c -0.19968,0 -0.35723,-0.03703 -0.47284,-0.110591 -0.11562,-0.07356 -0.17363,-0.183595 -0.17363,-0.330729 z m 16.71061,0.05736 v 0.254249 c 0.0314,-0.0237 0.0601,-0.0458 0.0775,-0.06046 l 0.0667,-0.05684 -0.13594,-0.129707 c -0.003,-0.0021 -0.006,-0.005 -0.008,-0.0073 z m -10.8934,0.19278 c -0.11001,0.02017 -0.20131,0.04116 -0.22634,0.05581 -0.0234,0.01374 -0.046,0.01163 -0.0502,-0.0041 -0.003,-0.01023 -0.0384,-0.01051 -0.0879,-0.0041 -0.007,0.03153 -0.0234,0.06066 -0.0429,0.07182 -0.0266,0.0147 -0.0391,0.03525 -0.0279,0.04548 0.0576,0.05286 0.0556,0.07652 -0.006,0.07028 -0.043,-0.0043 -0.0922,0.02696 -0.13132,0.08423 l -0.0625,0.09198 0.10077,0.144178 c 0.0496,0.07118 0.28356,0.425839 0.53433,0.809253 z m 11.20087,0.06667 -0.0915,0.05427 c -0.0495,0.02943 -0.12669,0.08332 -0.21601,0.149346 v 0.04083 c 0,0.189173 0.0526,0.357227 0.15761,0.504362 0.10511,0.147133 0.24165,0.273177 0.40981,0.378271 0.16815,0.09459 0.36272,0.168113 0.58342,0.220658 0.23122,0.05254 0.46728,0.07907 0.70899,0.07907 h 0.0781 c -0.45892,-0.415505 -0.97209,-0.870491 -1.29345,-1.142061 z m -11.79617,0.02273 c -0.0551,0.0076 -0.10512,0.01191 -0.13441,0.0098 -0.0533,-0.0038 -0.10343,0.0091 -0.11169,0.02894 -1.4e-4,3.46e-4 -3.5e-4,6.96e-4 -5.2e-4,10e-4 0.01,0.01247 0.0202,0.0258 0.03,0.03773 l 0.0589,0.07234 0.10343,-0.09353 c 0.0185,-0.01652 0.0366,-0.03628 0.0542,-0.05633 z m -0.43564,0.04134 c -0.007,0.0012 -0.0126,0.0029 -0.0156,0.0057 -0.0517,0.04528 -0.31903,0.07134 -0.36122,0.03514 -0.0255,-0.02134 -0.0664,-0.0273 -0.0919,-0.01233 -0.004,0.0022 -0.008,0.0039 -0.014,0.0052 v 1.329119 h 1.48466 c -0.0988,-0.129931 -0.19935,-0.269488 -0.30024,-0.419069 -0.24987,-0.370587 -0.47768,-0.679133 -0.69659,-0.943611 -0.001,1.72e-4 -0.004,-2.36e-4 -0.006,0 z m 7.37319,0.152963 c -0.01,-1.53e-4 -0.016,0.0015 -0.0206,0.0041 v 1.205612 h 0.81339 c 0.0535,-0.08328 0.0901,-0.146294 0.0852,-0.154513 -0.008,-0.01387 0.01,-0.03888 0.0383,-0.05581 0.0844,-0.04936 0.20446,-0.242644 0.16744,-0.269234 -0.0184,-0.01345 0.003,-0.05644 0.0481,-0.09561 0.10567,-0.09219 0.0812,-0.126287 -0.16692,-0.235127 -0.11268,-0.04943 -0.28471,-0.12518 -0.38241,-0.167948 -0.0977,-0.04277 -0.26904,-0.118943 -0.38034,-0.169499 -0.0834,-0.03792 -0.16201,-0.06138 -0.20205,-0.06201 z m 1.24903,0.683162 -0.20516,0.294556 c -0.0545,0.07836 -0.10413,0.147436 -0.16382,0.232027 h 0.47853 c -7.5e-4,-0.03525 -0.006,-0.06099 -0.0175,-0.0708 l -0.0454,-0.03927 0.0785,0.0021 0.0781,0.0015 -0.0511,-0.03359 c -0.0788,-0.05176 -0.0664,-0.133393 0.0279,-0.188618 0.031,-0.01811 0.0534,-0.03923 0.0635,-0.05633 v -0.02738 c -0.01,-0.0091 -0.024,-0.0057 -0.0352,0.01037 -0.0126,0.01882 -0.0286,0.0088 -0.0352,-0.02273 -0.007,-0.03122 -0.0486,-0.06696 -0.0925,-0.07958 z m 0.24339,0.518832 -0.003,0.0077 h 0.003 z" />
    <text
       xml:space="preserve"
       style="font-style:normal;font-variant:normal;font-weight:normal;font-stretch:normal;font-size:3.31182px;line-height:0.5;font-family:Roboto;-inkscape-font-specification:Roboto;letter-spacing:0px;word-spacing:0px;fill:#808080;stroke-width:0.264582"
       x="158.16641"
       y="12.898671"
       id="text542"><tspan
         sodipodi:role="line"
         id="tspan530"
         style="font-style:normal;font-variant:normal;font-weight:normal;font-stretch:normal;font-family:Dhurjati;-inkscape-font-specification:Dhurjati;fill:#666666;stroke-width:0.264582"
         x="158.16641"
         y="12.898671"
         dy="0"><tspan
           style="font-weight:bold;fill:#666666;stroke-width:0.264582"
           id="tspan528">BUILD AND DEPLOY </tspan></tspan><tspan
         sodipodi:role="line"
         style="font-style:normal;font-variant:normal;font-weight:normal;font-stretch:normal;font-family:Dhurjati;-inkscape-font-specification:Dhurjati;fill:#666666;stroke-width:0.264582"
         x="158.16641"
         y="15.398937"
         id="tspan532">YOUR</tspan><tspan
         sodipodi:role="line"
         style="font-style:normal;font-variant:normal;font-weight:normal;font-stretch:normal;font-family:Dhurjati;-inkscape-font-specification:Dhurjati;fill:#666666;stroke-width:0.264582"
         x="158.16641"
         y="17.899202"
         id="tspan534">OWN</tspan><tspan
         sodipodi:role="line"
         style="font-style:normal;font-variant:normal;font-weight:normal;font-stretch:normal;font-family:Dhurjati;-inkscape-font-specification:Dhurjati;fill:#666666;stroke-width:0.264582"
         x="158.16641"
         y="20.399469"
         id="tspan536">INSTRUMENTATION FOR </tspan><tspan
         sodipodi:role="line"
         style="font-style:normal;font-variant:normal;font-weight:normal;font-stretch:normal;font-family:Dhurjati;-inkscape-font-specification:Dhurjati;fill:#666666;stroke-width:0.264582"
         x="158.16641"
         y="22.899734"
         id="tspan538">COLD </tspan><tspan
         sodipodi:role="line"
         style="font-style:normal;font-variant:normal;font-weight:normal;font-stretch:normal;font-family:Dhurjati;-inkscape-font-specification:Dhurjati;fill:#666666;stroke-width:0.264582"
         x="158.16641"
         y="25.4"
         id="tspan540">ENVIRONMENTS</tspan></text>
    <text
       xml:space="preserve"
       style="font-style:normal;font-variant:normal;font-weight:normal;font-stretch:normal;font-size:3.88056px;line-height:1.25;font-family:'Open Sans';-inkscape-font-specification:'Open Sans';letter-spacing:0px;word-spacing:0px;stroke-width:0.264583"
       x="25.4"
       y="34.19265"
       id="text1618"><tspan
         sodipodi:role="line"
         id="tspan1616"
         style="font-style:normal;font-variant:normal;font-weight:bold;font-stretch:normal;font-family:'Open Sans';-inkscape-font-specification:'Open Sans Bold';stroke-width:0.264583"
         x="25.4"
         y="34.19265">Font (Display)</tspan></text>
    <text
       xml:space="preserve"
       style="font-size:3.88056px;line-height:1.25;font-family:'Open Sans';-inkscape-font-specification:'Open Sans';letter-spacing:0px;word-spacing:0px;stroke-width:0.264583;font-weight:normal;font-style:normal;font-stretch:normal;font-variant:normal"
       x="25.4"
       y="39.951134"
       id="text1626"><tspan
         sodipodi:role="line"
         style="stroke-width:0.264583;-inkscape-font-specification:'Open Sans';font-family:'Open Sans';font-weight:normal;font-style:normal;font-stretch:normal;font-variant:normal"
         x="25.4"
         y="39.951134"
         id="tspan1648">36pt, 20pt, 8pt, </tspan><tspan
         sodipodi:role="line"
         style="stroke-width:0.264583;-inkscape-font-specification:'Open Sans';font-family:'Open Sans';font-weight:normal;font-style:normal;font-stretch:normal;font-variant:normal"
         x="25.4"
         y="44.801834"
         id="tspan1654">Uppercase only, 75% line spacing</tspan></text>
    <text
       xml:space="preserve"
       style="font-size:12.7px;line-height:1.25;font-family:Arial;-inkscape-font-specification:Arial;letter-spacing:0px;word-spacing:0px;stroke-width:0.264583"
       x="25.593269"
       y="82.955475"
       id="text1630"><tspan
         sodipodi:role="line"
         id="tspan1628"
         style="font-style:normal;font-variant:normal;font-weight:normal;font-stretch:normal;font-size:12.7px;font-family:Dhurjati;-inkscape-font-specification:Dhurjati;stroke-width:0.264583"
         x="25.593269"
         y="82.955475" /></text>
    <text
       xml:space="preserve"
       transform="matrix(0.26458333,0,0,0.26458333,-0.42683282,-29.264898)"
       id="text1632"
       style="font-size:48px;line-height:0.75;font-family:Arial;-inkscape-font-specification:Arial;letter-spacing:0px;word-spacing:0px;white-space:pre;shape-inside:url(#rect1634)"><tspan
         x="96.730469"
         y="330.65418"
         id="tspan1879"><tspan
           style="font-family:Dhurjati;-inkscape-font-specification:Dhurjati"
           id="tspan1877">THE QUICK BROWN FOX JUMPS OVER </tspan></tspan><tspan
         x="96.730469"
         y="377.99113"
         id="tspan1883"><tspan
           style="font-family:Dhurjati;-inkscape-font-specification:Dhurjati"
           id="tspan1881">THE LAZY DOG</tspan></tspan></text>
    <text
       xml:space="preserve"
       transform="matrix(0.26458333,0,0,0.26458333,-0.42683282,4.6535787)"
       id="text1660"
       style="font-size:10.6667px;line-height:0.75;font-family:Arial;-inkscape-font-specification:Arial;letter-spacing:0px;word-spacing:0px;white-space:pre;shape-inside:url(#rect1662)"><tspan
         x="96.730469"
         y="306.35937"
         id="tspan1887"><tspan
           style="font-family:Dhurjati;-inkscape-font-specification:Dhurjati"
           id="tspan1885">THE QUICK BROWN FOX JUMPS OVER THE LAZY DOG</tspan></tspan></text>
    <text
       xml:space="preserve"
       transform="matrix(0.26458333,0,0,0.26458333,-0.42683282,-4.7837957)"
       id="text1666"
       style="font-size:26.6667px;line-height:0.75;font-family:Arial;-inkscape-font-specification:Arial;letter-spacing:0px;word-spacing:0px;white-space:pre;shape-inside:url(#rect1668)"><tspan
         x="96.730469"
         y="316.77144"
         id="tspan1891"><tspan
           style="font-family:Dhurjati;-inkscape-font-specification:Dhurjati"
           id="tspan1889">THE QUICK BROWN FOX JUMPS OVER THE LAZY DOG</tspan></tspan></text>
    <text
       xml:space="preserve"
       transform="matrix(0.26458333,0,0,0.26458333,-0.66039603,-64.778806)"
       id="text1672"
       style="font-size:48px;line-height:0.75;font-family:Arial;-inkscape-font-specification:Arial;letter-spacing:0px;word-spacing:0px;white-space:pre;shape-inside:url(#rect1674)"><tspan
         x="96.730469"
         y="330.65418"
         id="tspan1895"><tspan
           style="font-family:Dhurjati;-inkscape-font-specification:Dhurjati"
           id="tspan1893">STYLE GUIDE</tspan></tspan></text>
    <text
       xml:space="preserve"
       style="font-size:3.88056px;line-height:1.25;font-family:'Open Sans';-inkscape-font-specification:'Open Sans';letter-spacing:0px;word-spacing:0px;stroke-width:0.264583;font-weight:normal;font-style:normal;font-stretch:normal;font-variant:normal"
       x="25.4"
       y="96.806313"
       id="text1678"><tspan
         sodipodi:role="line"
         id="tspan1676"
         style="font-weight:bold;stroke-width:0.264583;-inkscape-font-specification:'Open Sans';font-family:'Open Sans';font-style:normal;font-stretch:normal;font-variant:normal"
         x="25.4"
         y="96.806313">Font (Headings, Body)</tspan></text>
    <text
       xml:space="preserve"
       style="font-size:3.88056px;line-height:1.25;font-family:'Open Sans';-inkscape-font-specification:'Open Sans';letter-spacing:0px;word-spacing:0px;stroke-width:0.264583;font-weight:normal;font-style:normal;font-stretch:normal;font-variant:normal"
       x="25.4"
       y="102.5648"
       id="text1684"><tspan
         sodipodi:role="line"
         style="stroke-width:0.264583;-inkscape-font-specification:'Open Sans';font-family:'Open Sans';font-weight:normal;font-style:normal;font-stretch:normal;font-variant:normal"
         x="25.4"
         y="102.5648"
         id="tspan1680">28pt, 24pt, 8pt, </tspan><tspan
         sodipodi:role="line"
         style="stroke-width:0.264583;-inkscape-font-specification:'Open Sans';font-family:'Open Sans';font-weight:normal;font-style:normal;font-stretch:normal;font-variant:normal"
         x="25.4"
         y="107.4155"
         id="tspan1682">125% line spacing</tspan></text>
    <text
       xml:space="preserve"
       transform="matrix(0.26458333,0,0,0.26458333,-0.42683282,33.348768)"
       id="text1688"
       style="font-size:37.3333px;line-height:1.25;font-family:Arial;-inkscape-font-specification:Arial;letter-spacing:0px;word-spacing:0px;white-space:pre;shape-inside:url(#rect1698)"><tspan
         x="96.730469"
         y="333.38639"
         id="tspan1899"><tspan
           style="font-family:'Open Sans';-inkscape-font-specification:'Open Sans'"
           id="tspan1897">Heading 1</tspan></tspan></text>
    <text
       xml:space="preserve"
       transform="matrix(0.26458333,0,0,0.26458333,-0.42683282,47.837531)"
       id="text461"
       style="font-size:32.0000004px;line-height:1.25;font-family:Arial;-inkscape-font-specification:Arial;letter-spacing:0px;word-spacing:0px;white-space:pre;shape-inside:url(#rect463)"><tspan
         x="96.730469"
         y="328.53378"
         id="tspan1903"><tspan
           style="font-family:'Open Sans';-inkscape-font-specification:'Open Sans'"
           id="tspan1901">Heading 2</tspan></tspan></text>
    <text
       xml:space="preserve"
       transform="matrix(0.26458333,0,0,0.26458333,-0.42683282,61.361556)"
       id="text467"
       style="font-size:16px;line-height:1.25;font-family:Arial;-inkscape-font-specification:Arial;letter-spacing:0px;word-spacing:0px;white-space:pre;shape-inside:url(#rect469)"><tspan
         x="96.730469"
         y="313.97587"
         id="tspan1907"><tspan
           style="font-family:'Open Sans';-inkscape-font-specification:'Open Sans'"
           id="tspan1905">Body text.  The quick brown fox jumps over the lazy dog.</tspan></tspan></text>
    <text
       xml:space="preserve"
       style="font-style:normal;font-variant:normal;font-weight:normal;font-stretch:normal;font-size:3.88056px;line-height:1.25;font-family:'Open Sans';-inkscape-font-specification:'Open Sans';letter-spacing:0px;word-spacing:0px;stroke-width:0.264583"
       x="25.4"
       y="156.98418"
       id="text473"><tspan
         sodipodi:role="line"
         id="tspan471"
         style="font-style:normal;font-variant:normal;font-weight:bold;font-stretch:normal;font-family:'Open Sans';-inkscape-font-specification:'Open Sans';stroke-width:0.264583"
         x="25.4"
         y="156.98418">Colour Swatches</tspan></text>
    <rect
       style="fill:#0088aa;stroke:none;stroke-width:0.265;stroke-linecap:round;stroke-linejoin:round;stroke-miterlimit:4.1;fill-opacity:1;stroke-dasharray:none"
       id="rect529"
       width="40"
       height="20"
       x="25.532291"
       y="162.49886" />
  </g>
</svg>
